<svg width="24" height="24" viewBox="0 0 24 24" fill="none" xmlns="http://www.w3.org/2000/svg">
<path d="M4.91876 18.9624V19.0813H5.03757H19.5326C19.7759 19.0813 19.9841 19.2894 19.9841 19.5327C19.9841 19.776 19.7759 19.9842 19.5326 19.9842H4.46727C4.22398 19.9842 4.01578 19.776 4.01578 19.5327V4.46739C4.01578 4.2241 4.22398 4.01591 4.46727 4.01591C4.71056 4.01591 4.91876 4.2241 4.91876 4.46739V18.9624Z" fill="#6E7280" stroke="#6E7280" stroke-width="0.237624"/>
<path d="M10.4555 8.53075V16.7525C10.4555 17.0228 10.2441 17.2278 10.004 17.2278C9.76069 17.2278 9.55249 17.0196 9.55249 16.7763V8.53075C9.55249 8.28745 9.76069 8.07926 10.004 8.07926C10.2473 8.07926 10.4555 8.28745 10.4555 8.53075ZM7.69903 8.53075V16.7525C7.69903 17.0134 7.49634 17.2061 7.24304 17.2278C7.00169 17.2252 6.79606 17.0181 6.79606 16.7763V8.53075C6.79606 8.28745 7.00425 8.07926 7.24754 8.07926C7.49084 8.07926 7.69903 8.28745 7.69903 8.53075ZM15.9921 8.53075V16.7525C15.9921 17.0134 15.7894 17.2061 15.5361 17.2278C15.2948 17.2252 15.0891 17.0181 15.0891 16.7763V8.53075C15.0891 8.28745 15.2973 8.07926 15.5406 8.07926C15.7839 8.07926 15.9921 8.28745 15.9921 8.53075ZM18.7485 12.6416V16.7525C18.7485 17.0164 18.5436 17.204 18.297 17.204C18.0538 17.204 17.8456 16.9958 17.8456 16.7525V12.6416C17.8456 12.3983 18.0538 12.1902 18.297 12.1902C18.5403 12.1902 18.7485 12.3983 18.7485 12.6416ZM13.2119 12.6416V16.7525C13.2119 17.0164 13.007 17.204 12.7604 17.204C12.5171 17.204 12.3089 16.9958 12.3089 16.7525V12.6416C12.3089 12.3983 12.5171 12.1902 12.7604 12.1902C13.0037 12.1902 13.2119 12.3983 13.2119 12.6416Z" fill="#6E7280" stroke="#6E7280" stroke-width="0.237624"/>
</svg>
