<svg width="24" height="24" viewBox="0 0 24 24" fill="none" xmlns="http://www.w3.org/2000/svg">
<mask id="path-1-inside-1_1238_8728" fill="white">
<path d="M10.8606 0.352332L10.7312 0.463212L10.7173 1.79953C10.6988 3.32521 10.7173 3.45001 10.9669 3.55177C11.1611 3.63505 11.3276 3.59809 11.4476 3.44545C11.5355 3.33457 11.54 3.25129 11.54 1.91977V0.509532L11.4059 0.375372C11.235 0.209052 11.0408 0.199932 10.8606 0.352332ZM12.5528 0.375612L12.4187 0.509772V1.91521C12.4187 3.12649 12.428 3.33457 12.4926 3.42241C12.6728 3.68137 13.066 3.63961 13.1862 3.35761C13.2834 3.12193 13.2786 0.662172 13.1816 0.472572C13.0429 0.204492 12.7655 0.162972 12.5528 0.375612ZM14.4253 0.509532C14.3699 0.518892 14.2775 0.574333 14.2172 0.638893L14.1064 0.759132V2.16937V3.57961L14.2357 3.69049C14.4114 3.83833 14.6519 3.83833 14.7997 3.68593L14.9154 3.57505V2.17417C14.9154 0.643932 14.9108 0.616092 14.6519 0.532812C14.578 0.509532 14.4762 0.500412 14.4253 0.509532ZM9.15924 0.634572L9.04356 0.745453V2.16025V3.57505L9.15924 3.68593C9.30708 3.83857 9.54756 3.83857 9.72324 3.69049L9.8526 3.57961V2.16937V0.759132L9.74172 0.638893C9.58908 0.477133 9.31644 0.472572 9.15924 0.634572ZM7.6242 1.03681C7.3422 1.11073 7.32828 1.18945 7.3422 2.69665L7.35612 4.04209L7.48548 4.15297C7.69812 4.33321 7.98012 4.29625 8.0958 4.07449C8.19756 3.88033 8.19756 1.32361 8.0958 1.18033C8.0034 1.04593 7.80444 0.985932 7.6242 1.03681ZM16.0388 1.05049C15.9604 1.08289 15.8725 1.15225 15.8447 1.20769C15.7708 1.34185 15.7753 3.91249 15.8492 4.04641C15.9786 4.29145 16.256 4.33777 16.4735 4.15273L16.6028 4.04185L16.6168 2.71033C16.6307 1.23553 16.6213 1.15225 16.3672 1.04593C16.1869 0.972012 16.2239 0.967453 16.0388 1.05049Z"/>
</mask>
<path d="M10.8606 0.352332L10.7312 0.463212L10.7173 1.79953C10.6988 3.32521 10.7173 3.45001 10.9669 3.55177C11.1611 3.63505 11.3276 3.59809 11.4476 3.44545C11.5355 3.33457 11.54 3.25129 11.54 1.91977V0.509532L11.4059 0.375372C11.235 0.209052 11.0408 0.199932 10.8606 0.352332ZM12.5528 0.375612L12.4187 0.509772V1.91521C12.4187 3.12649 12.428 3.33457 12.4926 3.42241C12.6728 3.68137 13.066 3.63961 13.1862 3.35761C13.2834 3.12193 13.2786 0.662172 13.1816 0.472572C13.0429 0.204492 12.7655 0.162972 12.5528 0.375612ZM14.4253 0.509532C14.3699 0.518892 14.2775 0.574333 14.2172 0.638893L14.1064 0.759132V2.16937V3.57961L14.2357 3.69049C14.4114 3.83833 14.6519 3.83833 14.7997 3.68593L14.9154 3.57505V2.17417C14.9154 0.643932 14.9108 0.616092 14.6519 0.532812C14.578 0.509532 14.4762 0.500412 14.4253 0.509532ZM9.15924 0.634572L9.04356 0.745453V2.16025V3.57505L9.15924 3.68593C9.30708 3.83857 9.54756 3.83857 9.72324 3.69049L9.8526 3.57961V2.16937V0.759132L9.74172 0.638893C9.58908 0.477133 9.31644 0.472572 9.15924 0.634572ZM7.6242 1.03681C7.3422 1.11073 7.32828 1.18945 7.3422 2.69665L7.35612 4.04209L7.48548 4.15297C7.69812 4.33321 7.98012 4.29625 8.0958 4.07449C8.19756 3.88033 8.19756 1.32361 8.0958 1.18033C8.0034 1.04593 7.80444 0.985932 7.6242 1.03681ZM16.0388 1.05049C15.9604 1.08289 15.8725 1.15225 15.8447 1.20769C15.7708 1.34185 15.7753 3.91249 15.8492 4.04641C15.9786 4.29145 16.256 4.33777 16.4735 4.15273L16.6028 4.04185L16.6168 2.71033C16.6307 1.23553 16.6213 1.15225 16.3672 1.04593C16.1869 0.972012 16.2239 0.967453 16.0388 1.05049Z" fill="#6E7280" stroke="#6E7280" stroke-width="0.0048" mask="url(#path-1-inside-1_1238_8728)"/>
<mask id="path-2-inside-2_1238_8728" fill="white">
<path d="M5.84402 1.79495C5.77466 1.83191 5.7053 1.91063 5.69138 1.96607C5.67746 2.02151 5.6729 3.34847 5.67746 4.91111L5.69138 7.75463L5.84858 8.09207L6.00578 8.42951L5.8901 8.55431C5.58026 8.87807 5.4833 9.27095 5.53418 9.93671C5.6081 10.8799 5.88098 11.6659 6.3017 12.1236C6.50522 12.3456 6.54218 12.4149 6.58826 12.683C6.72698 13.4829 7.15706 14.6988 7.70714 15.8455C7.88282 16.2153 8.00306 16.5297 8.02154 16.6824C8.08634 17.1355 7.95674 17.7319 7.7441 18.0048C7.70258 18.0557 7.51298 18.1205 7.21706 18.1805C5.15522 18.5966 3.14402 19.4841 2.0297 20.4691C1.37786 21.0425 1.35458 21.9902 1.97882 22.5497C2.2469 22.7901 2.4365 22.8547 3.26402 23.0073C8.59946 23.9784 14.6609 24.0105 20.1166 23.0997C21.5359 22.8638 21.8319 22.7714 22.1093 22.4709C22.3774 22.1889 22.47 21.9439 22.4746 21.5323C22.4746 21.0144 22.3313 20.7278 21.8921 20.3625C20.6808 19.3685 19.0025 18.6288 17.1022 18.245C16.1635 18.06 16.1729 18.0648 16.0203 17.5653C15.9415 17.3112 15.9279 17.1677 15.9415 16.8257C15.96 16.4325 15.9785 16.368 16.1727 15.9797C16.6858 14.9765 17.1667 13.6771 17.3285 12.8635C17.4118 12.4289 17.4442 12.3595 17.6011 12.1884C18.1097 11.6289 18.3687 10.8753 18.415 9.82583L18.4426 9.21095L18.2993 8.91959C18.2206 8.76239 18.1051 8.58215 18.0449 8.52671L17.934 8.42039L18.1191 8.05511C18.3411 7.62503 18.3178 8.02727 18.3041 4.41191L18.2902 1.9939L18.1699 1.88303C18.0034 1.73039 17.7677 1.73039 17.6196 1.88303C17.5548 1.94303 17.5039 2.03111 17.4994 2.07718C17.4994 2.1235 17.4948 3.35783 17.4994 4.81895V7.47239L17.3561 7.73135C16.9123 8.52191 16.9123 8.52671 17.3146 8.96111C17.4672 9.11831 17.6011 9.31247 17.6196 9.39119C17.6566 9.56231 17.5781 10.2929 17.4809 10.6673C17.3467 11.1897 17.1759 11.4672 16.7736 11.8001C16.6579 11.9018 16.6303 11.9618 16.6025 12.2162C16.5149 13.0577 16.0805 14.3244 15.4656 15.5496C15.2899 15.9055 15.1882 16.049 14.9525 16.2617C14.5503 16.6224 14.0139 17.0061 13.4129 17.3527C12.8626 17.6717 12.8719 17.6671 12.1831 17.6023C11.9196 17.5745 11.7718 17.5838 11.5774 17.6438C11.3463 17.7086 11.2999 17.7086 11.1288 17.6484C10.6109 17.4681 9.85274 16.9687 9.08522 16.3123C8.67362 15.9564 8.65514 15.9331 8.4101 15.4154C7.85522 14.2272 7.48538 13.1546 7.37906 12.401C7.30514 11.8694 7.29578 11.8555 7.09706 11.7307C6.73178 11.4996 6.4637 10.8753 6.36194 10.0245C6.28802 9.40511 6.31106 9.31247 6.63482 8.96591C6.7829 8.80871 6.91682 8.63303 6.9353 8.57303C6.96314 8.49911 6.90746 8.34191 6.72266 7.97663L6.47762 7.48655L6.45458 4.69391L6.43154 1.89671L6.32066 1.80887C6.19082 1.70255 6.01514 1.69775 5.84402 1.79495ZM9.75554 17.8567C10.2271 18.1711 10.7957 18.4346 11.1473 18.504C11.3784 18.5455 11.4571 18.5455 11.628 18.4855C11.8824 18.3931 12.2105 18.3931 12.4695 18.4809C12.6312 18.5409 12.7145 18.5457 12.8763 18.504C13.26 18.4068 14.2493 17.8567 14.8275 17.4175L15.091 17.214L15.1697 17.5608C15.2667 18.0093 15.5211 18.5085 15.7383 18.689C15.9139 18.8371 16.0435 18.8832 16.5012 18.9665C16.8111 19.0265 16.8156 19.0404 16.6678 19.5674C16.3625 20.6817 15.5026 21.8237 14.3607 22.6421L13.9723 22.9195H11.9796H9.99122L9.69074 22.716C9.29306 22.4479 8.4701 21.611 8.20202 21.2088C7.79042 20.5845 7.3745 19.6737 7.26338 19.1652L7.23554 19.0219L7.50362 18.9665C7.65146 18.9386 7.8365 18.8925 7.91978 18.8695C8.2805 18.7538 8.69642 18.125 8.8121 17.5101L8.86754 17.2142L9.13106 17.4129C9.27458 17.5193 9.55682 17.7225 9.75554 17.8567ZM6.51914 19.5581C6.79202 20.5613 7.45322 21.7265 8.18354 22.4894L8.47946 22.8038H8.30834C7.2773 22.8038 2.96834 22.2029 2.60306 22.0085C2.48282 21.9437 2.33954 21.6941 2.33954 21.5414C2.33954 21.2733 2.5337 21.0744 3.2873 20.5519C3.52322 20.3901 4.17962 20.0388 4.62338 19.8398C5.12738 19.6087 6.37562 19.1925 6.41258 19.2341C6.42674 19.253 6.47738 19.3963 6.51914 19.5581ZM18.4755 19.4611C19.5065 19.8031 20.3386 20.2286 21.1433 20.8344C21.5734 21.1579 21.6658 21.2829 21.6658 21.5556C21.6658 21.7913 21.4947 21.9857 21.222 22.0596C20.6117 22.2259 18.0689 22.5912 16.5384 22.7347C15.3687 22.841 15.4289 22.8828 15.9651 22.3279C16.788 21.4725 17.3383 20.4739 17.551 19.4613C17.6153 19.1513 17.532 19.1513 18.4755 19.4611Z"/>
</mask>
<path d="M5.84402 1.79495C5.77466 1.83191 5.7053 1.91063 5.69138 1.96607C5.67746 2.02151 5.6729 3.34847 5.67746 4.91111L5.69138 7.75463L5.84858 8.09207L6.00578 8.42951L5.8901 8.55431C5.58026 8.87807 5.4833 9.27095 5.53418 9.93671C5.6081 10.8799 5.88098 11.6659 6.3017 12.1236C6.50522 12.3456 6.54218 12.4149 6.58826 12.683C6.72698 13.4829 7.15706 14.6988 7.70714 15.8455C7.88282 16.2153 8.00306 16.5297 8.02154 16.6824C8.08634 17.1355 7.95674 17.7319 7.7441 18.0048C7.70258 18.0557 7.51298 18.1205 7.21706 18.1805C5.15522 18.5966 3.14402 19.4841 2.0297 20.4691C1.37786 21.0425 1.35458 21.9902 1.97882 22.5497C2.2469 22.7901 2.4365 22.8547 3.26402 23.0073C8.59946 23.9784 14.6609 24.0105 20.1166 23.0997C21.5359 22.8638 21.8319 22.7714 22.1093 22.4709C22.3774 22.1889 22.47 21.9439 22.4746 21.5323C22.4746 21.0144 22.3313 20.7278 21.8921 20.3625C20.6808 19.3685 19.0025 18.6288 17.1022 18.245C16.1635 18.06 16.1729 18.0648 16.0203 17.5653C15.9415 17.3112 15.9279 17.1677 15.9415 16.8257C15.96 16.4325 15.9785 16.368 16.1727 15.9797C16.6858 14.9765 17.1667 13.6771 17.3285 12.8635C17.4118 12.4289 17.4442 12.3595 17.6011 12.1884C18.1097 11.6289 18.3687 10.8753 18.415 9.82583L18.4426 9.21095L18.2993 8.91959C18.2206 8.76239 18.1051 8.58215 18.0449 8.52671L17.934 8.42039L18.1191 8.05511C18.3411 7.62503 18.3178 8.02727 18.3041 4.41191L18.2902 1.9939L18.1699 1.88303C18.0034 1.73039 17.7677 1.73039 17.6196 1.88303C17.5548 1.94303 17.5039 2.03111 17.4994 2.07718C17.4994 2.1235 17.4948 3.35783 17.4994 4.81895V7.47239L17.3561 7.73135C16.9123 8.52191 16.9123 8.52671 17.3146 8.96111C17.4672 9.11831 17.6011 9.31247 17.6196 9.39119C17.6566 9.56231 17.5781 10.2929 17.4809 10.6673C17.3467 11.1897 17.1759 11.4672 16.7736 11.8001C16.6579 11.9018 16.6303 11.9618 16.6025 12.2162C16.5149 13.0577 16.0805 14.3244 15.4656 15.5496C15.2899 15.9055 15.1882 16.049 14.9525 16.2617C14.5503 16.6224 14.0139 17.0061 13.4129 17.3527C12.8626 17.6717 12.8719 17.6671 12.1831 17.6023C11.9196 17.5745 11.7718 17.5838 11.5774 17.6438C11.3463 17.7086 11.2999 17.7086 11.1288 17.6484C10.6109 17.4681 9.85274 16.9687 9.08522 16.3123C8.67362 15.9564 8.65514 15.9331 8.4101 15.4154C7.85522 14.2272 7.48538 13.1546 7.37906 12.401C7.30514 11.8694 7.29578 11.8555 7.09706 11.7307C6.73178 11.4996 6.4637 10.8753 6.36194 10.0245C6.28802 9.40511 6.31106 9.31247 6.63482 8.96591C6.7829 8.80871 6.91682 8.63303 6.9353 8.57303C6.96314 8.49911 6.90746 8.34191 6.72266 7.97663L6.47762 7.48655L6.45458 4.69391L6.43154 1.89671L6.32066 1.80887C6.19082 1.70255 6.01514 1.69775 5.84402 1.79495ZM9.75554 17.8567C10.2271 18.1711 10.7957 18.4346 11.1473 18.504C11.3784 18.5455 11.4571 18.5455 11.628 18.4855C11.8824 18.3931 12.2105 18.3931 12.4695 18.4809C12.6312 18.5409 12.7145 18.5457 12.8763 18.504C13.26 18.4068 14.2493 17.8567 14.8275 17.4175L15.091 17.214L15.1697 17.5608C15.2667 18.0093 15.5211 18.5085 15.7383 18.689C15.9139 18.8371 16.0435 18.8832 16.5012 18.9665C16.8111 19.0265 16.8156 19.0404 16.6678 19.5674C16.3625 20.6817 15.5026 21.8237 14.3607 22.6421L13.9723 22.9195H11.9796H9.99122L9.69074 22.716C9.29306 22.4479 8.4701 21.611 8.20202 21.2088C7.79042 20.5845 7.3745 19.6737 7.26338 19.1652L7.23554 19.0219L7.50362 18.9665C7.65146 18.9386 7.8365 18.8925 7.91978 18.8695C8.2805 18.7538 8.69642 18.125 8.8121 17.5101L8.86754 17.2142L9.13106 17.4129C9.27458 17.5193 9.55682 17.7225 9.75554 17.8567ZM6.51914 19.5581C6.79202 20.5613 7.45322 21.7265 8.18354 22.4894L8.47946 22.8038H8.30834C7.2773 22.8038 2.96834 22.2029 2.60306 22.0085C2.48282 21.9437 2.33954 21.6941 2.33954 21.5414C2.33954 21.2733 2.5337 21.0744 3.2873 20.5519C3.52322 20.3901 4.17962 20.0388 4.62338 19.8398C5.12738 19.6087 6.37562 19.1925 6.41258 19.2341C6.42674 19.253 6.47738 19.3963 6.51914 19.5581ZM18.4755 19.4611C19.5065 19.8031 20.3386 20.2286 21.1433 20.8344C21.5734 21.1579 21.6658 21.2829 21.6658 21.5556C21.6658 21.7913 21.4947 21.9857 21.222 22.0596C20.6117 22.2259 18.0689 22.5912 16.5384 22.7347C15.3687 22.841 15.4289 22.8828 15.9651 22.3279C16.788 21.4725 17.3383 20.4739 17.551 19.4613C17.6153 19.1513 17.532 19.1513 18.4755 19.4611Z" fill="#6E7280" stroke="#6E7280" stroke-width="0.0048" mask="url(#path-2-inside-2_1238_8728)"/>
<mask id="path-3-inside-3_1238_8728" fill="white">
<path d="M8.63669 9.46539C8.37317 9.58107 8.32229 9.88155 8.53037 10.0942C8.65973 10.219 8.68757 10.2283 9.03893 10.2283H9.41333V10.3671C9.41333 10.7045 9.92645 10.8756 10.1763 10.6215C10.2502 10.5521 10.292 10.4549 10.292 10.3671V10.2283H10.6618C10.9992 10.2283 11.0456 10.2144 11.1473 10.1127C11.3091 9.95547 11.3045 9.68259 11.1428 9.53019C11.0271 9.41931 11.018 9.41931 9.90821 9.40995C9.01589 9.40059 8.75693 9.40971 8.63669 9.46539ZM12.9457 9.44211C12.6821 9.54843 12.6173 9.90435 12.8163 10.1079C12.9272 10.2142 12.9735 10.2281 13.2785 10.2281C13.616 10.2281 13.6208 10.2281 13.6208 10.3483C13.6208 10.4177 13.6762 10.524 13.7549 10.6027C14.0139 10.8617 14.4624 10.7369 14.527 10.3901L14.5548 10.2283H14.9386C15.29 10.2283 15.3269 10.219 15.4426 10.1081C15.5998 9.94635 15.6044 9.72435 15.4517 9.54867L15.3408 9.41931L14.1896 9.40995C13.5608 9.40515 12.9965 9.41907 12.9457 9.44211ZM10.9484 14.5279C10.8929 14.551 10.8097 14.6436 10.7681 14.736C10.6942 14.8887 10.6942 14.9071 10.7681 15.0598C10.8097 15.1522 10.8975 15.2448 10.9669 15.2679C11.1195 15.3279 12.8393 15.3279 12.9965 15.2679C13.0659 15.24 13.1446 15.157 13.1861 15.0598C13.2416 14.9165 13.2416 14.8795 13.1861 14.736C13.1446 14.6388 13.0659 14.5558 12.9965 14.5279C12.8439 14.4725 11.0916 14.4725 10.9484 14.5279Z"/>
</mask>
<path d="M8.63669 9.46539C8.37317 9.58107 8.32229 9.88155 8.53037 10.0942C8.65973 10.219 8.68757 10.2283 9.03893 10.2283H9.41333V10.3671C9.41333 10.7045 9.92645 10.8756 10.1763 10.6215C10.2502 10.5521 10.292 10.4549 10.292 10.3671V10.2283H10.6618C10.9992 10.2283 11.0456 10.2144 11.1473 10.1127C11.3091 9.95547 11.3045 9.68259 11.1428 9.53019C11.0271 9.41931 11.018 9.41931 9.90821 9.40995C9.01589 9.40059 8.75693 9.40971 8.63669 9.46539ZM12.9457 9.44211C12.6821 9.54843 12.6173 9.90435 12.8163 10.1079C12.9272 10.2142 12.9735 10.2281 13.2785 10.2281C13.616 10.2281 13.6208 10.2281 13.6208 10.3483C13.6208 10.4177 13.6762 10.524 13.7549 10.6027C14.0139 10.8617 14.4624 10.7369 14.527 10.3901L14.5548 10.2283H14.9386C15.29 10.2283 15.3269 10.219 15.4426 10.1081C15.5998 9.94635 15.6044 9.72435 15.4517 9.54867L15.3408 9.41931L14.1896 9.40995C13.5608 9.40515 12.9965 9.41907 12.9457 9.44211ZM10.9484 14.5279C10.8929 14.551 10.8097 14.6436 10.7681 14.736C10.6942 14.8887 10.6942 14.9071 10.7681 15.0598C10.8097 15.1522 10.8975 15.2448 10.9669 15.2679C11.1195 15.3279 12.8393 15.3279 12.9965 15.2679C13.0659 15.24 13.1446 15.157 13.1861 15.0598C13.2416 14.9165 13.2416 14.8795 13.1861 14.736C13.1446 14.6388 13.0659 14.5558 12.9965 14.5279C12.8439 14.4725 11.0916 14.4725 10.9484 14.5279Z" fill="#6E7280" stroke="#6E7280" stroke-width="0.0048" mask="url(#path-3-inside-3_1238_8728)"/>
</svg>
