<svg width="24" height="24" viewBox="0 0 24 24" fill="none" xmlns="http://www.w3.org/2000/svg">
<path d="M12.4938 3.42173L12.4938 3.4217C12.4778 3.39993 12.4652 3.37065 12.4552 3.31996C12.4453 3.26926 12.4381 3.19723 12.4329 3.09004C12.4225 2.87567 12.4201 2.52086 12.4201 1.91521V0.510269L12.5539 0.376461C12.66 0.270355 12.7822 0.227767 12.895 0.245008C13.0078 0.262249 13.1116 0.339353 13.1808 0.473119C13.1808 0.47312 13.1808 0.473122 13.1808 0.473124L12.4938 3.42173ZM12.4938 3.42173C12.6735 3.67993 13.0655 3.63826 13.1853 3.35714L12.4938 3.42173ZM14.4258 0.510715L14.4258 0.510713C14.4511 0.506181 14.4891 0.506171 14.5301 0.510216C14.5711 0.51426 14.6149 0.522347 14.6518 0.533955C14.7165 0.554787 14.7651 0.57207 14.8017 0.610051C14.8383 0.648017 14.8631 0.706828 14.8798 0.811073C14.9133 1.0196 14.9144 1.40899 14.9144 2.17417V3.57454L14.7991 3.68507L14.7991 3.6851C14.6518 3.83697 14.412 3.83707 14.2367 3.68958L14.4258 0.510715ZM14.4258 0.510715C14.3983 0.515358 14.3615 0.531468 14.3239 0.554534C14.2865 0.577587 14.2484 0.607522 14.2184 0.639712L14.1078 0.7596V2.16937V3.57906L14.2367 3.68957L14.4258 0.510715ZM10.9676 3.55066L10.9676 3.55067C11.0645 3.59224 11.1545 3.60375 11.2351 3.58591C11.3157 3.56807 11.3871 3.52085 11.4469 3.44471L11.4469 3.44471C11.4688 3.41707 11.4855 3.39121 11.4982 3.3472C11.511 3.30313 11.5198 3.24082 11.5258 3.14028C11.5379 2.93921 11.5391 2.58555 11.5391 1.91977V0.510028L11.4053 0.376232C11.32 0.293222 11.229 0.249535 11.1369 0.245531C11.0449 0.241527 10.9516 0.277194 10.8616 0.353248L10.7327 0.463769L10.7188 1.79954C10.7095 2.56244 10.7095 2.97494 10.743 3.20945C10.7598 3.3267 10.7849 3.39928 10.8212 3.44889C10.8576 3.49847 10.9053 3.52525 10.9676 3.55066ZM9.16034 0.635408L9.16031 0.635438L9.045 0.745965V2.16025V3.57454L9.16031 3.68507L9.16034 3.6851C9.30768 3.83722 9.54743 3.83731 9.72271 3.68957L9.85164 3.57906V2.16937V0.759601L9.74109 0.639716C9.58891 0.478448 9.31706 0.473904 9.16034 0.635408ZM7.62477 1.03797L7.62475 1.03797C7.55425 1.05645 7.5008 1.07517 7.46031 1.11624C7.41982 1.15731 7.39213 1.22088 7.37365 1.32945C7.33669 1.54664 7.33668 1.94298 7.34364 2.69664L7.35756 4.04154L7.4865 4.15206C7.69868 4.33191 7.97973 4.29487 8.09498 4.07394L8.09498 4.07394C8.10125 4.06197 8.10719 4.04077 8.11275 4.01134C8.11831 3.98196 8.12347 3.94451 8.12824 3.90014C8.13777 3.8114 8.14572 3.69507 8.15208 3.56046C8.1648 3.29125 8.17116 2.949 8.17116 2.60833C8.17116 2.26766 8.1648 1.92859 8.15208 1.66575C8.14572 1.53432 8.13777 1.42196 8.12824 1.338C8.12347 1.29602 8.11831 1.26115 8.11275 1.23456C8.10998 1.22126 8.10711 1.21005 8.10414 1.20107C8.10118 1.19206 8.09814 1.18536 8.09506 1.18103L8.09505 1.18101C8.003 1.04712 7.80461 0.987198 7.62477 1.03797ZM16.0396 1.05159L16.0395 1.0516C16.0004 1.06775 15.9589 1.09313 15.9238 1.12139C15.8886 1.14966 15.8598 1.18074 15.846 1.20823L15.846 1.20827C15.8437 1.21232 15.8415 1.21877 15.8394 1.22755C15.8372 1.2363 15.8352 1.2473 15.8332 1.26039C15.8292 1.28658 15.8255 1.32111 15.8221 1.36279C15.8153 1.44616 15.8097 1.55808 15.8053 1.68905C15.7964 1.95099 15.7924 2.28906 15.793 2.62714C15.7935 2.96522 15.7987 3.30328 15.8084 3.56519C15.8132 3.69614 15.8192 3.80805 15.8262 3.89139C15.8298 3.93306 15.8336 3.96758 15.8376 3.99375C15.8397 4.00684 15.8418 4.01783 15.8439 4.02658C15.8461 4.03535 15.8483 4.04179 15.8505 4.04583L15.8505 4.04585C15.9151 4.16807 16.0165 4.24066 16.1288 4.25967C16.2411 4.27868 16.3645 4.24414 16.4729 4.15182L16.6019 4.0413L16.6158 2.71032C16.6228 1.97286 16.6239 1.58347 16.5915 1.36513C16.5754 1.25598 16.5509 1.18976 16.5146 1.1442C16.4784 1.09865 16.4305 1.07361 16.3669 1.04704C16.3468 1.0388 16.3295 1.03143 16.3142 1.02494C16.2952 1.01687 16.2794 1.01018 16.2657 1.0049C16.2409 0.995392 16.223 0.990552 16.205 0.990552C16.1871 0.990552 16.1689 0.995392 16.1435 1.00547C16.1256 1.01261 16.1041 1.02236 16.0766 1.03483C16.0654 1.03995 16.0531 1.04554 16.0396 1.05159ZM16.0391 1.05049C15.9606 1.08289 15.8728 1.15225 15.8449 1.20769C15.771 1.34185 15.7756 3.91249 15.8495 4.04641L16.0391 1.05049Z" fill="#6E7280" stroke="#6E7280" stroke-width="0.0024"/>
<mask id="path-2-inside-1_1234_2813" fill="white">
<path d="M5.84408 1.79495C5.77472 1.83191 5.70536 1.91063 5.69144 1.96607C5.67752 2.02151 5.67296 3.34847 5.67752 4.91111L5.69144 7.75463L5.84864 8.09207L6.00584 8.42951L5.89016 8.55431C5.58032 8.87807 5.48336 9.27095 5.53424 9.93671C5.60816 10.8799 5.88104 11.6659 6.30176 12.1236C6.50528 12.3456 6.54224 12.4149 6.58832 12.683C6.72704 13.4829 7.15712 14.6988 7.7072 15.8455C7.88288 16.2153 8.00312 16.5297 8.0216 16.6824C8.0864 17.1355 7.9568 17.7319 7.74416 18.0048C7.70264 18.0557 7.51304 18.1205 7.21712 18.1805C5.15528 18.5966 3.14408 19.4841 2.02976 20.4691C1.37792 21.0425 1.35464 21.9902 1.97888 22.5497C2.24696 22.7901 2.43656 22.8547 3.26408 23.0073C8.59952 23.9784 14.661 24.0105 20.1166 23.0997C21.536 22.8638 21.8319 22.7714 22.1094 22.4709C22.3774 22.1889 22.4701 21.9439 22.4746 21.5323C22.4746 21.0144 22.3314 20.7278 21.8922 20.3625C20.6809 19.3685 19.0026 18.6288 17.1022 18.245C16.1636 18.06 16.173 18.0648 16.0203 17.5653C15.9416 17.3112 15.9279 17.1677 15.9416 16.8257C15.9601 16.4325 15.9786 16.368 16.1727 15.9797C16.6858 14.9765 17.1668 13.6771 17.3286 12.8635C17.4118 12.4289 17.4442 12.3595 17.6012 12.1884C18.1098 11.6289 18.3687 10.8753 18.415 9.82583L18.4426 9.21095L18.2994 8.91959C18.2206 8.76239 18.1052 8.58215 18.045 8.52671L17.9341 8.42039L18.1191 8.05511C18.3411 7.62503 18.3178 8.02727 18.3042 4.41191L18.2902 1.9939L18.17 1.88303C18.0034 1.73039 17.7678 1.73039 17.6197 1.88303C17.5549 1.94303 17.504 2.03111 17.4994 2.07718C17.4994 2.1235 17.4949 3.35783 17.4994 4.81895V7.47239L17.3562 7.73135C16.9124 8.52191 16.9124 8.52671 17.3146 8.96111C17.4673 9.11831 17.6012 9.31247 17.6197 9.39119C17.6566 9.56231 17.5782 10.2929 17.481 10.6673C17.3468 11.1897 17.1759 11.4672 16.7737 11.8001C16.658 11.9018 16.6304 11.9618 16.6026 12.2162C16.515 13.0577 16.0806 14.3244 15.4657 15.5496C15.29 15.9055 15.1882 16.049 14.9526 16.2617C14.5503 16.6224 14.0139 17.0061 13.413 17.3527C12.8626 17.6717 12.872 17.6671 12.1832 17.6023C11.9197 17.5745 11.7718 17.5838 11.5774 17.6438C11.3463 17.7086 11.3 17.7086 11.1289 17.6484C10.611 17.4681 9.8528 16.9687 9.08528 16.3123C8.67368 15.9564 8.6552 15.9331 8.41016 15.4154C7.85528 14.2272 7.48544 13.1546 7.37912 12.401C7.3052 11.8694 7.29584 11.8555 7.09712 11.7307C6.73184 11.4996 6.46376 10.8753 6.362 10.0245C6.28808 9.40511 6.31112 9.31247 6.63488 8.96591C6.78296 8.80871 6.91688 8.63303 6.93536 8.57303C6.9632 8.49911 6.90752 8.34191 6.72272 7.97663L6.47768 7.48655L6.45464 4.69391L6.4316 1.89671L6.32072 1.80887C6.19088 1.70255 6.0152 1.69775 5.84408 1.79495ZM9.7556 17.8567C10.2272 18.1711 10.7958 18.4346 11.1474 18.504C11.3785 18.5455 11.4572 18.5455 11.6281 18.4855C11.8825 18.3931 12.2106 18.3931 12.4695 18.4809C12.6313 18.5409 12.7146 18.5457 12.8763 18.504C13.2601 18.4068 14.2494 17.8567 14.8275 17.4175L15.091 17.214L15.1698 17.5608C15.2667 18.0093 15.5211 18.5085 15.7383 18.689C15.914 18.8371 16.0436 18.8832 16.5013 18.9665C16.8111 19.0265 16.8157 19.0404 16.6678 19.5674C16.3626 20.6817 15.5026 21.8237 14.3607 22.6421L13.9724 22.9195H11.9797H9.99128L9.6908 22.716C9.29312 22.4479 8.47016 21.611 8.20208 21.2088C7.79048 20.5845 7.37456 19.6737 7.26344 19.1652L7.2356 19.0219L7.50368 18.9665C7.65152 18.9386 7.83656 18.8925 7.91984 18.8695C8.28056 18.7538 8.69648 18.125 8.81216 17.5101L8.8676 17.2142L9.13112 17.4129C9.27464 17.5193 9.55688 17.7225 9.7556 17.8567ZM6.5192 19.5581C6.79208 20.5613 7.45328 21.7265 8.1836 22.4894L8.47952 22.8038H8.3084C7.27736 22.8038 2.9684 22.2029 2.60312 22.0085C2.48288 21.9437 2.3396 21.6941 2.3396 21.5414C2.3396 21.2733 2.53376 21.0744 3.28736 20.5519C3.52328 20.3901 4.17968 20.0388 4.62344 19.8398C5.12744 19.6087 6.37568 19.1925 6.41264 19.2341C6.4268 19.253 6.47744 19.3963 6.5192 19.5581ZM18.4755 19.4611C19.5066 19.8031 20.3386 20.2286 21.1434 20.8344C21.5734 21.1579 21.6658 21.2829 21.6658 21.5556C21.6658 21.7913 21.4947 21.9857 21.2221 22.0596C20.6118 22.2259 18.069 22.5912 16.5385 22.7347C15.3687 22.841 15.429 22.8828 15.9651 22.3279C16.7881 21.4725 17.3384 20.4739 17.551 19.4613C17.6154 19.1513 17.5321 19.1513 18.4755 19.4611Z"/>
</mask>
<path d="M5.84408 1.79495C5.77472 1.83191 5.70536 1.91063 5.69144 1.96607C5.67752 2.02151 5.67296 3.34847 5.67752 4.91111L5.69144 7.75463L5.84864 8.09207L6.00584 8.42951L5.89016 8.55431C5.58032 8.87807 5.48336 9.27095 5.53424 9.93671C5.60816 10.8799 5.88104 11.6659 6.30176 12.1236C6.50528 12.3456 6.54224 12.4149 6.58832 12.683C6.72704 13.4829 7.15712 14.6988 7.7072 15.8455C7.88288 16.2153 8.00312 16.5297 8.0216 16.6824C8.0864 17.1355 7.9568 17.7319 7.74416 18.0048C7.70264 18.0557 7.51304 18.1205 7.21712 18.1805C5.15528 18.5966 3.14408 19.4841 2.02976 20.4691C1.37792 21.0425 1.35464 21.9902 1.97888 22.5497C2.24696 22.7901 2.43656 22.8547 3.26408 23.0073C8.59952 23.9784 14.661 24.0105 20.1166 23.0997C21.536 22.8638 21.8319 22.7714 22.1094 22.4709C22.3774 22.1889 22.4701 21.9439 22.4746 21.5323C22.4746 21.0144 22.3314 20.7278 21.8922 20.3625C20.6809 19.3685 19.0026 18.6288 17.1022 18.245C16.1636 18.06 16.173 18.0648 16.0203 17.5653C15.9416 17.3112 15.9279 17.1677 15.9416 16.8257C15.9601 16.4325 15.9786 16.368 16.1727 15.9797C16.6858 14.9765 17.1668 13.6771 17.3286 12.8635C17.4118 12.4289 17.4442 12.3595 17.6012 12.1884C18.1098 11.6289 18.3687 10.8753 18.415 9.82583L18.4426 9.21095L18.2994 8.91959C18.2206 8.76239 18.1052 8.58215 18.045 8.52671L17.9341 8.42039L18.1191 8.05511C18.3411 7.62503 18.3178 8.02727 18.3042 4.41191L18.2902 1.9939L18.17 1.88303C18.0034 1.73039 17.7678 1.73039 17.6197 1.88303C17.5549 1.94303 17.504 2.03111 17.4994 2.07718C17.4994 2.1235 17.4949 3.35783 17.4994 4.81895V7.47239L17.3562 7.73135C16.9124 8.52191 16.9124 8.52671 17.3146 8.96111C17.4673 9.11831 17.6012 9.31247 17.6197 9.39119C17.6566 9.56231 17.5782 10.2929 17.481 10.6673C17.3468 11.1897 17.1759 11.4672 16.7737 11.8001C16.658 11.9018 16.6304 11.9618 16.6026 12.2162C16.515 13.0577 16.0806 14.3244 15.4657 15.5496C15.29 15.9055 15.1882 16.049 14.9526 16.2617C14.5503 16.6224 14.0139 17.0061 13.413 17.3527C12.8626 17.6717 12.872 17.6671 12.1832 17.6023C11.9197 17.5745 11.7718 17.5838 11.5774 17.6438C11.3463 17.7086 11.3 17.7086 11.1289 17.6484C10.611 17.4681 9.8528 16.9687 9.08528 16.3123C8.67368 15.9564 8.6552 15.9331 8.41016 15.4154C7.85528 14.2272 7.48544 13.1546 7.37912 12.401C7.3052 11.8694 7.29584 11.8555 7.09712 11.7307C6.73184 11.4996 6.46376 10.8753 6.362 10.0245C6.28808 9.40511 6.31112 9.31247 6.63488 8.96591C6.78296 8.80871 6.91688 8.63303 6.93536 8.57303C6.9632 8.49911 6.90752 8.34191 6.72272 7.97663L6.47768 7.48655L6.45464 4.69391L6.4316 1.89671L6.32072 1.80887C6.19088 1.70255 6.0152 1.69775 5.84408 1.79495ZM9.7556 17.8567C10.2272 18.1711 10.7958 18.4346 11.1474 18.504C11.3785 18.5455 11.4572 18.5455 11.6281 18.4855C11.8825 18.3931 12.2106 18.3931 12.4695 18.4809C12.6313 18.5409 12.7146 18.5457 12.8763 18.504C13.2601 18.4068 14.2494 17.8567 14.8275 17.4175L15.091 17.214L15.1698 17.5608C15.2667 18.0093 15.5211 18.5085 15.7383 18.689C15.914 18.8371 16.0436 18.8832 16.5013 18.9665C16.8111 19.0265 16.8157 19.0404 16.6678 19.5674C16.3626 20.6817 15.5026 21.8237 14.3607 22.6421L13.9724 22.9195H11.9797H9.99128L9.6908 22.716C9.29312 22.4479 8.47016 21.611 8.20208 21.2088C7.79048 20.5845 7.37456 19.6737 7.26344 19.1652L7.2356 19.0219L7.50368 18.9665C7.65152 18.9386 7.83656 18.8925 7.91984 18.8695C8.28056 18.7538 8.69648 18.125 8.81216 17.5101L8.8676 17.2142L9.13112 17.4129C9.27464 17.5193 9.55688 17.7225 9.7556 17.8567ZM6.5192 19.5581C6.79208 20.5613 7.45328 21.7265 8.1836 22.4894L8.47952 22.8038H8.3084C7.27736 22.8038 2.9684 22.2029 2.60312 22.0085C2.48288 21.9437 2.3396 21.6941 2.3396 21.5414C2.3396 21.2733 2.53376 21.0744 3.28736 20.5519C3.52328 20.3901 4.17968 20.0388 4.62344 19.8398C5.12744 19.6087 6.37568 19.1925 6.41264 19.2341C6.4268 19.253 6.47744 19.3963 6.5192 19.5581ZM18.4755 19.4611C19.5066 19.8031 20.3386 20.2286 21.1434 20.8344C21.5734 21.1579 21.6658 21.2829 21.6658 21.5556C21.6658 21.7913 21.4947 21.9857 21.2221 22.0596C20.6118 22.2259 18.069 22.5912 16.5385 22.7347C15.3687 22.841 15.429 22.8828 15.9651 22.3279C16.7881 21.4725 17.3384 20.4739 17.551 19.4613C17.6154 19.1513 17.5321 19.1513 18.4755 19.4611Z" fill="#6E7280" stroke="#6E7280" stroke-width="0.0048" mask="url(#path-2-inside-1_1234_2813)"/>
<path d="M10.9484 14.5279L10.9489 14.5291C10.9214 14.5405 10.8869 14.5692 10.854 14.6068C10.8211 14.6443 10.79 14.6904 10.7693 14.7365L10.7693 14.7365L12.9961 14.5291L12.9962 14.5291C12.9868 14.5257 12.9711 14.5224 12.9498 14.5194C12.9286 14.5164 12.9019 14.5135 12.8705 14.511C12.8078 14.5058 12.7263 14.5014 12.6323 14.498C12.4443 14.491 12.2065 14.4876 11.969 14.4876C11.7315 14.4876 11.4943 14.491 11.3075 14.498C11.2141 14.5014 11.1333 14.5058 11.0714 14.511C11.0405 14.5135 11.0142 14.5164 10.9935 14.5194C10.9728 14.5224 10.9577 14.5257 10.9489 14.5291L10.9484 14.5279ZM10.9484 14.5279C10.893 14.551 10.8097 14.6436 10.7682 14.736C10.6943 14.8887 10.6943 14.9071 10.7682 15.0598M10.9484 14.5279C11.0917 14.4725 12.844 14.4725 12.9966 14.5279L10.7682 15.0598M10.7682 15.0598C10.8097 15.1522 10.8976 15.2448 10.9669 15.2679L10.7682 15.0598ZM8.63726 9.46648L8.63723 9.46648C8.50582 9.52418 8.4275 9.62789 8.40792 9.74363C8.38835 9.85936 8.42748 9.98726 8.53128 10.0933C8.59594 10.1557 8.63505 10.1891 8.70177 10.2069C8.76863 10.2248 8.86325 10.2271 9.03899 10.2271H9.41339V10.2283H9.41459V10.3671C9.41459 10.5351 9.54235 10.6619 9.70156 10.715C9.86076 10.7681 10.051 10.7473 10.1755 10.6206L10.1755 10.6206C10.2492 10.5514 10.2908 10.4546 10.2908 10.3671V10.2283H10.292V10.2271H10.6619C10.8306 10.2271 10.9264 10.2237 10.9927 10.2075C11.0589 10.1914 11.0957 10.1626 11.1465 10.1118L11.1466 10.1118C11.3078 9.95509 11.3033 9.683 11.142 9.53106L11.142 9.53105C11.1131 9.50333 11.0909 9.48267 11.0567 9.46703C11.0224 9.45137 10.9759 9.4407 10.8982 9.43319C10.743 9.41819 10.4639 9.41583 9.91049 9.41116L9.90826 9.41115C9.46209 9.40647 9.1743 9.40641 8.98303 9.41448C8.79171 9.42255 8.69714 9.43875 8.63726 9.46648ZM12.9462 9.4432L12.9462 9.44322C12.6835 9.5492 12.6188 9.90408 12.8172 10.107L12.8172 10.107C12.8726 10.1601 12.9117 10.19 12.975 10.2067C13.0384 10.2234 13.126 10.2269 13.2786 10.2269C13.3629 10.2269 13.4265 10.2269 13.4745 10.2288C13.5224 10.2307 13.5548 10.2344 13.5766 10.242C13.5876 10.2458 13.596 10.2506 13.6023 10.2566C13.6087 10.2626 13.613 10.2698 13.6159 10.2784C13.6217 10.2956 13.622 10.3184 13.622 10.3483C13.622 10.3828 13.6358 10.4265 13.6595 10.4715C13.6831 10.5165 13.7166 10.5626 13.7558 10.6019C14.0142 10.8602 14.4615 10.7356 14.5259 10.3899L14.5537 10.2281L14.5479 10.2271H14.5549H14.9387C15.1144 10.2271 15.2113 10.2248 15.2788 10.2086C15.3461 10.1925 15.384 10.1626 15.4418 10.1073C15.5202 10.0266 15.5605 9.93093 15.5622 9.83359C15.5639 9.73624 15.527 9.6371 15.4509 9.54945L15.4509 9.54945L15.3404 9.4205L14.1896 9.41115C13.8752 9.40875 13.577 9.41103 13.351 9.41679C13.238 9.41967 13.143 9.42342 13.0732 9.42788C13.0383 9.43012 13.0096 9.43253 12.9881 9.4351C12.9774 9.43639 12.9684 9.43771 12.9614 9.43907C12.9543 9.44044 12.9492 9.44182 12.9462 9.4432ZM13.2266 14.898C13.2266 14.8532 13.2128 14.8082 13.1851 14.7365L13.2266 14.898Z" fill="#6E7280" stroke="#6E7280" stroke-width="0.0024"/>
</svg>
