<svg width="32" height="33" viewBox="0 0 32 33" fill="none" xmlns="http://www.w3.org/2000/svg">
<g id="group 1">
<path id="Vector" fill-rule="evenodd" clip-rule="evenodd" d="M7.646 21.2353C7.33933 21.1912 7.01333 21.1666 6.66667 21.1666C4.11333 21.1666 2.68733 22.5139 2.14067 23.1853C2.052 23.3006 2.00467 23.4419 2.00467 23.5879C2.00467 23.5919 2.00466 23.5959 2.004 23.5993C2 23.8459 2 24.1726 2 24.4999C2 24.8679 2.29867 25.1666 2.66667 25.1666H7.448C7.37266 24.9546 7.33333 24.7293 7.33333 24.4999C7.33333 23.7413 7.33333 22.8373 7.336 22.3033C7.336 21.9233 7.44466 21.5533 7.646 21.2353ZM22.6667 25.1666H9.33333C9.15667 25.1666 8.98667 25.0966 8.862 24.9713C8.73667 24.8466 8.66667 24.6766 8.66667 24.4999C8.66667 23.7433 8.66667 22.8433 8.66933 22.3073C8.66933 22.3059 8.66933 22.3046 8.66933 22.3033C8.66933 22.1499 8.72267 22.0019 8.81934 21.8833C9.64667 20.9386 12.1467 18.4999 16 18.4999C20.3613 18.4999 22.5513 20.9339 23.2213 21.8519C23.2953 21.9646 23.3333 22.0919 23.3333 22.2219V24.4999C23.3333 24.6766 23.2633 24.8466 23.138 24.9713C23.0133 25.0966 22.8433 25.1666 22.6667 25.1666ZM24.552 25.1666H29.3333C29.7013 25.1666 30 24.8679 30 24.4999V23.5872C30 23.4399 29.9513 23.2973 29.862 23.1806C29.3127 22.5139 27.886 21.1666 25.3333 21.1666C25.0047 21.1666 24.6947 21.1886 24.4027 21.2286C24.5753 21.5306 24.6667 21.8733 24.6667 22.2233V24.4999C24.6667 24.7293 24.6273 24.9546 24.552 25.1666ZM6.66667 13.1666C4.82667 13.1666 3.33333 14.6599 3.33333 16.4999C3.33333 18.3399 4.82667 19.8333 6.66667 19.8333C8.50667 19.8333 10 18.3399 10 16.4999C10 14.6599 8.50667 13.1666 6.66667 13.1666ZM25.3333 13.1666C23.4933 13.1666 22 14.6599 22 16.4999C22 18.3399 23.4933 19.8333 25.3333 19.8333C27.1733 19.8333 28.6667 18.3399 28.6667 16.4999C28.6667 14.6599 27.1733 13.1666 25.3333 13.1666ZM16 7.83325C13.4247 7.83325 11.3333 9.92459 11.3333 12.4999C11.3333 15.0753 13.4247 17.1666 16 17.1666C18.5753 17.1666 20.6667 15.0753 20.6667 12.4999C20.6667 9.92459 18.5753 7.83325 16 7.83325Z" fill="#FEEFF2"/>
</g>
</svg>
