<svg width="28" height="28" viewBox="0 0 28 28" fill="none" xmlns="http://www.w3.org/2000/svg">
<g id="ic_fluent_calendar_rtl_24_filled">
<path id="Vector" d="M3.5 9.91667V20.7083C3.5 22.8024 5.19758 24.5 7.29167 24.5H20.7083C22.8024 24.5 24.5 22.8024 24.5 20.7083V9.91667H3.5ZM19.5417 17.5C20.3471 17.5 21 18.1529 21 18.9583C21 19.7638 20.3471 20.4167 19.5417 20.4167C18.7362 20.4167 18.0833 19.7638 18.0833 18.9583C18.0833 18.1529 18.7362 17.5 19.5417 17.5ZM14 17.5C14.8055 17.5 15.4583 18.1529 15.4583 18.9583C15.4583 19.7638 14.8055 20.4167 14 20.4167C13.1945 20.4167 12.5417 19.7638 12.5417 18.9583C12.5417 18.1529 13.1945 17.5 14 17.5ZM19.5417 12.25C20.3471 12.25 21 12.9029 21 13.7083C21 14.5138 20.3471 15.1667 19.5417 15.1667C18.7362 15.1667 18.0833 14.5138 18.0833 13.7083C18.0833 12.9029 18.7362 12.25 19.5417 12.25ZM14 12.25C14.8055 12.25 15.4583 12.9029 15.4583 13.7083C15.4583 14.5138 14.8055 15.1667 14 15.1667C13.1945 15.1667 12.5417 14.5138 12.5417 13.7083C12.5417 12.9029 13.1945 12.25 14 12.25ZM8.45833 12.25C9.26375 12.25 9.91667 12.9029 9.91667 13.7083C9.91667 14.5138 9.26375 15.1667 8.45833 15.1667C7.65291 15.1667 7 14.5138 7 13.7083C7 12.9029 7.65291 12.25 8.45833 12.25ZM7.29167 3.5C5.19758 3.5 3.5 5.19758 3.5 7.29167V8.16667H24.5V7.29167C24.5 5.19758 22.8024 3.5 20.7083 3.5H7.29167Z" fill="#FFF8FB"/>
</g>
</svg>
