<svg width="30" height="30" viewBox="0 0 30 30" fill="none" xmlns="http://www.w3.org/2000/svg">
<path d="M29 15C29 22.732 22.732 29 15 29C7.26801 29 1 22.732 1 15C1 7.26801 7.26801 1 15 1C22.732 1 29 7.26801 29 15Z" fill="#FE3131"/>
<path d="M21.9096 6.64333C21.7382 6.45654 21.4997 6.34532 21.2464 6.33403C21.1213 6.32729 20.9961 6.34513 20.8779 6.38654L16.3752 8.02539C16.1364 8.11232 15.9419 8.29056 15.8345 8.52092C15.727 8.75127 15.7155 9.01486 15.8025 9.25369C15.8894 9.49253 16.0676 9.68706 16.298 9.79447C16.5283 9.90189 16.7919 9.91339 17.0308 9.82646L19.3632 8.97754L16.1614 15.8438L12.117 13.9504C12.0025 13.8964 11.8786 13.8657 11.7522 13.8599C11.6258 13.8541 11.4995 13.8734 11.3806 13.9167C11.2618 13.96 11.1526 14.0264 11.0595 14.112C10.9664 14.1977 10.8912 14.3009 10.8382 14.4158L7.4016 21.7856C7.34766 21.9001 7.31692 22.0241 7.31114 22.1504C7.30536 22.2768 7.32466 22.4031 7.36793 22.522C7.4112 22.6409 7.47758 22.75 7.56324 22.8431C7.6489 22.9362 7.75215 23.0114 7.86703 23.0644C7.98147 23.1183 8.10545 23.1491 8.23183 23.1549C8.35821 23.1606 8.48448 23.1413 8.60336 23.0981C8.72225 23.0548 8.83138 22.9884 8.92448 22.9028C9.01758 22.8171 9.0928 22.7139 9.14579 22.599L12.1725 16.0922L16.2169 17.9856C16.3313 18.0396 16.4553 18.0703 16.5817 18.0761C16.7081 18.0819 16.8343 18.0626 16.9532 18.0193C17.0721 17.976 17.1812 17.9097 17.2743 17.824C17.3674 17.7383 17.4426 17.6351 17.4956 17.5202L21.0951 9.78515L21.944 12.1175C22.0309 12.3564 22.2092 12.5509 22.4395 12.6583C22.6699 12.7657 22.9335 12.7772 23.1723 12.6903C23.4112 12.6034 23.6057 12.4251 23.7131 12.1948C23.8205 11.9644 23.832 11.7008 23.7451 11.462L22.1062 6.95931C22.062 6.84215 21.9952 6.7348 21.9096 6.64333Z" fill="#FEFEFE"/>
</svg>
