<svg width="24" height="24" viewBox="0 0 24 24" fill="none" xmlns="http://www.w3.org/2000/svg">
<path d="M8.62289 11.928C8.58322 11.928 8.54366 11.9285 8.50424 11.9296M8.62289 11.928C8.62354 11.928 8.62418 11.928 8.62483 11.928L8.50424 11.9296M8.62289 11.928C8.58331 11.928 8.54376 11.9285 8.50424 11.9296M8.62289 11.928L8.50424 11.9296M12.3748 1.875C12.3345 1.875 12.2943 1.87552 12.2542 1.87656C12.2944 1.8755 12.3346 1.87498 12.3748 1.875ZM4.125 16.4278C4.12498 16.3876 4.1255 16.3474 4.12656 16.3073C4.12552 16.3473 4.125 16.3875 4.125 16.4278Z" fill="#6E7280" stroke="#6E7280" stroke-width="0.75"/>
</svg>
