<svg width="24" height="24" viewBox="0 0 24 24" fill="none" xmlns="http://www.w3.org/2000/svg">
<mask id="path-1-inside-1_1234_2885" fill="white">
<path d="M13.6318 22.6098C13.8082 22.7878 14.0181 22.9291 14.2494 23.0256C14.4806 23.1222 14.7287 23.1719 14.9793 23.1721C15.2317 23.1734 15.4818 23.1242 15.715 23.0277C15.9481 22.9311 16.1597 22.7891 16.3374 22.6098L17.165 21.7716L18.0031 22.6098C18.2716 22.8742 18.6119 23.0538 18.9817 23.1262C19.3515 23.1986 19.7344 23.1607 20.0828 23.017C20.4311 22.8734 20.7295 22.6304 20.9408 22.3184C21.1521 22.0064 21.2669 21.6391 21.271 21.2624C21.2688 20.7535 21.0668 20.2658 20.7087 19.9043L19.8705 19.0767L20.7087 18.2385C21.0657 17.8788 21.266 17.3926 21.266 16.8858C21.266 16.379 21.0657 15.8927 20.7087 15.533C20.349 15.176 19.8627 14.9757 19.3559 14.9757C18.8491 14.9757 18.3629 15.176 18.0031 15.533L17.1756 16.3712L16.3374 15.533C15.9725 15.1859 15.4882 14.9924 14.9846 14.9924C14.481 14.9924 13.9967 15.1859 13.6318 15.533C13.2794 15.8854 13.0778 16.3609 13.0695 16.8592C13.0697 17.1098 13.1195 17.3579 13.216 17.5892C13.3125 17.8204 13.4539 18.0303 13.6318 18.2067L14.47 19.0449L13.6318 19.8725C13.4503 20.0512 13.3061 20.2642 13.2077 20.4992C13.1092 20.7342 13.0585 20.9864 13.0585 21.2411C13.0585 21.4959 13.1092 21.7481 13.2077 21.9831C13.3061 22.2181 13.4503 22.4311 13.6318 22.6098ZM14.3852 20.6576L15.5947 19.4268C15.6926 19.3259 15.7473 19.1908 15.7473 19.0502C15.7473 18.9096 15.6926 18.7745 15.5947 18.6735L14.3852 17.464C14.3053 17.3859 14.2418 17.2927 14.1985 17.1897C14.1551 17.0868 14.1328 16.9762 14.1328 16.8645C14.1328 16.7528 14.1551 16.6423 14.1985 16.5393C14.2418 16.4364 14.3053 16.3431 14.3852 16.2651C14.5469 16.1113 14.7615 16.0256 14.9846 16.0256C15.2078 16.0256 15.4224 16.1113 15.5841 16.2651L16.7936 17.4746C16.8429 17.5243 16.9016 17.5638 16.9662 17.5907C17.0309 17.6177 17.1002 17.6315 17.1703 17.6315C17.2403 17.6315 17.3096 17.6177 17.3743 17.5907C17.4389 17.5638 17.4976 17.5243 17.5469 17.4746L18.7564 16.2439C18.9179 16.0976 19.1294 16.019 19.3473 16.0243C19.5651 16.0297 19.7725 16.1186 19.9266 16.2727C20.0806 16.4267 20.1695 16.6342 20.1749 16.852C20.1803 17.0698 20.1017 17.2813 19.9554 17.4428L18.7458 18.6523C18.6462 18.7548 18.5893 18.8914 18.5867 19.0343C18.5898 19.174 18.6468 19.307 18.7458 19.4056L19.9554 20.6152C20.1017 20.7766 20.1803 20.9882 20.1749 21.206C20.1695 21.4238 20.0806 21.6312 19.9266 21.7853C19.7725 21.9393 19.5651 22.0282 19.3473 22.0336C19.1294 22.039 18.9179 21.9604 18.7564 21.8141L17.5469 20.6045C17.4447 20.5091 17.3101 20.456 17.1703 20.456C17.0304 20.456 16.8958 20.5091 16.7936 20.6045L15.5841 21.8141C15.508 21.8952 15.4159 21.9597 15.3136 22.0035C15.2114 22.0474 15.1012 22.0695 14.9899 22.0687C14.8229 22.0656 14.6605 22.0139 14.5224 21.9199C14.3843 21.826 14.2766 21.6938 14.2125 21.5396C14.1483 21.3854 14.1305 21.2158 14.1611 21.0517C14.1918 20.8875 14.2697 20.7358 14.3852 20.6152V20.6576ZM10.6505 2.76925C10.6556 2.38968 10.5476 2.01717 10.3401 1.69929C10.1326 1.38141 9.8351 1.13257 9.48554 0.984548C9.13598 0.836526 8.75024 0.796036 8.37756 0.868246C8.00489 0.940456 7.66219 1.12209 7.39321 1.38996L6.55503 2.22814L5.71684 1.38996C5.35893 1.03361 4.87444 0.833552 4.36938 0.833552C3.86432 0.833552 3.37983 1.03361 3.02192 1.38996C2.83805 1.56859 2.69316 1.78336 2.59638 2.02075C2.4996 2.25813 2.45303 2.51298 2.45959 2.76925C2.45979 3.01984 2.50958 3.26792 2.60609 3.49918C2.7026 3.73044 2.84393 3.94032 3.02192 4.11671L3.84949 4.9549L3.02192 5.79308C2.75602 6.06014 2.57508 6.39991 2.50188 6.76959C2.42867 7.13927 2.46648 7.52235 2.61054 7.87059C2.7546 8.21883 2.99848 8.51667 3.31145 8.7266C3.62443 8.93653 3.99252 9.04916 4.36938 9.05033C4.61931 9.05211 4.86712 9.00425 5.09842 8.90955C5.32972 8.81484 5.53992 8.67516 5.71684 8.49861L6.55503 7.66043L7.39321 8.49861C7.57013 8.67516 7.78033 8.81484 8.01163 8.90955C8.24294 9.00425 8.49074 9.05211 8.74067 9.05033C8.99061 9.05211 9.23841 9.00425 9.46971 8.90955C9.70101 8.81484 9.91121 8.67516 10.0881 8.49861C10.2664 8.32026 10.4079 8.10853 10.5044 7.87551C10.6009 7.64249 10.6505 7.39275 10.6505 7.14054C10.6503 6.88995 10.6005 6.64188 10.504 6.41061C10.4074 6.17935 10.2661 5.96948 10.0881 5.79308L9.26056 4.9549L10.0881 4.12732C10.4463 3.76582 10.6482 3.27814 10.6505 2.76925ZM9.34544 3.37402L8.13591 4.57294C8.08618 4.62226 8.04672 4.68093 8.01978 4.74557C7.99285 4.81022 7.97899 4.87956 7.97899 4.94959C7.97899 5.01962 7.99285 5.08896 8.01978 5.15361C8.04672 5.21825 8.08618 5.27693 8.13591 5.32624L9.34544 6.54639C9.50483 6.70731 9.59424 6.92465 9.59424 7.15115C9.59424 7.37765 9.50483 7.59499 9.34544 7.75592C9.18251 7.91166 8.96606 7.99899 8.74067 7.99995C8.51528 7.99899 8.29884 7.91166 8.13591 7.75592L6.92637 6.53578C6.87875 6.48503 6.82122 6.44458 6.75735 6.41693C6.69348 6.38928 6.62462 6.37502 6.55503 6.37502C6.48543 6.37502 6.41657 6.38928 6.3527 6.41693C6.28883 6.44458 6.23131 6.48503 6.18368 6.53578L4.96354 7.75592C4.88541 7.83366 4.79271 7.89523 4.69076 7.9371C4.58881 7.97898 4.4796 8.00033 4.36938 7.99995C4.25752 8.00137 4.14651 7.98039 4.04288 7.93824C3.93926 7.89609 3.84512 7.83362 3.76602 7.75452C3.68691 7.67541 3.62445 7.58127 3.58229 7.47765C3.54014 7.37403 3.51916 7.26301 3.52059 7.15115C3.5202 7.04094 3.54155 6.93172 3.58343 6.82977C3.6253 6.72782 3.68687 6.63512 3.76461 6.557L4.97415 5.32624C5.02489 5.27862 5.06534 5.22109 5.09299 5.15722C5.12064 5.09335 5.13491 5.02449 5.13491 4.9549C5.13491 4.8853 5.12064 4.81644 5.09299 4.75257C5.06534 4.6887 5.02489 4.63118 4.97415 4.58355L3.76461 3.37402C3.60774 3.21178 3.52005 2.99493 3.52005 2.76925C3.52005 2.54357 3.60774 2.32672 3.76461 2.16448C3.92373 2.00575 4.13932 1.91661 4.36408 1.91661C4.58883 1.91661 4.80442 2.00575 4.96354 2.16448L6.18368 3.38463C6.28284 3.48183 6.41617 3.53627 6.55503 3.53627C6.69389 3.53627 6.82721 3.48183 6.92637 3.38463L8.13591 2.16448C8.29683 2.0051 8.51417 1.91568 8.74067 1.91568C8.96717 1.91568 9.18451 2.0051 9.34544 2.16448C9.50118 2.32742 9.58851 2.54386 9.58947 2.76925C9.59074 2.99507 9.50308 3.21232 9.34544 3.37402Z"/>
</mask>
<path d="M13.6318 22.6098C13.8082 22.7878 14.0181 22.9291 14.2494 23.0256C14.4806 23.1222 14.7287 23.1719 14.9793 23.1721C15.2317 23.1734 15.4818 23.1242 15.715 23.0277C15.9481 22.9311 16.1597 22.7891 16.3374 22.6098L17.165 21.7716L18.0031 22.6098C18.2716 22.8742 18.6119 23.0538 18.9817 23.1262C19.3515 23.1986 19.7344 23.1607 20.0828 23.017C20.4311 22.8734 20.7295 22.6304 20.9408 22.3184C21.1521 22.0064 21.2669 21.6391 21.271 21.2624C21.2688 20.7535 21.0668 20.2658 20.7087 19.9043L19.8705 19.0767L20.7087 18.2385C21.0657 17.8788 21.266 17.3926 21.266 16.8858C21.266 16.379 21.0657 15.8927 20.7087 15.533C20.349 15.176 19.8627 14.9757 19.3559 14.9757C18.8491 14.9757 18.3629 15.176 18.0031 15.533L17.1756 16.3712L16.3374 15.533C15.9725 15.1859 15.4882 14.9924 14.9846 14.9924C14.481 14.9924 13.9967 15.1859 13.6318 15.533C13.2794 15.8854 13.0778 16.3609 13.0695 16.8592C13.0697 17.1098 13.1195 17.3579 13.216 17.5892C13.3125 17.8204 13.4539 18.0303 13.6318 18.2067L14.47 19.0449L13.6318 19.8725C13.4503 20.0512 13.3061 20.2642 13.2077 20.4992C13.1092 20.7342 13.0585 20.9864 13.0585 21.2411C13.0585 21.4959 13.1092 21.7481 13.2077 21.9831C13.3061 22.2181 13.4503 22.4311 13.6318 22.6098ZM14.3852 20.6576L15.5947 19.4268C15.6926 19.3259 15.7473 19.1908 15.7473 19.0502C15.7473 18.9096 15.6926 18.7745 15.5947 18.6735L14.3852 17.464C14.3053 17.3859 14.2418 17.2927 14.1985 17.1897C14.1551 17.0868 14.1328 16.9762 14.1328 16.8645C14.1328 16.7528 14.1551 16.6423 14.1985 16.5393C14.2418 16.4364 14.3053 16.3431 14.3852 16.2651C14.5469 16.1113 14.7615 16.0256 14.9846 16.0256C15.2078 16.0256 15.4224 16.1113 15.5841 16.2651L16.7936 17.4746C16.8429 17.5243 16.9016 17.5638 16.9662 17.5907C17.0309 17.6177 17.1002 17.6315 17.1703 17.6315C17.2403 17.6315 17.3096 17.6177 17.3743 17.5907C17.4389 17.5638 17.4976 17.5243 17.5469 17.4746L18.7564 16.2439C18.9179 16.0976 19.1294 16.019 19.3473 16.0243C19.5651 16.0297 19.7725 16.1186 19.9266 16.2727C20.0806 16.4267 20.1695 16.6342 20.1749 16.852C20.1803 17.0698 20.1017 17.2813 19.9554 17.4428L18.7458 18.6523C18.6462 18.7548 18.5893 18.8914 18.5867 19.0343C18.5898 19.174 18.6468 19.307 18.7458 19.4056L19.9554 20.6152C20.1017 20.7766 20.1803 20.9882 20.1749 21.206C20.1695 21.4238 20.0806 21.6312 19.9266 21.7853C19.7725 21.9393 19.5651 22.0282 19.3473 22.0336C19.1294 22.039 18.9179 21.9604 18.7564 21.8141L17.5469 20.6045C17.4447 20.5091 17.3101 20.456 17.1703 20.456C17.0304 20.456 16.8958 20.5091 16.7936 20.6045L15.5841 21.8141C15.508 21.8952 15.4159 21.9597 15.3136 22.0035C15.2114 22.0474 15.1012 22.0695 14.9899 22.0687C14.8229 22.0656 14.6605 22.0139 14.5224 21.9199C14.3843 21.826 14.2766 21.6938 14.2125 21.5396C14.1483 21.3854 14.1305 21.2158 14.1611 21.0517C14.1918 20.8875 14.2697 20.7358 14.3852 20.6152V20.6576ZM10.6505 2.76925C10.6556 2.38968 10.5476 2.01717 10.3401 1.69929C10.1326 1.38141 9.8351 1.13257 9.48554 0.984548C9.13598 0.836526 8.75024 0.796036 8.37756 0.868246C8.00489 0.940456 7.66219 1.12209 7.39321 1.38996L6.55503 2.22814L5.71684 1.38996C5.35893 1.03361 4.87444 0.833552 4.36938 0.833552C3.86432 0.833552 3.37983 1.03361 3.02192 1.38996C2.83805 1.56859 2.69316 1.78336 2.59638 2.02075C2.4996 2.25813 2.45303 2.51298 2.45959 2.76925C2.45979 3.01984 2.50958 3.26792 2.60609 3.49918C2.7026 3.73044 2.84393 3.94032 3.02192 4.11671L3.84949 4.9549L3.02192 5.79308C2.75602 6.06014 2.57508 6.39991 2.50188 6.76959C2.42867 7.13927 2.46648 7.52235 2.61054 7.87059C2.7546 8.21883 2.99848 8.51667 3.31145 8.7266C3.62443 8.93653 3.99252 9.04916 4.36938 9.05033C4.61931 9.05211 4.86712 9.00425 5.09842 8.90955C5.32972 8.81484 5.53992 8.67516 5.71684 8.49861L6.55503 7.66043L7.39321 8.49861C7.57013 8.67516 7.78033 8.81484 8.01163 8.90955C8.24294 9.00425 8.49074 9.05211 8.74067 9.05033C8.99061 9.05211 9.23841 9.00425 9.46971 8.90955C9.70101 8.81484 9.91121 8.67516 10.0881 8.49861C10.2664 8.32026 10.4079 8.10853 10.5044 7.87551C10.6009 7.64249 10.6505 7.39275 10.6505 7.14054C10.6503 6.88995 10.6005 6.64188 10.504 6.41061C10.4074 6.17935 10.2661 5.96948 10.0881 5.79308L9.26056 4.9549L10.0881 4.12732C10.4463 3.76582 10.6482 3.27814 10.6505 2.76925ZM9.34544 3.37402L8.13591 4.57294C8.08618 4.62226 8.04672 4.68093 8.01978 4.74557C7.99285 4.81022 7.97899 4.87956 7.97899 4.94959C7.97899 5.01962 7.99285 5.08896 8.01978 5.15361C8.04672 5.21825 8.08618 5.27693 8.13591 5.32624L9.34544 6.54639C9.50483 6.70731 9.59424 6.92465 9.59424 7.15115C9.59424 7.37765 9.50483 7.59499 9.34544 7.75592C9.18251 7.91166 8.96606 7.99899 8.74067 7.99995C8.51528 7.99899 8.29884 7.91166 8.13591 7.75592L6.92637 6.53578C6.87875 6.48503 6.82122 6.44458 6.75735 6.41693C6.69348 6.38928 6.62462 6.37502 6.55503 6.37502C6.48543 6.37502 6.41657 6.38928 6.3527 6.41693C6.28883 6.44458 6.23131 6.48503 6.18368 6.53578L4.96354 7.75592C4.88541 7.83366 4.79271 7.89523 4.69076 7.9371C4.58881 7.97898 4.4796 8.00033 4.36938 7.99995C4.25752 8.00137 4.14651 7.98039 4.04288 7.93824C3.93926 7.89609 3.84512 7.83362 3.76602 7.75452C3.68691 7.67541 3.62445 7.58127 3.58229 7.47765C3.54014 7.37403 3.51916 7.26301 3.52059 7.15115C3.5202 7.04094 3.54155 6.93172 3.58343 6.82977C3.6253 6.72782 3.68687 6.63512 3.76461 6.557L4.97415 5.32624C5.02489 5.27862 5.06534 5.22109 5.09299 5.15722C5.12064 5.09335 5.13491 5.02449 5.13491 4.9549C5.13491 4.8853 5.12064 4.81644 5.09299 4.75257C5.06534 4.6887 5.02489 4.63118 4.97415 4.58355L3.76461 3.37402C3.60774 3.21178 3.52005 2.99493 3.52005 2.76925C3.52005 2.54357 3.60774 2.32672 3.76461 2.16448C3.92373 2.00575 4.13932 1.91661 4.36408 1.91661C4.58883 1.91661 4.80442 2.00575 4.96354 2.16448L6.18368 3.38463C6.28284 3.48183 6.41617 3.53627 6.55503 3.53627C6.69389 3.53627 6.82721 3.48183 6.92637 3.38463L8.13591 2.16448C8.29683 2.0051 8.51417 1.91568 8.74067 1.91568C8.96717 1.91568 9.18451 2.0051 9.34544 2.16448C9.50118 2.32742 9.58851 2.54386 9.58947 2.76925C9.59074 2.99507 9.50308 3.21232 9.34544 3.37402Z" fill="#6E7280" stroke="#6E7280" stroke-width="2.2483" mask="url(#path-1-inside-1_1234_2885)"/>
<path d="M17.8761 2.63486L17.8757 2.6339L17.8761 2.63486ZM17.8761 2.63486L17.8786 2.6407L17.8761 2.63486ZM17.8867 2.66223L17.8887 2.66408L18.0877 3.12427L17.8887 2.66408L17.8888 2.66412L17.9011 2.65062L17.9097 2.64127L17.9156 2.6348L17.9236 2.62604L17.9415 2.60649L17.8867 2.66223Z" fill="#6E7280" stroke="#6E7280" stroke-width="1.12415"/>
</svg>
