<svg width="24" height="24" viewBox="0 0 24 24" fill="none" xmlns="http://www.w3.org/2000/svg">
<mask id="path-1-inside-1_1238_8800" fill="white">
<path d="M13.6318 22.6098C13.8082 22.7878 14.0181 22.9291 14.2493 23.0256C14.4806 23.1221 14.7287 23.1719 14.9792 23.1721C15.2316 23.1733 15.4817 23.1242 15.7149 23.0277C15.9481 22.9311 16.1597 22.7891 16.3373 22.6098L17.1649 21.7716L18.0031 22.6098C18.2715 22.8742 18.6119 23.0538 18.9816 23.1262C19.3514 23.1986 19.7344 23.1606 20.0827 23.017C20.4311 22.8733 20.7295 22.6304 20.9408 22.3184C21.152 22.0064 21.2669 21.6391 21.2709 21.2623C21.2687 20.7534 21.0668 20.2658 20.7086 19.9043L19.8704 19.0767L20.7086 18.2385C21.0656 17.8788 21.2659 17.3925 21.2659 16.8857C21.2659 16.3789 21.0656 15.8927 20.7086 15.533C20.3489 15.176 19.8626 14.9756 19.3558 14.9756C18.849 14.9756 18.3628 15.176 18.0031 15.533L17.1755 16.3712L16.3373 15.533C15.9724 15.1859 15.4881 14.9924 14.9846 14.9924C14.481 14.9924 13.9967 15.1859 13.6318 15.533C13.2794 15.8853 13.0777 16.3609 13.0695 16.8592C13.0697 17.1098 13.1194 17.3579 13.216 17.5891C13.3125 17.8204 13.4538 18.0303 13.6318 18.2067L14.47 19.0449L13.6318 19.8724C13.4502 20.0511 13.306 20.2642 13.2076 20.4992C13.1092 20.7341 13.0585 20.9863 13.0585 21.2411C13.0585 21.4959 13.1092 21.7481 13.2076 21.9831C13.306 22.218 13.4502 22.4311 13.6318 22.6098ZM14.3851 20.6576L15.5946 19.4268C15.6925 19.3259 15.7472 19.1908 15.7472 19.0502C15.7472 18.9095 15.6925 18.7745 15.5946 18.6735L14.3851 17.464C14.3052 17.3859 14.2417 17.2927 14.1984 17.1897C14.1551 17.0868 14.1327 16.9762 14.1327 16.8645C14.1327 16.7528 14.1551 16.6423 14.1984 16.5393C14.2417 16.4364 14.3052 16.3431 14.3851 16.2651C14.5468 16.1113 14.7614 16.0256 14.9846 16.0256C15.2077 16.0256 15.4223 16.1113 15.584 16.2651L16.7935 17.4746C16.8429 17.5243 16.9015 17.5638 16.9662 17.5907C17.0308 17.6176 17.1002 17.6315 17.1702 17.6315C17.2402 17.6315 17.3096 17.6176 17.3742 17.5907C17.4389 17.5638 17.4975 17.5243 17.5469 17.4746L18.7564 16.2438C18.9178 16.0975 19.1294 16.0189 19.3472 16.0243C19.565 16.0297 19.7724 16.1186 19.9265 16.2726C20.0806 16.4267 20.1695 16.6341 20.1748 16.8519C20.1802 17.0698 20.1016 17.2813 19.9553 17.4428L18.7458 18.6523C18.6461 18.7547 18.5892 18.8913 18.5866 19.0342C18.5897 19.1739 18.6468 19.307 18.7458 19.4056L19.9553 20.6151C20.1016 20.7766 20.1802 20.9881 20.1748 21.2059C20.1695 21.4238 20.0806 21.6312 19.9265 21.7852C19.7724 21.9393 19.565 22.0282 19.3472 22.0336C19.1294 22.0389 18.9178 21.9603 18.7564 21.814L17.5469 20.6045C17.4447 20.509 17.31 20.4559 17.1702 20.4559C17.0304 20.4559 16.8957 20.509 16.7935 20.6045L15.584 21.814C15.5079 21.8952 15.4158 21.9597 15.3136 22.0035C15.2113 22.0473 15.1011 22.0695 14.9899 22.0687C14.8229 22.0656 14.6604 22.0139 14.5223 21.9199C14.3843 21.8259 14.2766 21.6938 14.2124 21.5396C14.1483 21.3854 14.1304 21.2158 14.1611 21.0516C14.1918 20.8874 14.2696 20.7358 14.3851 20.6151V20.6576ZM10.6504 2.76922C10.6556 2.38965 10.5475 2.01714 10.34 1.69926C10.1326 1.38138 9.83504 1.13254 9.48548 0.984518C9.13592 0.836496 8.75018 0.796005 8.3775 0.868216C8.00483 0.940426 7.66212 1.12206 7.39315 1.38993L6.55497 2.22811L5.71678 1.38993C5.35887 1.03358 4.87438 0.833522 4.36932 0.833522C3.86426 0.833522 3.37977 1.03358 3.02186 1.38993C2.83799 1.56856 2.6931 1.78333 2.59632 2.02071C2.49954 2.2581 2.45297 2.51295 2.45953 2.76922C2.45973 3.01981 2.50952 3.26789 2.60603 3.49915C2.70254 3.73041 2.84387 3.94029 3.02186 4.11668L3.84943 4.95487L3.02186 5.79305C2.75596 6.06011 2.57502 6.39988 2.50182 6.76956C2.42861 7.13924 2.46642 7.52232 2.61048 7.87056C2.75454 8.2188 2.99841 8.51664 3.31139 8.72657C3.62437 8.93649 3.99246 9.04913 4.36932 9.0503C4.61925 9.05208 4.86705 9.00422 5.09836 8.90952C5.32966 8.81481 5.53986 8.67513 5.71678 8.49858L6.55497 7.6604L7.39315 8.49858C7.57007 8.67513 7.78027 8.81481 8.01157 8.90952C8.24288 9.00422 8.49068 9.05208 8.74061 9.0503C8.99054 9.05208 9.23835 9.00422 9.46965 8.90952C9.70095 8.81481 9.91115 8.67513 10.0881 8.49858C10.2664 8.32023 10.4078 8.1085 10.5043 7.87548C10.6008 7.64246 10.6504 7.39272 10.6504 7.14051C10.6502 6.88992 10.6004 6.64184 10.5039 6.41058C10.4074 6.17932 10.2661 5.96945 10.0881 5.79305L9.2605 4.95487L10.0881 4.12729C10.4462 3.76579 10.6482 3.27811 10.6504 2.76922ZM9.34538 3.37399L8.13584 4.57291C8.08612 4.62223 8.04666 4.6809 8.01972 4.74554C7.99279 4.81019 7.97892 4.87953 7.97892 4.94956C7.97892 5.01959 7.99279 5.08893 8.01972 5.15358C8.04666 5.21822 8.08612 5.2769 8.13584 5.32621L9.34538 6.54636C9.50476 6.70728 9.59418 6.92462 9.59418 7.15112C9.59418 7.37762 9.50476 7.59496 9.34538 7.75589C9.18244 7.91163 8.966 7.99896 8.74061 7.99992C8.51522 7.99896 8.29878 7.91163 8.13584 7.75589L6.92631 6.53575C6.87868 6.485 6.82116 6.44455 6.75729 6.4169C6.69342 6.38925 6.62456 6.37499 6.55497 6.37499C6.48537 6.37499 6.41651 6.38925 6.35264 6.4169C6.28877 6.44455 6.23125 6.485 6.18362 6.53575L4.96348 7.75589C4.88535 7.83363 4.79265 7.8952 4.6907 7.93707C4.58875 7.97895 4.47954 8.0003 4.36932 7.99992C4.25746 8.00134 4.14645 7.98036 4.04282 7.93821C3.9392 7.89606 3.84506 7.83359 3.76596 7.75449C3.68685 7.67538 3.62438 7.58124 3.58223 7.47762C3.54008 7.374 3.5191 7.26298 3.52053 7.15112C3.52014 7.0409 3.54149 6.93169 3.58337 6.82974C3.62524 6.72779 3.68681 6.63509 3.76455 6.55697L4.97409 5.32621C5.02483 5.27859 5.06528 5.22106 5.09293 5.15719C5.12058 5.09332 5.13485 5.02446 5.13485 4.95487C5.13485 4.88527 5.12058 4.81641 5.09293 4.75254C5.06528 4.68867 5.02483 4.63115 4.97409 4.58352L3.76455 3.37399C3.60768 3.21175 3.51999 2.9949 3.51999 2.76922C3.51999 2.54354 3.60768 2.32669 3.76455 2.16445C3.92367 2.00572 4.13926 1.91657 4.36401 1.91657C4.58877 1.91657 4.80436 2.00572 4.96348 2.16445L6.18362 3.3846C6.28278 3.4818 6.41611 3.53624 6.55497 3.53624C6.69382 3.53624 6.82715 3.4818 6.92631 3.3846L8.13584 2.16445C8.29677 2.00507 8.51411 1.91565 8.74061 1.91565C8.96711 1.91565 9.18445 2.00507 9.34538 2.16445C9.50111 2.32739 9.58845 2.54383 9.58941 2.76922C9.59068 2.99504 9.50302 3.21229 9.34538 3.37399Z"/>
</mask>
<path d="M13.6318 22.6098C13.8082 22.7878 14.0181 22.9291 14.2493 23.0256C14.4806 23.1221 14.7287 23.1719 14.9792 23.1721C15.2316 23.1733 15.4817 23.1242 15.7149 23.0277C15.9481 22.9311 16.1597 22.7891 16.3373 22.6098L17.1649 21.7716L18.0031 22.6098C18.2715 22.8742 18.6119 23.0538 18.9816 23.1262C19.3514 23.1986 19.7344 23.1606 20.0827 23.017C20.4311 22.8733 20.7295 22.6304 20.9408 22.3184C21.152 22.0064 21.2669 21.6391 21.2709 21.2623C21.2687 20.7534 21.0668 20.2658 20.7086 19.9043L19.8704 19.0767L20.7086 18.2385C21.0656 17.8788 21.2659 17.3925 21.2659 16.8857C21.2659 16.3789 21.0656 15.8927 20.7086 15.533C20.3489 15.176 19.8626 14.9756 19.3558 14.9756C18.849 14.9756 18.3628 15.176 18.0031 15.533L17.1755 16.3712L16.3373 15.533C15.9724 15.1859 15.4881 14.9924 14.9846 14.9924C14.481 14.9924 13.9967 15.1859 13.6318 15.533C13.2794 15.8853 13.0777 16.3609 13.0695 16.8592C13.0697 17.1098 13.1194 17.3579 13.216 17.5891C13.3125 17.8204 13.4538 18.0303 13.6318 18.2067L14.47 19.0449L13.6318 19.8724C13.4502 20.0511 13.306 20.2642 13.2076 20.4992C13.1092 20.7341 13.0585 20.9863 13.0585 21.2411C13.0585 21.4959 13.1092 21.7481 13.2076 21.9831C13.306 22.218 13.4502 22.4311 13.6318 22.6098ZM14.3851 20.6576L15.5946 19.4268C15.6925 19.3259 15.7472 19.1908 15.7472 19.0502C15.7472 18.9095 15.6925 18.7745 15.5946 18.6735L14.3851 17.464C14.3052 17.3859 14.2417 17.2927 14.1984 17.1897C14.1551 17.0868 14.1327 16.9762 14.1327 16.8645C14.1327 16.7528 14.1551 16.6423 14.1984 16.5393C14.2417 16.4364 14.3052 16.3431 14.3851 16.2651C14.5468 16.1113 14.7614 16.0256 14.9846 16.0256C15.2077 16.0256 15.4223 16.1113 15.584 16.2651L16.7935 17.4746C16.8429 17.5243 16.9015 17.5638 16.9662 17.5907C17.0308 17.6176 17.1002 17.6315 17.1702 17.6315C17.2402 17.6315 17.3096 17.6176 17.3742 17.5907C17.4389 17.5638 17.4975 17.5243 17.5469 17.4746L18.7564 16.2438C18.9178 16.0975 19.1294 16.0189 19.3472 16.0243C19.565 16.0297 19.7724 16.1186 19.9265 16.2726C20.0806 16.4267 20.1695 16.6341 20.1748 16.8519C20.1802 17.0698 20.1016 17.2813 19.9553 17.4428L18.7458 18.6523C18.6461 18.7547 18.5892 18.8913 18.5866 19.0342C18.5897 19.1739 18.6468 19.307 18.7458 19.4056L19.9553 20.6151C20.1016 20.7766 20.1802 20.9881 20.1748 21.2059C20.1695 21.4238 20.0806 21.6312 19.9265 21.7852C19.7724 21.9393 19.565 22.0282 19.3472 22.0336C19.1294 22.0389 18.9178 21.9603 18.7564 21.814L17.5469 20.6045C17.4447 20.509 17.31 20.4559 17.1702 20.4559C17.0304 20.4559 16.8957 20.509 16.7935 20.6045L15.584 21.814C15.5079 21.8952 15.4158 21.9597 15.3136 22.0035C15.2113 22.0473 15.1011 22.0695 14.9899 22.0687C14.8229 22.0656 14.6604 22.0139 14.5223 21.9199C14.3843 21.8259 14.2766 21.6938 14.2124 21.5396C14.1483 21.3854 14.1304 21.2158 14.1611 21.0516C14.1918 20.8874 14.2696 20.7358 14.3851 20.6151V20.6576ZM10.6504 2.76922C10.6556 2.38965 10.5475 2.01714 10.34 1.69926C10.1326 1.38138 9.83504 1.13254 9.48548 0.984518C9.13592 0.836496 8.75018 0.796005 8.3775 0.868216C8.00483 0.940426 7.66212 1.12206 7.39315 1.38993L6.55497 2.22811L5.71678 1.38993C5.35887 1.03358 4.87438 0.833522 4.36932 0.833522C3.86426 0.833522 3.37977 1.03358 3.02186 1.38993C2.83799 1.56856 2.6931 1.78333 2.59632 2.02071C2.49954 2.2581 2.45297 2.51295 2.45953 2.76922C2.45973 3.01981 2.50952 3.26789 2.60603 3.49915C2.70254 3.73041 2.84387 3.94029 3.02186 4.11668L3.84943 4.95487L3.02186 5.79305C2.75596 6.06011 2.57502 6.39988 2.50182 6.76956C2.42861 7.13924 2.46642 7.52232 2.61048 7.87056C2.75454 8.2188 2.99841 8.51664 3.31139 8.72657C3.62437 8.93649 3.99246 9.04913 4.36932 9.0503C4.61925 9.05208 4.86705 9.00422 5.09836 8.90952C5.32966 8.81481 5.53986 8.67513 5.71678 8.49858L6.55497 7.6604L7.39315 8.49858C7.57007 8.67513 7.78027 8.81481 8.01157 8.90952C8.24288 9.00422 8.49068 9.05208 8.74061 9.0503C8.99054 9.05208 9.23835 9.00422 9.46965 8.90952C9.70095 8.81481 9.91115 8.67513 10.0881 8.49858C10.2664 8.32023 10.4078 8.1085 10.5043 7.87548C10.6008 7.64246 10.6504 7.39272 10.6504 7.14051C10.6502 6.88992 10.6004 6.64184 10.5039 6.41058C10.4074 6.17932 10.2661 5.96945 10.0881 5.79305L9.2605 4.95487L10.0881 4.12729C10.4462 3.76579 10.6482 3.27811 10.6504 2.76922ZM9.34538 3.37399L8.13584 4.57291C8.08612 4.62223 8.04666 4.6809 8.01972 4.74554C7.99279 4.81019 7.97892 4.87953 7.97892 4.94956C7.97892 5.01959 7.99279 5.08893 8.01972 5.15358C8.04666 5.21822 8.08612 5.2769 8.13584 5.32621L9.34538 6.54636C9.50476 6.70728 9.59418 6.92462 9.59418 7.15112C9.59418 7.37762 9.50476 7.59496 9.34538 7.75589C9.18244 7.91163 8.966 7.99896 8.74061 7.99992C8.51522 7.99896 8.29878 7.91163 8.13584 7.75589L6.92631 6.53575C6.87868 6.485 6.82116 6.44455 6.75729 6.4169C6.69342 6.38925 6.62456 6.37499 6.55497 6.37499C6.48537 6.37499 6.41651 6.38925 6.35264 6.4169C6.28877 6.44455 6.23125 6.485 6.18362 6.53575L4.96348 7.75589C4.88535 7.83363 4.79265 7.8952 4.6907 7.93707C4.58875 7.97895 4.47954 8.0003 4.36932 7.99992C4.25746 8.00134 4.14645 7.98036 4.04282 7.93821C3.9392 7.89606 3.84506 7.83359 3.76596 7.75449C3.68685 7.67538 3.62438 7.58124 3.58223 7.47762C3.54008 7.374 3.5191 7.26298 3.52053 7.15112C3.52014 7.0409 3.54149 6.93169 3.58337 6.82974C3.62524 6.72779 3.68681 6.63509 3.76455 6.55697L4.97409 5.32621C5.02483 5.27859 5.06528 5.22106 5.09293 5.15719C5.12058 5.09332 5.13485 5.02446 5.13485 4.95487C5.13485 4.88527 5.12058 4.81641 5.09293 4.75254C5.06528 4.68867 5.02483 4.63115 4.97409 4.58352L3.76455 3.37399C3.60768 3.21175 3.51999 2.9949 3.51999 2.76922C3.51999 2.54354 3.60768 2.32669 3.76455 2.16445C3.92367 2.00572 4.13926 1.91657 4.36401 1.91657C4.58877 1.91657 4.80436 2.00572 4.96348 2.16445L6.18362 3.3846C6.28278 3.4818 6.41611 3.53624 6.55497 3.53624C6.69382 3.53624 6.82715 3.4818 6.92631 3.3846L8.13584 2.16445C8.29677 2.00507 8.51411 1.91565 8.74061 1.91565C8.96711 1.91565 9.18445 2.00507 9.34538 2.16445C9.50111 2.32739 9.58845 2.54383 9.58941 2.76922C9.59068 2.99504 9.50302 3.21229 9.34538 3.37399Z" fill="#6E7280" stroke="#6E7280" stroke-width="2.2483" mask="url(#path-1-inside-1_1238_8800)"/>
<mask id="path-2-inside-2_1238_8800" fill="white">
<path d="M17.0693 7.09812V2.61012L17.515 3.02391C17.6126 3.11655 17.7412 3.16951 17.8757 3.17245C17.9491 3.17171 18.0217 3.15631 18.0891 3.12716C18.1565 3.09801 18.2174 3.05569 18.2683 3.00269C18.318 2.95337 18.3575 2.8947 18.3844 2.83005C18.4113 2.76541 18.4252 2.69607 18.4252 2.62604C18.4252 2.556 18.4113 2.48667 18.3844 2.42202C18.3575 2.35737 18.318 2.2987 18.2683 2.24938L16.8996 0.997412C16.7984 0.912809 16.6707 0.866455 16.5388 0.866455C16.407 0.866455 16.2793 0.912809 16.1781 0.997412L14.8413 2.24938C14.7915 2.2987 14.7521 2.35737 14.7251 2.42202C14.6982 2.48667 14.6843 2.556 14.6843 2.62604C14.6843 2.69607 14.6982 2.76541 14.7251 2.83005C14.7521 2.8947 14.7915 2.95337 14.8413 3.00269C14.8897 3.05209 14.9474 3.09134 15.0112 3.11814C15.075 3.14493 15.1434 3.15873 15.2126 3.15873C15.2818 3.15873 15.3502 3.14493 15.414 3.11814C15.4778 3.09134 15.5355 3.05209 15.584 3.00269L16.0296 2.5889V7.09812C16.0296 7.89544 15.7136 8.66026 15.1508 9.22505C14.588 9.78983 13.8243 10.1085 13.027 10.1113H9.57873C8.49806 10.1141 7.46229 10.5439 6.69715 11.3071C5.932 12.0702 5.4995 13.1049 5.49391 14.1856V15.6497C4.60164 15.7836 3.79298 16.2498 3.23007 16.955C2.66717 17.6601 2.39165 18.5519 2.45877 19.4517C2.52588 20.3514 2.93068 21.1925 3.59197 21.8063C4.25326 22.4201 5.12215 22.7612 6.02441 22.7612C6.92666 22.7612 7.79555 22.4201 8.45684 21.8063C9.11813 21.1925 9.52293 20.3514 9.59004 19.4517C9.65716 18.5519 9.38164 17.6601 8.81874 16.955C8.25583 16.2498 7.44717 15.7836 6.5549 15.6497V14.1856C6.55771 13.3854 6.87753 12.619 7.4443 12.0542C8.01108 11.4895 8.7786 11.1723 9.57873 11.1723H13.0057C14.0844 11.1695 15.118 10.739 15.8798 9.97528C16.6416 9.21152 17.0693 8.17684 17.0693 7.09812ZM8.5814 19.1616C8.5835 19.6594 8.43781 20.1466 8.16279 20.5615C7.88776 20.9764 7.49578 21.3004 7.0365 21.4923C6.57721 21.6843 6.07129 21.7356 5.58282 21.6397C5.09434 21.5439 4.6453 21.3053 4.29257 20.954C3.93984 20.6028 3.6993 20.1548 3.60141 19.6667C3.50353 19.1786 3.5527 18.6725 3.7427 18.2124C3.93271 17.7523 4.25499 17.359 4.66874 17.0822C5.08248 16.8054 5.56906 16.6577 6.06684 16.6577C6.72453 16.6688 7.35168 16.9371 7.81382 17.4052C8.27596 17.8733 8.53628 18.5038 8.53896 19.1616H8.5814Z"/>
</mask>
<path d="M17.0693 7.09812V2.61012L17.515 3.02391C17.6126 3.11655 17.7412 3.16951 17.8757 3.17245C17.9491 3.17171 18.0217 3.15631 18.0891 3.12716C18.1565 3.09801 18.2174 3.05569 18.2683 3.00269C18.318 2.95337 18.3575 2.8947 18.3844 2.83005C18.4113 2.76541 18.4252 2.69607 18.4252 2.62604C18.4252 2.556 18.4113 2.48667 18.3844 2.42202C18.3575 2.35737 18.318 2.2987 18.2683 2.24938L16.8996 0.997412C16.7984 0.912809 16.6707 0.866455 16.5388 0.866455C16.407 0.866455 16.2793 0.912809 16.1781 0.997412L14.8413 2.24938C14.7915 2.2987 14.7521 2.35737 14.7251 2.42202C14.6982 2.48667 14.6843 2.556 14.6843 2.62604C14.6843 2.69607 14.6982 2.76541 14.7251 2.83005C14.7521 2.8947 14.7915 2.95337 14.8413 3.00269C14.8897 3.05209 14.9474 3.09134 15.0112 3.11814C15.075 3.14493 15.1434 3.15873 15.2126 3.15873C15.2818 3.15873 15.3502 3.14493 15.414 3.11814C15.4778 3.09134 15.5355 3.05209 15.584 3.00269L16.0296 2.5889V7.09812C16.0296 7.89544 15.7136 8.66026 15.1508 9.22505C14.588 9.78983 13.8243 10.1085 13.027 10.1113H9.57873C8.49806 10.1141 7.46229 10.5439 6.69715 11.3071C5.932 12.0702 5.4995 13.1049 5.49391 14.1856V15.6497C4.60164 15.7836 3.79298 16.2498 3.23007 16.955C2.66717 17.6601 2.39165 18.5519 2.45877 19.4517C2.52588 20.3514 2.93068 21.1925 3.59197 21.8063C4.25326 22.4201 5.12215 22.7612 6.02441 22.7612C6.92666 22.7612 7.79555 22.4201 8.45684 21.8063C9.11813 21.1925 9.52293 20.3514 9.59004 19.4517C9.65716 18.5519 9.38164 17.6601 8.81874 16.955C8.25583 16.2498 7.44717 15.7836 6.5549 15.6497V14.1856C6.55771 13.3854 6.87753 12.619 7.4443 12.0542C8.01108 11.4895 8.7786 11.1723 9.57873 11.1723H13.0057C14.0844 11.1695 15.118 10.739 15.8798 9.97528C16.6416 9.21152 17.0693 8.17684 17.0693 7.09812ZM8.5814 19.1616C8.5835 19.6594 8.43781 20.1466 8.16279 20.5615C7.88776 20.9764 7.49578 21.3004 7.0365 21.4923C6.57721 21.6843 6.07129 21.7356 5.58282 21.6397C5.09434 21.5439 4.6453 21.3053 4.29257 20.954C3.93984 20.6028 3.6993 20.1548 3.60141 19.6667C3.50353 19.1786 3.5527 18.6725 3.7427 18.2124C3.93271 17.7523 4.25499 17.359 4.66874 17.0822C5.08248 16.8054 5.56906 16.6577 6.06684 16.6577C6.72453 16.6688 7.35168 16.9371 7.81382 17.4052C8.27596 17.8733 8.53628 18.5038 8.53896 19.1616H8.5814Z" fill="#6E7280" stroke="#6E7280" stroke-width="2.2483" mask="url(#path-2-inside-2_1238_8800)"/>
</svg>
