<svg width="24" height="24" viewBox="0 0 24 24" fill="none" xmlns="http://www.w3.org/2000/svg">
<mask id="path-1-inside-1_1234_2874" fill="white">
<path d="M20.625 23.625H3.375C3.27554 23.625 3.18016 23.5855 3.10984 23.5152C3.03951 23.4448 3 23.3495 3 23.25V22.875C3 22.2783 3.23705 21.706 3.65901 21.284C4.08097 20.8621 4.65326 20.625 5.25 20.625H18.75C19.3467 20.625 19.919 20.8621 20.341 21.284C20.7629 21.706 21 22.2783 21 22.875V23.25C21 23.3495 20.9605 23.4448 20.8902 23.5152C20.8198 23.5855 20.7245 23.625 20.625 23.625ZM3.75 22.875H20.25C20.25 22.4772 20.092 22.0956 19.8107 21.8143C19.5294 21.533 19.1478 21.375 18.75 21.375H5.25C4.85218 21.375 4.47064 21.533 4.18934 21.8143C3.90804 22.0956 3.75 22.4772 3.75 22.875Z"/>
</mask>
<path d="M20.625 23.625H3.375C3.27554 23.625 3.18016 23.5855 3.10984 23.5152C3.03951 23.4448 3 23.3495 3 23.25V22.875C3 22.2783 3.23705 21.706 3.65901 21.284C4.08097 20.8621 4.65326 20.625 5.25 20.625H18.75C19.3467 20.625 19.919 20.8621 20.341 21.284C20.7629 21.706 21 22.2783 21 22.875V23.25C21 23.3495 20.9605 23.4448 20.8902 23.5152C20.8198 23.5855 20.7245 23.625 20.625 23.625ZM3.75 22.875H20.25C20.25 22.4772 20.092 22.0956 19.8107 21.8143C19.5294 21.533 19.1478 21.375 18.75 21.375H5.25C4.85218 21.375 4.47064 21.533 4.18934 21.8143C3.90804 22.0956 3.75 22.4772 3.75 22.875Z" fill="#6E7280"/>
<path d="M3 23.25H4H3ZM5.25 20.625V19.625V20.625ZM18.75 20.625V19.625V20.625ZM3.75 22.875H2.75V23.875H3.75V22.875ZM20.25 22.875V23.875H21.25V22.875H20.25ZM20.625 22.625H3.375V24.625H20.625V22.625ZM3.375 22.625C3.54076 22.625 3.69973 22.6908 3.81694 22.8081L2.40273 24.2223C2.66059 24.4801 3.01033 24.625 3.375 24.625V22.625ZM3.81694 22.8081C3.93415 22.9253 4 23.0842 4 23.25H2C2 23.6147 2.14487 23.9644 2.40273 24.2223L3.81694 22.8081ZM4 23.25V22.875H2V23.25H4ZM4 22.875C4 22.5435 4.1317 22.2255 4.36612 21.9911L2.9519 20.5769C2.34241 21.1864 2 22.013 2 22.875H4ZM4.36612 21.9911C4.60054 21.7567 4.91848 21.625 5.25 21.625V19.625C4.38805 19.625 3.5614 19.9674 2.9519 20.5769L4.36612 21.9911ZM5.25 21.625H18.75V19.625H5.25V21.625ZM18.75 21.625C19.0815 21.625 19.3995 21.7567 19.6339 21.9911L21.0481 20.5769C20.4386 19.9674 19.612 19.625 18.75 19.625V21.625ZM19.6339 21.9911C19.8683 22.2255 20 22.5435 20 22.875H22C22 22.013 21.6576 21.1864 21.0481 20.5769L19.6339 21.9911ZM20 22.875V23.25H22V22.875H20ZM20 23.25C20 23.0842 20.0658 22.9253 20.1831 22.8081L21.5973 24.2223C21.8551 23.9644 22 23.6147 22 23.25H20ZM20.1831 22.8081C20.3003 22.6908 20.4592 22.625 20.625 22.625V24.625C20.9897 24.625 21.3394 24.4801 21.5973 24.2223L20.1831 22.8081ZM3.75 23.875H20.25V21.875H3.75V23.875ZM21.25 22.875C21.25 22.212 20.9866 21.5761 20.5178 21.1072L19.1036 22.5214C19.1973 22.6152 19.25 22.7424 19.25 22.875H21.25ZM20.5178 21.1072C20.0489 20.6384 19.413 20.375 18.75 20.375V22.375C18.8826 22.375 19.0098 22.4277 19.1036 22.5214L20.5178 21.1072ZM18.75 20.375H5.25V22.375H18.75V20.375ZM5.25 20.375C4.58696 20.375 3.95107 20.6384 3.48223 21.1072L4.89645 22.5214C4.99022 22.4277 5.11739 22.375 5.25 22.375V20.375ZM3.48223 21.1072C3.01339 21.5761 2.75 22.212 2.75 22.875H4.75C4.75 22.7424 4.80268 22.6152 4.89645 22.5214L3.48223 21.1072Z" fill="#6E7280" mask="url(#path-1-inside-1_1234_2874)"/>
<mask id="path-3-inside-2_1234_2874" fill="white">
<path d="M18.75 21.375H5.25C5.15054 21.375 5.05516 21.3355 4.98484 21.2652C4.91451 21.1948 4.875 21.0995 4.875 21V20.25C4.875 19.7527 5.07254 19.2758 5.42417 18.9242C5.77581 18.5725 6.25272 18.375 6.75 18.375H17.25C17.7473 18.375 18.2242 18.5725 18.5758 18.9242C18.9275 19.2758 19.125 19.7527 19.125 20.25V21C19.125 21.0995 19.0855 21.1948 19.0152 21.2652C18.9448 21.3355 18.8495 21.375 18.75 21.375ZM5.625 20.625H18.375V20.25C18.375 19.9516 18.2565 19.6655 18.0455 19.4545C17.8345 19.2435 17.5484 19.125 17.25 19.125H6.75C6.45163 19.125 6.16548 19.2435 5.9545 19.4545C5.74353 19.6655 5.625 19.9516 5.625 20.25V20.625ZM12 11.25C11.9005 11.25 11.8052 11.2105 11.7348 11.1402C11.6645 11.0698 11.625 10.9745 11.625 10.875C11.625 10.7755 11.6645 10.6802 11.7348 10.6098C11.8052 10.5395 11.9005 10.5 12 10.5C12.4973 10.5 12.9742 10.3025 13.3258 9.95083C13.6775 9.59919 13.875 9.12228 13.875 8.625C13.875 8.52554 13.9145 8.43016 13.9848 8.35983C14.0552 8.28951 14.1505 8.25 14.25 8.25C14.3495 8.25 14.4448 8.28951 14.5152 8.35983C14.5855 8.43016 14.625 8.52554 14.625 8.625C14.625 9.32119 14.3484 9.98887 13.8562 10.4812C13.3639 10.9734 12.6962 11.25 12 11.25Z"/>
</mask>
<path d="M18.75 21.375H5.25C5.15054 21.375 5.05516 21.3355 4.98484 21.2652C4.91451 21.1948 4.875 21.0995 4.875 21V20.25C4.875 19.7527 5.07254 19.2758 5.42417 18.9242C5.77581 18.5725 6.25272 18.375 6.75 18.375H17.25C17.7473 18.375 18.2242 18.5725 18.5758 18.9242C18.9275 19.2758 19.125 19.7527 19.125 20.25V21C19.125 21.0995 19.0855 21.1948 19.0152 21.2652C18.9448 21.3355 18.8495 21.375 18.75 21.375ZM5.625 20.625H18.375V20.25C18.375 19.9516 18.2565 19.6655 18.0455 19.4545C17.8345 19.2435 17.5484 19.125 17.25 19.125H6.75C6.45163 19.125 6.16548 19.2435 5.9545 19.4545C5.74353 19.6655 5.625 19.9516 5.625 20.25V20.625ZM12 11.25C11.9005 11.25 11.8052 11.2105 11.7348 11.1402C11.6645 11.0698 11.625 10.9745 11.625 10.875C11.625 10.7755 11.6645 10.6802 11.7348 10.6098C11.8052 10.5395 11.9005 10.5 12 10.5C12.4973 10.5 12.9742 10.3025 13.3258 9.95083C13.6775 9.59919 13.875 9.12228 13.875 8.625C13.875 8.52554 13.9145 8.43016 13.9848 8.35983C14.0552 8.28951 14.1505 8.25 14.25 8.25C14.3495 8.25 14.4448 8.28951 14.5152 8.35983C14.5855 8.43016 14.625 8.52554 14.625 8.625C14.625 9.32119 14.3484 9.98887 13.8562 10.4812C13.3639 10.9734 12.6962 11.25 12 11.25Z" fill="#6E7280"/>
<path d="M4.875 20.25H3.875H4.875ZM6.75 18.375V17.375V18.375ZM5.625 20.625H4.625V21.625H5.625V20.625ZM18.375 20.625V21.625H19.375V20.625H18.375ZM12 11.25V12.25V11.25ZM12 10.5V9.5V10.5ZM18.75 20.375H5.25V22.375H18.75V20.375ZM5.25 20.375C5.41576 20.375 5.57473 20.4408 5.69194 20.5581L4.27773 21.9723C4.53559 22.2301 4.88533 22.375 5.25 22.375V20.375ZM5.69194 20.5581C5.80915 20.6753 5.875 20.8342 5.875 21H3.875C3.875 21.3647 4.01987 21.7144 4.27773 21.9723L5.69194 20.5581ZM5.875 21V20.25H3.875V21H5.875ZM5.875 20.25C5.875 20.0179 5.96719 19.7954 6.13128 19.6313L4.71707 18.2171C4.1779 18.7562 3.875 19.4875 3.875 20.25H5.875ZM6.13128 19.6313C6.29538 19.4672 6.51794 19.375 6.75 19.375V17.375C5.9875 17.375 5.25624 17.6779 4.71707 18.2171L6.13128 19.6313ZM6.75 19.375H17.25V17.375H6.75V19.375ZM17.25 19.375C17.4821 19.375 17.7046 19.4672 17.8687 19.6313L19.2829 18.2171C18.7438 17.6779 18.0125 17.375 17.25 17.375V19.375ZM17.8687 19.6313C18.0328 19.7954 18.125 20.0179 18.125 20.25H20.125C20.125 19.4875 19.8221 18.7562 19.2829 18.2171L17.8687 19.6313ZM18.125 20.25V21H20.125V20.25H18.125ZM18.125 21C18.125 20.8342 18.1908 20.6753 18.3081 20.5581L19.7223 21.9723C19.9801 21.7144 20.125 21.3647 20.125 21H18.125ZM18.3081 20.5581C18.4253 20.4408 18.5842 20.375 18.75 20.375V22.375C19.1147 22.375 19.4644 22.2301 19.7223 21.9723L18.3081 20.5581ZM5.625 21.625H18.375V19.625H5.625V21.625ZM19.375 20.625V20.25H17.375V20.625H19.375ZM19.375 20.25C19.375 19.6864 19.1511 19.1459 18.7526 18.7474L17.3384 20.1616C17.3618 20.1851 17.375 20.2168 17.375 20.25H19.375ZM18.7526 18.7474C18.3541 18.3489 17.8136 18.125 17.25 18.125V20.125C17.2832 20.125 17.3149 20.1382 17.3384 20.1616L18.7526 18.7474ZM17.25 18.125H6.75V20.125H17.25V18.125ZM6.75 18.125C6.18641 18.125 5.64591 18.3489 5.2474 18.7474L6.66161 20.1616C6.68505 20.1382 6.71685 20.125 6.75 20.125V18.125ZM5.2474 18.7474C4.84888 19.1459 4.625 19.6864 4.625 20.25H6.625C6.625 20.2168 6.63817 20.1851 6.66161 20.1616L5.2474 18.7474ZM4.625 20.25V20.625H6.625V20.25H4.625ZM12 10.25C12.1658 10.25 12.3247 10.3158 12.4419 10.4331L11.0277 11.8473C11.2856 12.1051 11.6353 12.25 12 12.25V10.25ZM12.4419 10.4331C12.5592 10.5503 12.625 10.7092 12.625 10.875H10.625C10.625 11.2397 10.7699 11.5894 11.0277 11.8473L12.4419 10.4331ZM12.625 10.875C12.625 11.0408 12.5592 11.1997 12.4419 11.3169L11.0277 9.90273C10.7699 10.1606 10.625 10.5103 10.625 10.875H12.625ZM12.4419 11.3169C12.3247 11.4342 12.1658 11.5 12 11.5V9.5C11.6353 9.5 11.2856 9.64486 11.0277 9.90273L12.4419 11.3169ZM12 11.5C12.7625 11.5 13.4938 11.1971 14.0329 10.6579L12.6187 9.24372C12.4546 9.40781 12.2321 9.5 12 9.5V11.5ZM14.0329 10.6579C14.5721 10.1188 14.875 9.3875 14.875 8.625H12.875C12.875 8.85706 12.7828 9.07962 12.6187 9.24372L14.0329 10.6579ZM14.875 8.625C14.875 8.79076 14.8092 8.94973 14.6919 9.06694L13.2777 7.65273C13.0199 7.91059 12.875 8.26033 12.875 8.625H14.875ZM14.6919 9.06694C14.5747 9.18415 14.4158 9.25 14.25 9.25V7.25C13.8853 7.25 13.5356 7.39486 13.2777 7.65273L14.6919 9.06694ZM14.25 9.25C14.0842 9.25 13.9253 9.18415 13.8081 9.06694L15.2223 7.65273C14.9644 7.39486 14.6147 7.25 14.25 7.25V9.25ZM13.8081 9.06694C13.6908 8.94973 13.625 8.79076 13.625 8.625H15.625C15.625 8.26033 15.4801 7.91059 15.2223 7.65273L13.8081 9.06694ZM13.625 8.625C13.625 9.05598 13.4538 9.4693 13.149 9.77405L14.5633 11.1883C15.2431 10.5084 15.625 9.58641 15.625 8.625H13.625ZM13.149 9.77405C12.8443 10.0788 12.431 10.25 12 10.25V12.25C12.9614 12.25 13.8834 11.8681 14.5633 11.1883L13.149 9.77405Z" fill="#6E7280" mask="url(#path-3-inside-2_1234_2874)"/>
<path d="M8.11363 11.7407L8.11368 11.7407C8.11367 11.7407 8.11365 11.7407 8.11363 11.7407Z" fill="#6E7280" stroke="#6E7280"/>
</svg>
