<svg width="32" height="32" viewBox="0 0 32 32" fill="none" xmlns="http://www.w3.org/2000/svg">
<path fill-rule="evenodd" clip-rule="evenodd" d="M8 3.6665C6.34315 3.6665 5 5.00965 5 6.6665V25.3332C5 26.99 6.34315 28.3332 8 28.3332H24C25.6568 28.3332 27 26.99 27 25.3332V12.1147C27 11.4129 26.754 10.7333 26.3047 10.1942L21.7645 4.74596C21.1945 4.06197 20.3501 3.6665 19.4599 3.6665H8ZM3 6.6665C3 3.90508 5.23857 1.6665 8 1.6665H19.4599C20.9437 1.6665 22.3509 2.32562 23.3009 3.46558L27.8411 8.91378C28.5899 9.81236 29 10.945 29 12.1147V25.3332C29 28.0946 26.7615 30.3332 24 30.3332H8C5.23857 30.3332 3 28.0946 3 25.3332V6.6665Z" fill="#8E8E8E"/>
<path fill-rule="evenodd" clip-rule="evenodd" d="M20 2.3335C20.5523 2.3335 21 2.78122 21 3.3335V8.00016C21 9.65702 22.3432 11.0002 24 11.0002H27.3333C27.8856 11.0002 28.3333 11.4479 28.3333 12.0002C28.3333 12.5524 27.8856 13.0002 27.3333 13.0002H24C21.2385 13.0002 19 10.7616 19 8.00016V3.3335C19 2.78122 19.4477 2.3335 20 2.3335ZM16 13.6668C16.5523 13.6668 17 14.1146 17 14.6668V22.6668C17 23.2191 16.5523 23.6668 16 23.6668C15.4477 23.6668 15 23.2191 15 22.6668V14.6668C15 14.1146 15.4477 13.6668 16 13.6668Z" fill="#8E8E8E"/>
<path fill-rule="evenodd" clip-rule="evenodd" d="M21 18.6665C21 19.2188 20.5523 19.6665 20 19.6665H12C11.4477 19.6665 11 19.2188 11 18.6665C11 18.1142 11.4477 17.6665 12 17.6665H20C20.5523 17.6665 21 18.1142 21 18.6665Z" fill="#8E8E8E"/>
</svg>
