<svg width="18" height="21" viewBox="0 0 18 21" fill="none" xmlns="http://www.w3.org/2000/svg">
<path d="M5.99997 16.0001V16.7501C5.99997 17.5457 6.31604 18.3088 6.87865 18.8714C7.44126 19.434 8.20432 19.7501 8.99997 19.7501C9.79562 19.7501 10.5587 19.434 11.1213 18.8714C11.6839 18.3088 12 17.5457 12 16.7501V16.0001M2.26901 7.75006C2.26777 6.86057 2.44259 5.97963 2.7834 5.15802C3.12421 4.33641 3.62427 3.59037 4.25474 2.96292C4.88522 2.33547 5.63365 1.83901 6.4569 1.50216C7.28014 1.16531 8.16191 0.994729 9.05139 1.00025C12.7629 1.02784 15.7317 4.11288 15.7317 7.8348V8.50006C15.7317 11.8578 16.4342 13.8062 17.0529 14.8711C17.1196 14.9849 17.155 15.1143 17.1557 15.2462C17.1564 15.378 17.1223 15.5077 17.0569 15.6222C16.9915 15.7367 16.897 15.832 16.783 15.8983C16.6691 15.9646 16.5396 15.9997 16.4077 16.0001H1.59219C1.4603 15.9997 1.33084 15.9646 1.21686 15.8983C1.10287 15.8319 1.00841 15.7367 0.942981 15.6222C0.877557 15.5076 0.843491 15.3779 0.844219 15.246C0.844948 15.1141 0.880445 14.9848 0.947131 14.871C1.56619 13.806 2.26901 11.8576 2.26901 8.50006L2.26901 7.75006Z" stroke="#151721" strokeWidth="1.5" strokeLinecap="round" stroke-linejoin="round"/>
</svg>
