<svg width="24" height="24" viewBox="0 0 24 24" fill="none" xmlns="http://www.w3.org/2000/svg">
<path d="M16.1273 13.4954C15.5072 13.4954 15.0045 12.9928 15.0045 12.3727C15.0045 11.7527 15.5072 11.25 16.1273 11.25C16.7473 11.25 17.25 11.7527 17.25 12.3727C17.25 12.9928 16.7473 13.4954 16.1273 13.4954ZM15.0045 16.1227C15.0045 16.7428 15.5072 17.2455 16.1273 17.2455C16.7473 17.2455 17.25 16.7428 17.25 16.1227C17.25 15.5027 16.7473 15 16.1273 15C15.5072 15 15.0045 15.5027 15.0045 16.1227ZM11.9994 13.4954C11.3793 13.4954 10.8766 12.9928 10.8766 12.3727C10.8766 11.7527 11.3793 11.25 11.9994 11.25C12.6194 11.25 13.1221 11.7527 13.1221 12.3727C13.1221 12.9928 12.6194 13.4954 11.9994 13.4954ZM10.8766 16.1227C10.8766 16.7428 11.3793 17.2455 11.9994 17.2455C12.6194 17.2455 13.1221 16.7428 13.1221 16.1227C13.1221 15.5027 12.6194 15 11.9994 15C11.3793 15 10.8766 15.5027 10.8766 16.1227ZM7.87728 13.4954C7.25721 13.4954 6.75456 12.9928 6.75456 12.3727C6.75456 11.7527 7.25721 11.25 7.87728 11.25C8.49734 11.25 9 11.7527 9 12.3727C9 12.9928 8.49734 13.4954 7.87728 13.4954ZM3 6.75C3 4.67894 4.67894 3 6.75 3H17.25C19.3211 3 21 4.67894 21 6.75V17.25C21 19.3211 19.3211 21 17.25 21H6.75C4.67894 21 3 19.3211 3 17.25V6.75ZM19.5 9H4.5V17.25C4.5 18.4926 5.50735 19.5 6.75 19.5H17.25C18.4926 19.5 19.5 18.4926 19.5 17.25V9ZM17.25 4.5H6.75C5.50735 4.5 4.5 5.50735 4.5 6.75V7.5H19.5V6.75C19.5 5.50735 18.4926 4.5 17.25 4.5Z" fill="#212121"/>
</svg>
