<svg width="11" height="14" viewBox="0 0 11 14" fill="none" xmlns="http://www.w3.org/2000/svg">
<path d="M1 12.5H10C10.4142 12.5 10.75 12.8358 10.75 13.25C10.75 13.6297 10.4678 13.9435 10.1018 13.9932L10 14H1C0.58579 14 0.25 13.6642 0.25 13.25C0.25 12.8703 0.53215 12.5565 0.89823 12.5068L1 12.5ZM5.39823 0.50685L5.5 0.5C5.8797 0.5 6.19349 0.78215 6.24315 1.14823L6.25 1.25V8.938L8.5052 6.68414C8.7715 6.41787 9.1881 6.39366 9.4817 6.61152L9.5659 6.68414C9.8321 6.9504 9.8563 7.36707 9.6385 7.66068L9.5659 7.7448L6.03033 11.2803C5.76406 11.5466 5.3474 11.5708 5.05379 11.3529L4.96967 11.2803L1.43414 7.7448C1.14124 7.4519 1.14124 6.97703 1.43414 6.68414C1.7004 6.41787 2.11707 6.39366 2.41068 6.61152L2.4948 6.68414L4.75 8.94V1.25C4.75 0.8703 5.03215 0.55651 5.39823 0.50685Z" fill="#F3476D"/>
</svg>
