<svg width="250" height="518" viewBox="0 0 250 518" fill="none" xmlns="http://www.w3.org/2000/svg">
<g clip-path="url(#clip0_845_64983)">
<mask id="mask0_845_64983" style="mask-type:luminance" maskUnits="userSpaceOnUse" x="-6" y="-5" width="258" height="548">
<path d="M251.126 -5H-5.40552V542.432H251.126V-5Z" fill="white"/>
</mask>
<g mask="url(#mask0_845_64983)">
<path d="M136.917 33.2271C136.917 33.2271 140.346 35.4902 141.119 37.8958C141.119 37.8958 142.665 41.0717 142.859 44.4899C142.859 44.4899 142.823 48.5799 142.621 50.6007L141.896 54.9621L142.858 54.343C142.858 54.343 143.991 54.2253 144.28 54.5685C144.28 54.5685 144.833 55.5867 144.796 56.5075C144.796 56.5075 144.861 57.8712 144.38 58.7022L143.838 61.0135L143.475 63.0613L143.022 64.9745L142.623 66.8159L141.919 68.4846L141.293 69.5668L140.179 70.4517L139.867 72.8359L139.21 76.3494L138.414 78.9714L137.605 80.8364L136.826 83.1477L135.902 83.4359L136.373 86.0332L137.624 88.6507L139.217 90.5998L141.681 92.7294L144.038 94.3892L147.137 96.1028L150.418 97.601L153.352 98.8638L156.014 99.8742L159.097 100.885L162.777 101.787L165.511 102.275L169.138 102.672L172.545 103.232L175.896 104.225L178.253 105.524L180.736 107.258L182.983 109.242L184.688 111.174L186.19 113.466L187.513 116.461L188.367 119.402L188.748 121.539L189.012 124.644V127.532V130.406L188.784 132.909L188.638 135.435L188.614 137.998L188.686 141.476L189.012 144.653L189.664 147.504L190.378 150.066L191.368 152.677L192.539 155.204L193.99 158.284L195.487 161.208L197.132 164.421L198.557 167.38C198.557 167.38 200.127 171.496 200.127 172.53L200.975 175.947L202.52 179.051L205.445 182.685C205.445 182.685 207.885 185.38 208.128 185.934C208.128 185.934 210.554 189.11 210.996 190.434C210.996 190.434 213.153 194.765 213.394 195.847C213.394 195.847 214.676 199.747 214.918 201.646L215.835 206.387L216.633 210.814L217.261 214.64L218.035 218.033L219.001 221.089L220.257 224.505L221.441 227.706L222.216 230.522L223.142 232.029L223.52 233.932L223.616 236.608L223.522 238.822V240.123L223.98 242.576L224.752 244.743L225.38 246.042L226.499 248.028L228.111 250.157L229.888 251.8L232.009 253.479L233.985 255.121L235.397 256.709L236.393 258.965L237.065 260.859L237.5 262.501L238.261 264.054L238.891 265.245L239.482 268.531L239.627 271.154L239.494 272.527L238.951 272.887L237.888 272.816L236.279 269.614L235.906 270.877L236.15 272.755L236.85 274.62L237.852 277.134L238.82 279.972L239.628 282.452L240.123 284.895V286.662L239.833 287.529L239.278 287.89C239.278 287.89 238.021 288.106 237.368 287.121L235.628 283.787L234.565 281.248L233.262 277.828L232.513 276.266L231.981 275.062L231.401 274.172L230.843 273.545L230.097 273.239L229.95 273.859L230.264 275.567L231.02 278.577L231.714 282.569L232.002 285.023L232.414 286.901L232.801 288.657L233.141 290.317L233.382 292.025L233.333 293.131L233.163 293.949L232.343 294.431H231.303L230.192 293.66L228.607 290.51L227.51 287.09L226.858 284.889L225.456 279.606L224.973 280.138L225.19 283.65L225.77 287.741L226.084 291.16L226.181 294.283L225.986 295.102L225.504 295.777L224.779 296.211C224.779 296.211 223.731 296.377 223.046 295.151L222.267 292.651L221.905 289.374L221.614 285.046L221.276 281.125L220.936 277.66L220.302 274.445L220.139 274.001L219.607 275.374L218.906 278.141L218.132 282.112L217.599 285.24L217.311 287.623L216.875 288.609L216.269 289.043L215.328 289.137L214.647 288.719L214.049 286.542L214.531 283.125L215.352 279.395L215.838 275.976L215.475 273.595L214.752 271.308L213.953 269.12L212.624 265.244L212.138 262.982L211.849 260.264L211.583 256.365V252.9L211.608 249.098L211.389 246.836L210.69 245.294L210.037 243.659L209.602 242.238L208.686 239.879L207.525 237.593L206.038 235.248L205.133 233.659L203.246 230.951L201.654 228.785L200.531 227.268L199.334 225.68L197.341 223.01L195.891 221.097L194.261 218.535L192.267 215.429L190.563 212.47L188.742 208.788L186.43 203.519L184.764 199.042L183.642 195.398L183.098 192.04L182.445 187.745L181.685 184.46L180.343 181.355L178.495 178.361L175.993 174.751L174.362 172.404L172.081 168.83L169.942 165.004L168.167 160.962L167.007 155.657L166.174 161.396L165.051 165.186L163.999 167.929L162.947 170.852L162.185 173.489L161.315 176.484L160.699 179.047L160.071 182.006L159.49 184.558L159.056 187.854L158.644 191.801L158.476 195.458L158.62 199.548L158.983 203.52L159.49 207.394L160.335 211.533L161.473 216.249L162.486 220.099L163.718 224.792L165.194 230.447L166.088 234.247L167.152 240.216L167.948 245.966L168.576 250.852L169.253 255.206L170.1 258.984L170.341 260.789L170.46 262.593L171.06 267.224L171.717 274.229L172.261 281.447L172.514 287.654L172.624 294.911L172.514 300.902L172.261 308.842L171.789 315.7L171.102 323.099L170.087 331.979L168.674 341.362L167.877 348.511L167.764 354.971L168.528 362.083L169.435 368.001L170.667 372.623L172.478 377.24L174.364 381.792L175.85 385.327L176.357 386.88L177.481 389.116L178.278 392.474L178.857 396.769L179.474 402.328L179.728 408.101L179.692 414.06L179.438 419.869L179.075 424.994L178.533 431.166L177.771 437.159L177.191 442.213L176.213 446.687L174.908 452.46L174.365 457.155L174.402 460.403L175.054 463.686L176.25 466.072L177.192 468.74L177.448 470.906L177.377 472.186H178.353L180.207 474.082L180.601 475.78L180.456 476.83L179.839 478.632L178.208 480.978L176.974 482.892L176.505 485.057L176.251 487.295L175.96 488.449L175.454 489.424L174.223 490.578L173.133 491.265L171.829 491.842L169.908 492.313C169.908 492.313 168.278 492.671 167.117 492.527C167.117 492.527 164.672 492.444 163.093 491.265C163.093 491.265 161.173 489.747 160.883 486.534L160.592 482.241L159.795 478.307L158.417 475.021L157.33 472.348L157.075 470.329C157.075 470.329 157.004 469.389 157.802 467.983C157.802 467.983 156.605 466.07 156.931 463.904L157.293 460.763L158.271 457.153L159.395 453.037L159.832 450.295L159.795 447.045L159.505 444.809L159.069 443.078L158.236 439.9L157.293 437.303L156.424 434.269L155.264 430.408L153.742 425.355L152.545 420.915L151.242 416.694L149.573 410.34L148.487 405.359L148.052 400.991L147.886 395.145L147.472 387.134L147.219 381.391L146.964 377.423L144.861 373.018L143.664 369.118L141.671 363.704L139.715 358.903C139.715 358.903 138.446 355.403 138.41 352.264L137.685 342.375L136.959 336.706L135.908 331.149L135.219 326.455L133.589 319.018L131.957 312.487L129.892 305.519L128.188 299.744L126.811 294.077L125.686 288.737L125.359 284.441L124.853 277.728L125.071 276.175L123.428 270.615L122.535 271.844L121.774 274.085L120.178 276.863C120.178 276.863 120.685 277.91 120.685 279.281L120.396 282.098L120.178 284.264V286.897L119.888 289.966L119.526 293.07L119.272 295.418L118.947 297.149L118.486 299.679L118.003 302.18L117.472 304.489L116.77 307.231L116.189 309.494L115.635 311.564L115.08 313.272L114.33 315.773L113.75 317.77L113.098 319.744L112.34 322.125L111.334 324.726L110.512 326.901L109.715 328.84L109.087 330.38L108.266 333.146L107.637 335.024L106.864 337.287L106.235 339.212L105.896 340.584L105.68 341.666L105.317 343.353L104.931 345.637L104.56 347.997L104.231 350.065L103.94 351.701L103.385 353.457L103.093 354.949L102.611 357.091L101.572 359.329L100.606 361.206L99.4931 363.201L98.2138 365.585L96.9323 367.99L95.1204 372.035L94.3231 373.982L93.7667 376.1L93.3073 378.484L92.9931 381.322L92.8715 384.98V389.551C92.8715 389.551 92.7026 393.137 92.5584 393.812L92.1474 398.311L91.6879 401.655L91.2048 404.928L90.4312 408.866L89.7071 412.555L88.7645 416.116L87.3872 419.943L85.8895 423.817L84.6812 426.897L83.7634 429.256L82.9661 431.541L78.858 440.062C78.858 440.062 76.3219 445.883 75.9593 448.146C75.9593 448.146 75.0167 452.862 75.3062 457.049C75.3062 457.049 76.1282 461.669 75.983 464.92L75.4852 468.411C75.4852 468.411 77.2566 469.296 78.1823 471.031C78.1823 471.031 79.1249 472.689 78.1823 474.59C78.1823 474.59 76.9255 476.612 76.2498 477.479C76.2498 477.479 74.8726 480.125 74.8242 481.448C74.8242 481.448 74.4131 483.879 73.7611 485.323C73.7611 485.323 72.5877 488.345 70.3535 489.51C70.3535 489.51 67.7859 491.123 62.858 491.05C62.858 491.05 59.2881 490.905 58.3625 489.407C58.3625 489.407 56.5877 487.131 56.5325 486.373C56.5325 486.373 55.7701 486.734 55.5359 486.196C55.5359 486.196 54.4751 484.22 54.5933 482.223C54.5933 482.223 54.1778 479.406 53.3613 477.623C53.3613 477.623 52.4548 474.751 53.4875 472.459C53.4875 472.459 54.6834 470.058 57.3658 469.5C57.3658 469.5 56.8219 466.485 57.0944 464.481C57.0944 464.481 57.4019 460.582 58.8343 458.092C58.8343 458.092 59.1181 454.643 59.885 452.481L60.5922 445.368L60.7183 439.251C60.7183 439.251 60.3568 432.919 60.1035 431.89L59.4807 425.138C59.4807 425.138 58.9728 418.762 59.1181 417.488L58.5629 408.865C58.5629 408.865 57.983 401.199 58.2239 400.091C58.2239 400.091 57.7656 394.387 58.8523 389.695C58.8523 389.695 60.2296 382.283 61.7881 377.567C61.7881 377.567 65.1575 369.627 66.7161 366.739L72.769 354.179C72.769 354.179 75.3422 346.925 75.6316 343.532L76.1012 335.558L75.7881 333.071L76.3208 331.832L75.3422 323.609L73.9278 316.318C73.9278 316.318 71.6812 305.885 71.6812 304.37C71.6812 304.37 70.5933 297.439 71.064 292.459C71.064 292.459 71.4267 285.132 72.0798 281.956C72.0798 281.956 73.3107 272.895 73.7465 270.477L75.3782 260.624L76.4649 251.745L77.2622 241.846C77.2622 241.846 77.8884 235.322 78.4987 233.084L79.8715 225.612L83.0607 211.898C83.0607 211.898 85.1271 202.296 85.2724 199.915C85.2724 199.915 86.2138 195.727 85.7431 189.88L84.2206 179.015L82.8444 169.992L81.1767 161.763L79.5821 155.447L78.4998 150.719C78.4998 150.719 78.4954 152.776 78.1327 153.643L77.1902 157.288C77.1902 157.288 75.0517 163.243 74.5449 164.29C74.5449 164.29 72.4785 168.983 71.7893 170.101L69.724 174.287L68.0201 177.535C68.0201 177.535 66.3163 181.145 65.8095 183.093C65.8095 183.093 65.0483 185.476 64.867 188.834C64.867 188.834 64.7577 191.974 64.1417 194.032C64.1417 194.032 63.4165 196.63 63.0899 197.605C63.0899 197.605 61.6046 201.684 60.7701 203.379C60.7701 203.379 58.9582 207.098 57.5449 209.299C57.5449 209.299 54.8197 213.625 53.6665 214.75L49.1372 221.281L45.6575 226.154L42.1778 230.232L38.6992 233.59C38.6992 233.59 35.0021 236.838 34.0595 239.364C34.0595 239.364 32.7183 242.469 32.1023 247.701L31.5314 255.137C31.5314 255.137 31.7217 258.784 31.5314 261.454C31.5314 261.454 31.1598 265.151 29.9278 267.879C29.9278 267.879 28.5866 271.454 28.4413 275.893C28.4413 275.893 28.3321 279.947 28.6226 281.673C28.6226 281.673 28.7679 284.77 28.9852 285.745C28.9852 285.745 29.1384 287.946 27.6665 288.992C27.6665 288.992 25.6406 289.209 24.7453 284.949L23.7712 275.031C23.7712 275.031 22.9998 276.72 22.894 279.754C22.894 279.754 22.8591 283.939 22.2071 286.574C22.2071 286.574 21.9086 289.21 20.5179 291.161C20.5179 291.161 19.3444 292.846 17.9672 289.946C17.9672 289.946 16.8433 285.455 17.5325 280.51C17.5325 280.51 18.1857 274.087 18.5483 272.174C18.5483 272.174 17.1598 273.797 16.9492 276.18C16.9492 276.18 16.2285 279.466 16.2285 280.62L15.394 285.565C15.394 285.565 14.5888 288.645 13.6902 289.295C13.6902 289.295 11.5866 290.145 10.9357 287.549C10.9357 287.549 10.3197 283.197 11.2251 280.03L12.3287 274.547L10.278 280.655C10.278 280.655 9.66652 283.505 7.96269 284.118C7.96269 284.118 6.11359 284.842 6.18679 281.195L7.92552 274.953L8.72282 272.065L9.37597 267.913L9.52237 265.89C9.52237 265.89 7.05165 267.697 6.18453 266.325C6.18453 266.325 4.83994 265.648 5.87935 263.475L7.89061 260.551C7.89061 260.551 9.04715 257.503 9.0494 255.841C9.0494 255.841 9.3039 252.646 12.1676 249.579L15.9368 245.718C15.9368 245.718 17.894 243.551 18.6902 241.096L20.6845 234.562L21.9526 229.149L23.0764 224.384L24.3816 218.825L25.9041 212.978L27.5348 206.553L29.0212 201.86L30.4345 197.421L32.2104 193.269L34.5314 188.793C34.5314 188.793 36.8861 185.183 38.5528 183.451L41.9244 179.661C41.9244 179.661 44.242 177.115 45.6575 174.138L47.5426 166.703C47.5426 166.703 48.3399 161.144 50.1158 158.149C50.1158 158.149 53.1237 152.923 53.5595 151.71C53.5595 151.71 54.7915 148.331 54.9368 145.335L55.3501 137.034C55.3501 137.034 55.0449 130.212 55.4075 127.793C55.4075 127.793 55.5528 122.811 57.9086 118.046C57.9086 118.046 61.1339 111.765 67.0066 108.987C67.0066 108.987 77.5528 104.079 82.3017 103.104C82.3017 103.104 90.6384 100.18 93.3917 98.0137C93.3917 98.0137 101.912 93.4079 104.882 90.5426C104.882 90.5426 108.58 88.0171 108.688 82.4199C108.688 82.4199 108.748 79.3773 108.433 79.0151C108.433 79.0151 106.936 77.1389 106.718 74.7087C106.718 74.7087 105.945 71.6527 105.945 70.6423C105.945 70.6423 104.133 70.4248 103.36 68.1392C103.36 68.1392 102.448 64.3588 102.344 62.8459C102.344 62.8459 100.82 59.3358 100.846 57.2151C100.846 57.2151 100.34 54.5438 103.48 53.7016C103.48 53.7016 102.875 47.0356 103.432 44.8936C103.432 44.8936 104.156 38.277 108.035 34.8476C108.035 34.8476 112.457 30.3001 120.865 29.7214C120.858 29.7259 132.383 29.2045 136.917 33.2271Z" fill="#FEF8ED"/>
</g>
<mask id="mask1_845_64983" style="mask-type:luminance" maskUnits="userSpaceOnUse" x="-6" y="-5" width="258" height="548">
<path d="M251.126 -5H-5.40552V542.432H251.126V-5Z" fill="white"/>
</mask>
<g mask="url(#mask1_845_64983)">
<path d="M124.159 83.7062L144.037 94.3892" stroke="#C1C1C1" stroke-miterlimit="10"/>
<path d="M124.159 83.7062L126.623 155.227" stroke="#C1C1C1" stroke-miterlimit="10"/>
<path d="M125.09 110.751L151.323 98.1976" stroke="#C1C1C1" stroke-miterlimit="10"/>
<path d="M127.856 152.233C127.856 152.233 134.662 145.233 139.57 130.013C139.57 130.013 143.475 115.458 151.618 108.571C151.618 108.571 156.638 104.128 167.794 102.46" stroke="#C1C1C1" stroke-miterlimit="10"/>
<path d="M126.71 151.161C126.71 151.161 134.334 158.466 137.785 185.537C137.785 185.537 144.978 211.892 146.847 214.469" stroke="#C1C1C1" stroke-miterlimit="10"/>
<path d="M146.403 213.804C146.403 213.804 152.395 220.534 156.093 230.055L170.626 263.066" stroke="#C1C1C1" stroke-miterlimit="10"/>
<path d="M123.003 249.489V267.63" stroke="#C1C1C1" stroke-miterlimit="10"/>
<path d="M158.637 193.262C158.637 193.262 151.062 205.536 149.819 210.828C149.819 210.828 149.819 214.319 140.207 222.087C140.207 222.087 128.109 230.645 122.909 249.901" stroke="#C1C1C1" stroke-miterlimit="10"/>
<path d="M147.458 113.475C147.458 113.475 156.173 115.152 162.906 123.927L192.911 156.863" stroke="#C1C1C1" stroke-miterlimit="10"/>
<path d="M135.982 138.45C135.982 138.45 145.564 146.721 172.554 134.519" stroke="#C1C1C1" stroke-miterlimit="10"/>
<path d="M146.717 141.23C146.717 141.23 153.529 131.282 162.611 123.368" stroke="#C1C1C1" stroke-miterlimit="10"/>
<path d="M172.521 134.989C172.521 134.989 167.602 148.759 166.82 152.095" stroke="#C1C1C1" stroke-miterlimit="10"/>
<path d="M125.185 110.877L147.458 113.474" stroke="#C1C1C1" stroke-miterlimit="10"/>
<path d="M183.236 190.212C183.236 190.212 187.959 193.954 191.287 194.595C191.287 194.595 198.481 195.237 198.588 190.212C198.588 190.212 199.286 184.118 203.257 183.798C203.257 183.798 208.893 184.28 209.805 188.823" stroke="#C1C1C1" stroke-miterlimit="10"/>
<path d="M207.991 238.405C207.991 238.405 218.06 243.651 224.334 243.143" stroke="#C1C1C1" stroke-miterlimit="10"/>
<path d="M129.76 281.031C129.76 281.031 142.659 289.267 146.408 297.779C146.408 297.779 151.913 308.369 156.038 324.028C156.038 324.028 163.01 346.981 167.892 352.167" stroke="#C1C1C1" stroke-miterlimit="10"/>
<path d="M146.315 338.648C146.315 338.648 154.48 331.442 160.79 337.818" stroke="#C1C1C1" stroke-miterlimit="10"/>
<path d="M155.05 335.1C155.05 335.1 157.263 387.013 154.509 401.654C154.509 401.654 152.893 415.468 151.357 417.329" stroke="#C1C1C1" stroke-miterlimit="10"/>
<path d="M179.289 418.952C179.289 418.952 170.589 431.823 168.539 442.255C168.539 442.255 164.9 454.97 165.075 467.606C165.075 467.606 163.213 470.994 160.02 469.899C160.02 469.899 156.685 467.492 156.815 464.73" stroke="#C1C1C1" stroke-miterlimit="10"/>
<path d="M155.867 378.447C155.867 378.447 167.476 427.953 171.921 432.274" stroke="#C1C1C1" stroke-miterlimit="10"/>
<path d="M141.333 290.629L144.686 309.792L146.403 316.808C146.403 316.808 147.347 328.013 147.949 330.242C148.55 332.462 145.2 346.151 138.242 352.825" stroke="#C1C1C1" stroke-miterlimit="10"/>
</g>
<mask id="mask2_845_64983" style="mask-type:luminance" maskUnits="userSpaceOnUse" x="-6" y="-5" width="258" height="548">
<path d="M251.126 -5H-5.40552V542.432H251.126V-5Z" fill="white"/>
</mask>
<g mask="url(#mask2_845_64983)">
<path d="M122.219 83.612L100.475 94.9039" stroke="#C1C1C1" stroke-miterlimit="10"/>
<path d="M126.605 155.153C126.605 155.153 127.698 161.395 123.107 162.485C123.107 162.485 118.659 162.994 119.462 155.153" stroke="#C1C1C1" stroke-miterlimit="10"/>
<path d="M121.938 83.7062L119.474 155.227" stroke="#C1C1C1" stroke-miterlimit="10"/>
<path d="M121.007 110.751L93.8794 97.7715" stroke="#C1C1C1" stroke-miterlimit="10"/>
<path d="M118.241 152.233C118.241 152.233 111.688 145.493 106.96 130.835C106.96 130.835 103.2 116.819 95.358 110.188C95.358 110.188 90.5235 105.909 79.7803 104.304" stroke="#C1C1C1" stroke-miterlimit="10"/>
<path d="M119.386 151.161C119.386 151.161 111.762 158.466 108.312 185.537C108.312 185.537 101.119 211.892 99.25 214.469" stroke="#C1C1C1" stroke-miterlimit="10"/>
<path d="M99.6925 213.804C99.6925 213.804 93.7003 220.534 90.0033 230.055L75.4695 263.066" stroke="#C1C1C1" stroke-miterlimit="10"/>
<path d="M123.094 249.489V267.63" stroke="#C1C1C1" stroke-miterlimit="10"/>
<path d="M86.2466 191.34C86.2466 191.34 94.0777 204.031 95.366 209.502C95.366 209.502 95.366 213.111 105.302 221.143C105.302 221.143 117.81 229.991 123.188 249.899" stroke="#C1C1C1" stroke-miterlimit="10"/>
<path d="M96.439 113.475C96.439 113.475 87.7239 115.152 80.9908 123.927L50.9863 156.863" stroke="#C1C1C1" stroke-miterlimit="10"/>
<path d="M110.115 138.45C110.115 138.45 100.531 146.721 73.5427 134.519" stroke="#C1C1C1" stroke-miterlimit="10"/>
<path d="M99.3783 141.23C99.3783 141.23 92.2172 130.773 82.6699 122.453" stroke="#C1C1C1" stroke-miterlimit="10"/>
<path d="M73.5427 134.895C73.5427 134.895 78.4898 148.741 79.2758 152.095" stroke="#C1C1C1" stroke-miterlimit="10"/>
<path d="M120.912 110.877L98.6372 113.474" stroke="#C1C1C1" stroke-miterlimit="10"/>
<path d="M64.6914 190.071C64.6914 190.071 59.5236 194.166 55.8817 194.867C55.8817 194.867 48.0101 195.569 47.893 190.071C47.893 190.071 47.1295 183.403 42.7826 183.052C42.7826 183.052 36.6148 183.578 35.616 188.55" stroke="#C1C1C1" stroke-miterlimit="10"/>
<path d="M34.4402 238.404C34.1767 238.542 22.6801 243.515 18.0979 243.143" stroke="#C1C1C1" stroke-miterlimit="10"/>
<path d="M111.939 281.031C111.939 281.031 97.8276 290.04 93.7252 299.356C93.7252 299.356 87.7004 310.94 83.1869 328.075C83.1869 328.075 75.5585 353.19 70.2173 358.862" stroke="#C1C1C1" stroke-miterlimit="10"/>
<path d="M95.33 338.784C88.777 333.002 81.0574 337.025 80.1746 337.917" stroke="#C1C1C1" stroke-miterlimit="10"/>
<path d="M86.1733 335.905C86.1733 335.905 84.0618 385.412 86.688 399.371C86.688 399.371 88.2296 412.546 89.6958 414.32" stroke="#C1C1C1" stroke-miterlimit="10"/>
<path d="M59.9651 433.4C59.9651 433.398 66.2095 442.632 67.6802 450.119C67.6802 450.119 70.2905 459.244 70.1655 468.315C70.1655 468.315 71.5034 470.744 73.7939 469.96C73.7939 469.96 76.1881 468.232 76.0935 466.249" stroke="#C1C1C1" stroke-miterlimit="10"/>
<path d="M85.098 380.637C85.098 380.637 71.4032 439.04 66.1599 444.137" stroke="#C1C1C1" stroke-miterlimit="10"/>
<path d="M100.365 290.629L97.0134 309.792L95.296 316.808C95.296 316.808 94.3512 328.013 93.7487 330.242C93.1485 332.462 96.4987 346.151 103.457 352.825" stroke="#C1C1C1" stroke-miterlimit="10"/>
</g>
<mask id="mask3_845_64983" style="mask-type:luminance" maskUnits="userSpaceOnUse" x="-6" y="-5" width="258" height="548">
<path d="M251.126 -5H-5.40552V542.432H251.126V-5Z" fill="white"/>
</mask>
<g mask="url(#mask3_845_64983)">
<path d="M135.93 80.1018C132.964 89.4671 144.129 95.3245 151.152 98.2806C155.572 100.142 160.199 101.743 164.967 102.392C168.444 102.864 172.016 103.066 175.307 104.385C178.328 105.594 180.991 107.749 183.16 110.145C188.051 115.547 188.712 122.179 188.455 129.18C188.311 133.096 187.964 137.018 188.158 140.939C188.348 144.706 189.17 148.331 190.531 151.846C191.832 155.205 193.511 158.397 195.146 161.604C196.753 164.758 198.537 167.988 199.387 171.446C199.806 173.146 200.039 174.905 200.661 176.551C201.287 178.205 202.36 179.636 203.484 180.985C205.742 183.696 208.066 186.193 209.839 189.27C213.621 195.844 214.966 203.214 216.066 210.619C216.665 214.642 217.527 218.425 218.909 222.257C220.326 226.181 221.875 230.054 222.562 234.188C222.589 234.358 223.554 234.152 223.518 233.932C222.337 226.819 218.585 220.442 217.459 213.313C216.418 206.728 215.671 200.047 213.138 193.818C211.852 190.657 210.177 187.562 208.037 184.894C205.932 182.271 203.19 179.942 201.824 176.81C201.125 175.208 200.862 173.458 200.476 171.765C200.078 170.017 199.463 168.394 198.732 166.757C197.26 163.462 195.52 160.296 193.929 157.06C192.342 153.828 190.888 150.507 190.013 147.005C189.072 143.226 188.978 139.343 189.112 135.473C189.355 128.457 190.543 120.796 187.194 114.296C184.463 109 179.289 104.629 173.477 103.203C170.203 102.399 166.807 102.299 163.499 101.684C161.105 101.238 158.776 100.469 156.481 99.6645C148.654 96.9214 133.436 90.7747 136.871 79.9246C136.921 79.771 136.003 79.8686 135.93 80.1018Z" fill="#5B5B5B"/>
<path d="M167.145 149.186C165.288 155.502 167.576 161.757 170.69 167.269C172.285 170.089 174.115 172.767 175.915 175.459C177.861 178.365 180.182 181.187 181.258 184.561C182.408 188.168 182.186 192.048 183.221 195.684C184.261 199.323 185.703 202.91 187.196 206.385C189.997 212.91 193.615 218.837 197.894 224.495C202.633 230.76 207.553 236.933 210.027 244.499C210.15 244.882 211.102 244.616 210.982 244.243C208.926 237.951 205.195 232.554 201.231 227.321C196.797 221.476 192.587 215.691 189.45 209.022C187.922 205.771 186.591 202.428 185.392 199.044C184.785 197.33 184.155 195.614 183.793 193.831C183.384 191.819 183.251 189.767 182.949 187.738C181.974 181.174 177.444 176.188 173.949 170.769C169.831 164.388 165.82 156.861 168.105 149.086C168.221 148.696 167.252 148.82 167.145 149.186Z" fill="#5B5B5B"/>
<path d="M209.838 244.767C211.01 245.955 211.007 248.181 211.079 249.731C211.155 251.45 211.08 253.166 211.11 254.887C211.153 257.419 211.17 260.006 211.499 262.518C211.869 265.331 212.982 267.83 213.968 270.461C214.765 272.581 215.511 274.878 215.243 277.171C215.049 278.816 214.613 280.439 214.31 282.066C213.965 283.9 212.794 288.166 214.956 289.347C215.189 289.471 216.072 289.115 215.73 288.928C214.448 288.23 214.706 286.01 214.816 284.845C214.984 283.08 215.369 281.343 215.719 279.606C215.956 278.447 216.252 277.257 216.265 276.066C216.292 273.44 215.207 270.902 214.258 268.504C212.382 263.762 212.067 259.051 212.063 253.99C212.062 252.196 212.118 250.401 211.984 248.611C211.878 247.227 211.769 245.464 210.732 244.415C210.528 244.211 209.631 244.558 209.838 244.767Z" fill="#5B5B5B"/>
<path d="M222.267 235.351C222.96 235.989 222.561 237.923 222.694 238.876C222.946 240.668 223.421 242.468 224.027 244.173C225.026 246.988 226.733 249.537 228.949 251.546C231.207 253.59 234.2 255.121 235.554 257.984C236.358 259.683 236.514 261.614 237.302 263.321C238.039 264.925 239.234 266.371 238.723 268.235C238.616 268.614 239.584 268.483 239.681 268.13C240.102 266.606 239.459 265.365 238.755 264.026C237.826 262.259 237.484 260.375 236.819 258.511C235.74 255.489 233.034 253.8 230.656 251.86C228.016 249.701 225.993 246.896 224.893 243.661C224.266 241.818 223.695 239.825 223.57 237.876C223.514 236.985 223.889 235.641 223.152 234.962C222.883 234.717 221.978 235.087 222.267 235.351Z" fill="#5B5B5B"/>
<path d="M231.576 259.643C232.317 261.501 233.585 263.12 234.178 265.038C234.879 267.308 235.019 269.748 235.59 272.054C236.654 276.384 238.954 280.372 239.546 284.825C239.62 285.383 239.884 286.671 239.472 287.169C238.962 287.789 238.181 287.285 237.835 286.871C237.611 286.601 237.429 286.303 237.252 286.001C236.248 284.273 235.536 282.359 234.833 280.495C234.146 278.673 233.37 276.883 232.485 275.148C231.948 274.095 231.331 273.05 230.136 272.704C229.749 272.59 229.008 273.155 229.579 273.319C231.468 273.868 232.492 277.297 233.178 278.944C234.101 281.165 234.86 283.432 235.94 285.588C236.449 286.606 237.179 288.129 238.474 288.297C239.441 288.424 240.234 287.796 240.499 286.906C240.948 285.401 240.347 283.413 239.962 281.978C239.255 279.334 238.126 276.826 237.261 274.235C236.361 271.533 236.013 268.757 235.42 265.986C234.893 263.537 233.448 261.679 232.534 259.387C232.37 258.98 231.421 259.254 231.576 259.643Z" fill="#5B5B5B"/>
<path d="M229.267 273.248C230.661 277.61 230.744 282.167 231.807 286.588C232.127 287.916 232.464 289.24 232.675 290.592C232.811 291.481 233.377 294.751 231.601 293.923C230.392 293.36 229.637 291.451 229.154 290.338C228.588 289.03 228.135 287.675 227.752 286.303C226.518 281.914 225.763 277.428 224.287 273.101C224.16 272.732 223.209 273 223.331 273.358C225.019 278.299 225.703 283.508 227.378 288.443C228.031 290.368 229.429 294.99 232.184 294.747C234.948 294.501 233.581 289.851 233.23 288.276C232.095 283.213 231.809 277.946 230.225 272.992C230.104 272.621 229.152 272.886 229.267 273.248Z" fill="#5B5B5B"/>
<path d="M223.549 274.565C224.362 276.81 224.299 279.451 224.608 281.813C224.928 284.249 225.14 286.691 225.375 289.135C225.43 289.711 226.381 296.398 224.366 295.833C223.515 295.594 223.168 293.77 222.992 293.062C222.485 291.026 222.337 288.918 222.171 286.832C221.971 284.348 221.825 281.862 221.519 279.387C221.276 277.409 221.256 275.276 220.437 273.429C220.261 273.032 219.316 273.311 219.483 273.687C220.489 275.955 220.507 278.887 220.752 281.328C220.991 283.732 221.128 286.14 221.333 288.546C221.52 290.719 221.531 294.454 223.259 296.072C223.838 296.613 224.57 296.668 225.27 296.311C226.712 295.58 226.655 293.765 226.593 292.377C226.469 289.536 226.171 286.675 225.853 283.852C225.68 282.316 225.447 280.79 225.267 279.256C225.073 277.585 225.085 275.907 224.506 274.306C224.358 273.903 223.408 274.171 223.549 274.565Z" fill="#5B5B5B"/>
<path d="M219.593 272.742C219.375 275.589 218.318 278.427 217.784 281.235C217.525 282.593 217.257 283.963 217.1 285.337C217.043 285.82 217.026 286.303 216.96 286.788C216.925 287.109 216.869 287.431 216.795 287.749C216.746 288.346 216.349 288.585 215.6 288.463C215.553 288.15 214.591 288.371 214.644 288.718C214.784 289.609 215.481 289.699 216.245 289.407C217.36 288.984 217.714 288.019 217.88 286.91C218.221 284.634 218.485 282.371 218.932 280.11C219.425 277.622 220.356 275.149 220.548 272.619C220.576 272.243 219.618 272.427 219.593 272.742Z" fill="#5B5B5B"/>
<path d="M235.126 268.252C236.382 269.524 236.073 271.919 237.644 272.939C238.278 273.355 239.155 273.215 239.625 272.611C240.263 271.781 240.017 270.222 239.9 269.28C239.74 268.018 239.476 266.757 239.128 265.531C239.045 265.238 238.088 265.496 238.17 265.787C238.651 267.477 239.07 269.307 239.052 271.069C239.05 271.305 239.087 272.287 238.84 272.445C238.269 272.807 237.7 271.577 237.55 271.249C237.008 270.063 236.972 268.864 236.016 267.897C235.806 267.678 234.905 268.028 235.126 268.252Z" fill="#5B5B5B"/>
<path d="M166.047 152.337C167.727 158.968 164.046 165.777 162.154 171.982C159.968 179.155 158.371 186.545 158.071 194.056C157.459 209.298 163.808 223.365 166.343 238.14C167.653 245.78 168.136 253.58 170.093 261.101C170.167 261.388 171.125 261.138 171.049 260.844C169.334 254.255 168.754 247.442 167.752 240.726C166.641 233.287 164.539 226.085 162.636 218.82C160.723 211.52 159.048 204.109 158.984 196.527C158.918 188.802 160.412 181.101 162.552 173.707C164.512 166.932 168.831 159.291 167.003 152.08C166.93 151.794 165.972 152.041 166.047 152.337Z" fill="#5B5B5B"/>
<path d="M169.659 260.442C172.11 277.531 172.722 294.79 171.56 312.011C171.004 320.259 170.071 328.474 168.896 336.653C168.312 340.723 167.625 344.772 167.376 348.882C167.137 352.848 167.453 356.681 167.859 360.62C168.342 365.322 169.054 369.778 170.689 374.233C172.265 378.533 174.257 382.664 175.945 386.918C176.115 387.352 177.067 387.084 176.901 386.663C173.886 379.066 170.135 371.883 169.163 363.662C168.643 359.257 168.109 354.842 168.27 350.402C168.414 346.399 168.999 342.458 169.585 338.5C172.016 322.125 173.454 305.592 173.057 289.029C172.826 279.375 171.986 269.747 170.615 260.189C170.549 259.738 169.592 259.978 169.659 260.442Z" fill="#5B5B5B"/>
<path d="M175.503 386.478C177.143 388.555 177.606 391.245 177.975 393.796C178.417 396.847 178.846 399.892 179.035 402.972C179.474 410.114 179.241 417.305 178.643 424.431C178.056 431.456 177.484 438.665 176.069 445.578C174.926 451.163 172.403 458.166 174.601 463.762C175.188 465.256 176.037 466.64 176.56 468.161C177.217 470.082 177.117 471.877 176.687 473.844C176.128 476.405 174.084 479.015 174.622 481.713C174.659 481.901 175.622 481.678 175.579 481.458C175.051 478.815 177.078 476.195 177.629 473.672C178.285 470.677 177.807 468.308 176.49 465.561C175.11 462.686 174.643 460.103 174.895 456.909C175.17 453.423 176.025 450.018 176.756 446.608C178.142 440.15 178.727 433.485 179.352 426.918C180.033 419.76 180.358 412.585 180.116 405.396C179.992 401.734 179.559 398.137 179.064 394.51C178.673 391.656 178.3 388.554 176.458 386.222C176.284 385.998 175.441 386.398 175.503 386.478Z" fill="#5B5B5B"/>
<path d="M177.367 472.187C179.779 473.586 180.702 475.477 179.524 478.07C178.67 479.947 177.079 481.503 176.414 483.454C175.572 485.934 176.345 488.59 173.92 490.392C171.869 491.911 168.759 492.416 166.261 492.062C161.525 491.392 161.472 486.924 161.257 483.123C161.107 480.517 160.314 478.103 159.322 475.705C158.278 473.186 156.671 470.385 158.402 467.795C158.671 467.393 157.703 467.421 157.499 467.727C156.161 469.726 156.66 471.838 157.512 473.939C158.439 476.23 159.506 478.459 159.991 480.897C160.671 484.328 159.566 488.934 162.709 491.439C165.239 493.452 169.403 492.974 172.229 491.943C174.046 491.276 175.785 490.143 176.496 488.267C176.856 487.309 176.905 486.275 177.017 485.269C177.169 483.906 177.579 482.798 178.315 481.647C179.374 479.993 180.773 478.235 181.035 476.229C181.318 474.08 179.837 472.676 178.113 471.674C177.796 471.49 176.935 471.932 177.367 472.187Z" fill="#5B5B5B"/>
<path d="M162.386 478.605C161.636 475.705 161.467 472.689 159.732 470.141C158.973 469.029 158.064 468.015 157.707 466.683C157.25 464.975 157.388 463.102 157.679 461.378C158.206 458.253 159.414 455.293 160.038 452.188C160.638 449.198 160.419 446.291 159.704 443.336C158.9 440.009 157.749 436.768 156.818 433.475C155.824 429.966 154.777 426.473 153.762 422.968C151.842 416.334 149.5 409.485 148.742 402.596C148.302 398.595 148.386 394.505 148.159 390.481C147.914 386.137 147.661 381.796 147.654 377.444C147.654 377.164 146.697 377.336 146.697 377.701C146.709 385.128 147.356 392.544 147.586 399.967C147.8 406.875 150.097 413.664 151.961 420.268C153.908 427.163 155.957 434.032 158.007 440.897C159.011 444.25 159.792 447.672 159.281 451.183C158.839 454.232 157.682 457.112 157.003 460.107C156.367 462.915 155.979 466.206 157.591 468.759C158.595 470.344 159.705 471.68 160.252 473.523C160.768 475.273 160.974 477.098 161.43 478.863C161.513 479.178 162.468 478.931 162.386 478.605Z" fill="#5B5B5B"/>
<path d="M124.965 275.097C124.114 276.37 124.471 278.676 124.536 280.105C124.641 282.315 124.846 284.527 125.061 286.733C125.832 294.677 128.472 302.095 130.686 309.705C132.866 317.198 134.53 324.828 135.801 332.526C136.431 336.35 137.065 340.208 137.401 344.069C137.743 348.027 137.698 352.029 138.448 355.943C139.231 360.048 141.44 363.612 142.735 367.546C143.365 369.458 143.825 371.438 144.552 373.317C145.278 375.192 146.474 376.806 146.92 378.798C146.984 379.091 147.944 378.852 147.875 378.541C147.513 376.927 146.681 375.574 145.968 374.105C145.154 372.43 144.708 370.592 144.169 368.813C143.109 365.332 141.386 362.161 140.202 358.736C138.991 355.229 138.818 351.455 138.616 347.781C138.401 343.891 137.946 340.058 137.374 336.203C136.261 328.705 134.81 321.254 132.882 313.919C130.901 306.393 128.088 299.099 126.711 291.419C126.17 288.411 125.898 285.369 125.655 282.325C125.55 280.963 125.455 279.593 125.444 278.225C125.437 277.308 125.301 275.908 125.849 275.093C126.073 274.755 125.123 274.856 124.965 275.097Z" fill="#5B5B5B"/>
<path d="M122.289 267.76C123.009 269.757 122.923 271.929 123.571 273.947C124.151 275.758 125.135 277.433 126.426 278.83C128.906 281.511 132.271 283.042 135.801 283.8C136.297 283.91 136.753 283.202 136.12 283.067C132.505 282.287 129.019 280.607 126.674 277.673C125.566 276.287 124.748 274.675 124.316 272.954C123.864 271.153 123.876 269.264 123.244 267.505C123.079 267.045 122.126 267.309 122.289 267.76Z" fill="#5B5B5B"/>
<path d="M106.002 283.661C110.864 285.124 115.678 282.562 118.973 279.058C120.987 276.916 122.454 274.274 123.204 271.434C123.485 270.37 124.182 268.128 123.313 267.198C122.998 266.86 122.097 267.262 122.441 267.63C123.215 268.456 122.401 270.956 122.109 271.897C121.424 274.112 120.35 276.186 118.859 277.965C115.927 281.463 111.239 284.398 106.547 282.986C106.108 282.853 105.421 283.486 106.002 283.661Z" fill="#5B5B5B"/>
<path d="M119.76 276.978C120.347 278.125 120.137 279.455 119.996 280.689C119.851 281.953 119.782 283.217 119.726 284.487C119.583 287.832 119.369 291.129 118.882 294.443C117.909 301.049 116.355 307.56 114.421 313.951C113.453 317.152 112.464 320.376 111.317 323.519C110.224 326.522 108.892 329.397 108.01 332.479C107.125 335.574 105.843 338.498 105.213 341.667C104.549 345.006 104.011 348.366 103.486 351.73C103.421 352.144 104.389 351.992 104.448 351.627C105.007 348.044 105.564 344.452 106.307 340.899C106.96 337.774 108.248 334.83 109.135 331.769C110.023 328.701 111.438 325.827 112.491 322.82C113.603 319.646 114.615 316.424 115.575 313.202C117.482 306.807 119.002 300.288 119.938 293.678C120.406 290.364 120.561 287.061 120.717 283.72C120.815 281.631 121.717 278.678 120.716 276.722C120.532 276.364 119.597 276.659 119.76 276.978Z" fill="#5B5B5B"/>
<path d="M103.632 351.619C102.851 352.936 102.772 354.429 102.462 355.896C101.998 358.089 100.796 359.973 99.7409 361.922C97.679 365.73 95.4425 369.593 93.9695 373.677C92.5213 377.692 92.3997 381.982 92.3851 386.201C92.3671 391.134 92.0202 395.988 91.3198 400.87C90.6711 405.413 89.9448 409.968 88.7499 414.404C87.581 418.738 85.67 422.749 84.1486 426.956C83.4403 428.914 82.7668 430.89 81.9718 432.818C81.0315 435.098 79.7871 437.212 78.697 439.418C76.9864 442.879 75.6486 446.537 75.0619 450.361C74.768 452.273 74.6621 454.212 74.7387 456.141C74.8367 458.627 75.4391 461.05 75.5236 463.534C75.6159 466.217 75.1576 468.729 74.1587 471.207C73.3682 473.169 72.59 475.012 72.5923 477.158C72.5934 477.439 73.5495 477.264 73.5484 476.904C73.5461 474.803 74.3434 472.992 75.1126 471.082C75.9549 468.993 76.4279 466.888 76.4876 464.627C76.5923 460.539 75.4403 456.607 75.7556 452.489C76.4076 444.006 81.331 437.266 84.152 429.481C85.6238 425.422 87.4391 421.465 88.7849 417.363C90.1689 413.144 91.0011 408.794 91.7105 404.421C92.4515 399.85 93.0844 395.243 93.2792 390.611C93.4605 386.245 93.134 381.854 93.8896 377.528C94.7837 372.396 97.5078 367.86 99.902 363.31C100.869 361.472 102.015 359.688 102.801 357.76C103.604 355.798 103.431 353.46 104.519 351.627C104.741 351.256 103.787 351.361 103.632 351.619Z" fill="#5B5B5B"/>
<path d="M57.2218 483.886C57.4684 481.737 58.9155 480.035 58.9977 477.817C59.0833 475.553 58.5078 473.315 58.1317 471.101C57.3175 466.3 57.0878 461.797 59.6632 457.46C59.8929 457.074 58.9346 457.159 58.7713 457.436C56.4988 461.265 56.2623 465.296 56.8952 469.616C57.2556 472.076 57.938 474.543 58.0382 477.033C58.0911 478.358 57.9121 479.538 57.3975 480.751C56.938 481.836 56.4008 482.817 56.2646 484.004C56.2218 484.387 57.1835 484.216 57.2218 483.886Z" fill="#5B5B5B"/>
<path d="M56.5248 486.545C55.3491 485.403 55.1734 483.921 55.0777 482.368C54.982 480.819 54.518 479.592 54.0338 478.134C52.9336 474.82 53.3705 471.309 56.9437 469.866C57.5552 469.618 57.0079 469.199 56.5439 469.386C53.4617 470.631 52.1081 473.283 52.6183 476.542C52.9043 478.373 53.893 479.993 54.0743 481.84C54.2579 483.718 54.1903 485.533 55.643 486.942C55.9178 487.205 56.8232 486.831 56.5248 486.545Z" fill="#5B5B5B"/>
<path d="M75.3974 468.273C75.9818 469.344 77.0235 470.054 77.6327 471.1C78.5179 472.627 78.0719 474.304 77.1654 475.704C76.3016 477.032 75.3005 478.1 74.7566 479.616C74.2138 481.127 74.0415 482.732 73.6507 484.281C72.5888 488.488 69.3298 490.513 65.1012 490.768C63.3805 490.872 61.3557 490.929 59.8118 490.063C58.2994 489.215 57.7419 487.533 56.8928 486.12C56.7318 485.851 55.8298 486.194 55.9368 486.375C56.805 487.82 57.3805 489.553 58.9165 490.442C60.3365 491.263 62.1631 491.261 63.7577 491.244C66.769 491.209 70.1609 490.523 72.3895 488.348C75.4964 485.31 74.6158 480.349 77.1338 476.92C78.1811 475.494 79.3692 473.987 79.0483 472.096C78.751 470.342 77.1541 469.481 76.3523 468.017C76.2048 467.747 75.2915 468.08 75.3974 468.273Z" fill="#5B5B5B"/>
<path d="M59.2083 457.907C59.3603 455.984 60.1385 454.168 60.4076 452.254C60.7106 450.108 60.8716 447.926 61.0338 445.764C61.3581 441.449 61.3513 437.114 60.7793 432.819C59.5563 423.661 59.5045 414.446 58.8401 405.238C58.2027 396.42 58.9437 387.886 61.7353 379.46C64.3074 371.693 68.6103 364.778 71.8626 357.314C75.304 349.418 77.8525 340.717 76.1869 332.076C76.0991 331.621 75.1419 331.865 75.2308 332.331C78.4775 349.183 66.4639 363.18 61.2207 378.155C58.4572 386.042 57.2556 394.23 57.6948 402.575C57.929 407.012 58.4482 411.432 58.554 415.878C58.652 420.064 58.7612 424.226 59.2106 428.392C59.768 433.565 60.4617 438.566 60.1948 443.792C60.0642 446.317 59.848 448.861 59.5574 451.373C59.2984 453.613 58.4166 455.738 58.2387 457.972C58.1982 458.479 59.1734 458.355 59.2083 457.907Z" fill="#5B5B5B"/>
<path d="M77.2105 148.497C78.8152 154.497 80.536 160.477 81.7285 166.577C82.9177 172.66 83.7848 178.867 84.7038 185C85.1497 187.983 85.4785 190.994 85.4538 194.014C85.4267 197.286 84.8896 200.521 84.3119 203.734C83.2184 209.819 81.7375 215.824 80.3569 221.847C78.9785 227.861 77.6981 233.91 77.0067 240.045C76.3243 246.128 76.1778 252.234 75.3276 258.307C73.6351 270.393 70.8693 282.371 70.6294 294.62C70.4943 301.555 71.7769 308.254 73.2195 315.008C73.9087 318.234 74.5979 321.465 75.0833 324.733C75.6137 328.299 75.7184 331.862 75.8896 335.458C75.9008 335.681 76.8603 335.513 76.8456 335.203C76.5517 328.989 75.9211 323.033 74.6407 316.936C73.3918 310.991 71.9808 305.046 71.6452 298.96C70.956 286.46 73.8468 273.984 75.751 261.705C76.6767 255.733 77.1857 249.788 77.6024 243.766C78.0337 237.501 79.1778 231.308 80.5224 225.179C81.8456 219.151 83.3614 213.165 84.5844 207.115C85.7848 201.179 86.7544 195.304 86.2105 189.235C85.9042 185.791 85.2848 182.385 84.697 178.982C84.099 175.524 83.6947 172.04 83.1013 168.584C81.9177 161.7 79.9684 154.983 78.1666 148.244C78.0968 147.981 77.1396 148.233 77.2105 148.497Z" fill="#5B5B5B"/>
<path d="M108.211 76.1565C108.075 79.1912 108.461 82.5331 107.732 85.5016C106.875 88.9927 104.026 90.9485 101.218 92.8674C94.6869 97.3341 87.7319 101.073 80.1756 103.491C74.804 105.21 69.2781 106.92 64.5551 110.09C59.4538 113.513 56.3535 118.54 55.2905 124.569C53.8119 132.956 55.8851 141.564 53.786 149.888C53.6711 150.342 54.6486 150.23 54.7533 149.814C56.6283 142.384 55.197 134.753 55.8975 127.218C56.563 120.056 59.6362 114.028 65.786 110.131C71.197 106.702 77.4639 105.272 83.4132 103.101C90.2747 100.596 96.6418 96.9192 102.624 92.7631C105.091 91.0472 107.509 89.189 108.477 86.2238C109.51 83.0647 109.033 79.3549 109.177 76.0825C109.199 75.5891 108.229 75.7292 108.211 76.1565Z" fill="#5B5B5B"/>
<path d="M53.6226 149.892C52.8163 153.284 50.6553 156.091 49.1744 159.193C47.7453 162.186 47.2217 165.447 46.6406 168.681C46.0877 171.756 45.1598 174.655 43.3872 177.256C41.5224 179.99 39.0201 182.258 36.912 184.802C32.6969 189.885 30.3884 195.936 28.3906 202.161C26.1992 208.994 24.6158 216.002 22.9526 222.974C21.9863 227.028 21.0291 231.085 20.0235 235.13C19.1035 238.836 18.0674 242.653 15.6147 245.677C15.2397 246.139 16.1508 246.236 16.4053 245.922C20.4672 240.913 21.3399 233.692 22.7904 227.618C24.5044 220.44 26.0956 213.221 28.1294 206.124C30.1339 199.134 32.3917 191.744 36.9627 185.961C40.7116 181.217 45.3444 177.457 47.0032 171.413C48.0573 167.572 48.1935 163.561 49.8129 159.867C51.3073 156.457 53.7161 153.478 54.5888 149.807C54.689 149.374 53.7161 149.5 53.6226 149.892Z" fill="#5B5B5B"/>
<path d="M78.1991 152.044C76.4367 159.522 73.332 166.601 69.7543 173.379C68.0944 176.524 66.4232 179.613 65.3962 183.036C64.2915 186.71 64.6225 190.512 63.6924 194.19C61.9885 200.933 58.6676 207.856 54.3939 213.344C49.805 219.235 46.2385 225.839 40.8748 231.104C38.368 233.563 35.3196 235.845 33.7644 239.07C32.2757 242.15 31.9176 245.627 31.5268 248.981C31.4795 249.382 32.4446 249.215 32.4852 248.87C32.8523 245.725 33.1822 242.487 34.4638 239.555C35.9097 236.247 38.8917 233.971 41.4232 231.504C43.9649 229.026 46.1845 226.39 48.189 223.461C50.2205 220.494 52.0978 217.419 54.3264 214.589C58.5719 209.2 61.4536 203.296 63.7701 196.868C64.4086 195.096 64.9176 193.31 65.1124 191.43C65.323 189.408 65.3207 187.397 65.7307 185.397C66.4987 181.643 68.0899 178.181 69.8984 174.827C73.8117 167.568 77.2633 159.987 79.1597 151.933C79.2464 151.56 78.2813 151.7 78.1991 152.044Z" fill="#5B5B5B"/>
<path d="M31.4683 248.255C31.4367 250.889 31.1248 253.509 31.1214 256.141C31.1192 258.659 31.3264 261.114 30.7701 263.597C30.2825 265.774 29.4525 267.853 28.8478 269.997C28.1811 272.366 28.0156 274.7 28.0122 277.153C28.0099 279.226 27.9773 281.31 28.2104 283.374C28.3388 284.5 28.5471 285.693 28.3725 286.826C28.2903 287.352 28.0629 288.666 27.234 288.534C26.9514 288.49 26.4818 287.793 26.3241 287.555C25.1597 285.789 25.0392 283.319 24.8714 281.274C24.6597 278.698 24.5561 276.149 23.8511 273.647C23.7352 273.24 22.7802 273.494 22.8951 273.904C23.7171 276.825 23.6991 279.815 24.0336 282.806C24.2532 284.771 24.5088 287.43 26.1608 288.808C26.8207 289.36 27.6102 289.489 28.3196 288.946C29.8759 287.754 29.3804 285.041 29.1969 283.387C28.8692 280.434 28.8782 277.364 29.0313 274.395C29.1743 271.623 30.0752 269.057 30.9086 266.431C31.8376 263.507 32.1912 260.773 32.1147 257.707C32.0347 254.519 32.3917 251.355 32.43 248.17C32.439 247.7 31.4728 247.86 31.4683 248.255Z" fill="#5B5B5B"/>
<path d="M10.9098 255.061C10.0325 257.833 9.38499 260.673 9.16314 263.577C8.95931 266.264 8.96945 269.006 8.40638 271.655C7.64963 275.208 5.80278 278.784 5.87485 282.498C5.92328 284.949 8.17328 285.251 9.4976 283.365C10.4312 282.037 10.858 280.327 11.2938 278.789C12.1406 275.802 12.8422 272.82 14.3703 270.081C14.6158 269.644 13.6508 269.68 13.4661 270.009C11.4424 273.634 10.9875 277.708 9.49084 281.521C9.25211 282.13 8.93904 283.05 8.44017 283.493C7.55729 284.281 6.97508 283.681 6.85796 282.801C6.66877 281.388 7.11134 279.806 7.44129 278.444C8.25098 275.102 9.45368 271.927 9.78927 268.483C10.242 263.844 10.4537 259.459 11.8715 254.97C11.9987 254.571 11.0269 254.687 10.9098 255.061Z" fill="#5B5B5B"/>
<path d="M13.5777 270.341C13.1453 270.954 13.0619 271.666 12.9178 272.387C12.7207 273.365 12.4032 274.3 12.0957 275.248C11.4032 277.385 10.8975 279.527 10.5755 281.751C10.2984 283.663 9.4482 290.035 12.786 289.943C15.2399 289.873 15.8514 285.659 16.1903 283.909C17.0056 279.71 16.8322 275.241 19.2095 271.507C19.473 271.094 18.5045 271.126 18.3063 271.439C16.6655 274.014 16.1869 276.978 15.8086 279.957C15.6149 281.485 15.4471 283.021 15.1216 284.526C14.8671 285.693 14.5372 287.573 13.8029 288.565C13.6836 288.736 13.5619 288.907 13.4414 289.078C12.9324 288.871 12.4246 288.668 11.9144 288.462C11.75 288.298 11.6667 287.791 11.6036 287.575C11.3401 286.651 11.2737 285.684 11.2737 284.727C11.2748 283.162 11.5304 281.602 11.8018 280.062C12.1149 278.277 12.5991 276.581 13.1554 274.855C13.58 273.541 13.6948 271.523 14.482 270.411C14.759 270.017 13.7894 270.042 13.5777 270.341Z" fill="#5B5B5B"/>
<path d="M18.0562 271.742C18.1091 274.365 17.323 276.998 17.1102 279.616C16.9244 281.887 16.885 284.182 17.0201 286.459C17.1046 287.879 17.5652 293.036 20.2465 291.766C22.0719 290.901 22.5314 287.501 22.8692 285.791C23.1395 284.417 23.2442 283.063 23.3309 281.664C23.4953 278.993 23.4368 275.997 24.0764 273.4C24.1755 272.996 23.2059 273.13 23.1147 273.498C22.6429 275.415 22.6553 277.584 22.5089 279.554C22.3861 281.188 22.3703 282.84 22.1519 284.467C21.8895 286.421 21.4908 288.673 20.5212 290.405C20.2825 290.833 20.0753 291.332 19.5528 291.233C18.9785 291.125 18.5922 289.886 18.4537 289.433C17.983 287.891 17.9537 286.211 17.921 284.614C17.8749 282.345 17.9841 280.082 18.2375 277.824C18.4683 275.76 19.0584 273.726 19.0167 271.644C19.0089 271.198 18.0483 271.378 18.0562 271.742Z" fill="#5B5B5B"/>
<path d="M8.64293 265.834C7.69135 267.04 6.44811 266.371 6.12716 265.392C5.9177 264.75 6.19811 263.982 6.47401 263.421C6.83775 262.682 7.38842 262.054 7.83324 261.367C8.95374 259.644 9.22176 257.616 9.60126 255.633C10.4841 251.028 14.188 248.372 17.0618 244.933C17.4425 244.477 16.5281 244.381 16.2724 244.688C14.3366 247.005 11.8332 249.029 10.1722 251.548C8.34113 254.32 8.86252 257.811 7.30622 260.663C6.44811 262.237 3.91883 264.632 5.66207 266.471C6.76793 267.636 8.52469 267.227 9.43347 266.075C9.80171 265.612 8.8918 265.519 8.64293 265.834Z" fill="#5B5B5B"/>
<path d="M106.598 70.3631C103.414 70.6266 103.335 65.0597 102.771 62.9783C102.061 60.3597 99.3905 55.395 103.273 54.038C103.836 53.8429 103.691 53.2339 103.112 53.4358C98.5764 55.0193 100.773 59.6722 101.745 62.9895C102.525 65.6574 102.457 71.3466 106.5 71.0124C107.019 70.9687 107.253 70.3081 106.598 70.3631Z" fill="#5B5B5B"/>
<path d="M105.551 62.4243C105.609 60.695 105.024 59.0621 104.679 57.3844C104.198 55.0585 103.825 52.7091 103.717 50.3327C103.566 47.0435 103.787 43.641 104.913 40.5211C107.612 33.0432 115.499 30.114 122.93 30.031C126.231 29.9951 129.475 30.4919 132.573 31.6369C135.432 32.6933 138.535 34.223 140.153 36.9223C143.796 42.9939 142.185 51.0213 141.03 57.5695C140.283 61.7985 139.991 66.0096 139.621 70.2834C139.42 72.5779 139.135 74.8792 138.543 77.1098C137.964 79.2843 136.793 81.2266 136.244 83.3944C136.127 83.8609 137.107 83.7544 137.215 83.326C137.759 81.1661 138.938 79.2136 139.512 77.0413C140.099 74.8063 140.39 72.5107 140.59 70.2139C140.955 66.0264 141.224 61.8949 141.955 57.7478C143.149 50.982 144.794 42.7775 141.027 36.4984C139.42 33.8159 136.4 32.2548 133.571 31.1524C130.569 29.9816 127.439 29.4063 124.217 29.3267C117.492 29.1585 109.65 31.102 105.699 37.0064C103.608 40.1297 102.845 43.9281 102.725 47.63C102.652 49.8841 102.809 52.1405 103.136 54.37C103.525 56.9998 104.671 59.8382 104.58 62.4927C104.564 62.9973 105.534 62.8661 105.551 62.4243Z" fill="#5B5B5B"/>
<path d="M104.093 60.2812C104.341 63.9876 105.07 67.6245 105.586 71.2972C105.999 74.2366 106.393 77.2533 108.088 79.7698C108.293 80.0726 109.215 79.7396 108.97 79.3773C107.213 76.7688 106.906 73.5749 106.472 70.5414C105.971 67.0368 105.286 63.5648 105.049 60.0266C105.025 59.6655 104.065 59.8752 104.093 60.2812Z" fill="#5B5B5B"/>
<path d="M142.476 54.8881C144.368 53.5479 144.41 56.7811 144.356 57.3183C144.285 57.9844 144.078 58.6405 143.885 59.2797C143.537 60.4326 143.201 61.5439 142.994 62.7316C142.508 65.5128 142.152 68.4005 139.971 70.4259C139.556 70.8117 140.493 70.8576 140.746 70.621C143.773 67.8106 143.46 63.5592 144.616 59.8954C145.093 58.3769 145.904 56.3404 144.91 54.8488C144.13 53.6791 142.889 53.8362 141.87 54.5595C141.343 54.9318 142.147 55.1202 142.476 54.8881Z" fill="#5B5B5B"/>
</g>
</g>
<defs>
<clipPath id="clip0_845_64983">
<rect width="250" height="554" fill="white" transform="translate(0 -5)"/>
</clipPath>
</defs>
</svg>
