<svg width="221" height="491" viewBox="0 0 221 491" fill="none" xmlns="http://www.w3.org/2000/svg">
<mask id="mask0_845_63091" style="mask-type:luminance" maskUnits="userSpaceOnUse" x="0" y="0" width="221" height="491">
<path d="M220.187 0.700001H0V491H220.187V0.700001Z" fill="white"/>
</mask>
<g mask="url(#mask0_845_63091)">
<path d="M118.425 15.005C118.425 15.005 125.276 17.188 127.82 19.949C127.82 19.949 131.838 22.842 133.421 26.742C133.421 26.742 135.93 31.657 135.822 35.359L134.926 43.85C134.926 43.85 134.437 47.798 134.518 48.329C134.518 48.329 134.724 50.495 134.81 51.271C134.81 51.271 134.895 53.982 134.01 55.991C134.01 55.991 133.044 60.251 132.388 61.364C132.388 61.364 131.328 63.778 129.953 64.171C129.953 64.171 127.489 65.046 126.943 64.695C126.943 64.695 126.529 67.46 126.129 69.51L125.276 74.613L124.788 80.192L124.298 84.564L124.311 85.981L124.85 86.877C124.85 86.877 125.288 88.89 126.058 89.992C126.058 89.992 127.644 91.808 129.979 93.121L138.54 97.659L147.426 101.927C147.426 101.927 151.986 103.798 153.947 104.025C153.947 104.025 158.236 104.986 160.18 106.884C160.18 106.884 164.359 109.634 164.686 113.483L165.311 120.604L165.632 126.039L165.521 131.348L164.832 137.197L164.019 140.968L163.761 146.574L164.106 150.588L165.084 155.616L165.918 162.582L166.713 168.786L167.322 173.541L168.781 179.447L170.405 183.848C170.405 183.848 172.466 187.547 172.835 188.375L174.264 192.349C174.264 192.349 174.762 194.121 175.065 196.797C175.065 196.797 176.735 202.824 176.719 204.987C176.719 204.987 177.141 211.725 176.965 213.752C176.965 213.752 177.523 218.109 178.084 220.007C178.084 220.007 179.589 224.703 179.816 225.795L181.276 229.93L182.236 232.665C182.236 232.665 182.249 234.915 184.177 235.852C184.177 235.852 190.422 238.256 190.682 238.602C190.682 238.602 195.427 240.025 195.642 241.017L198.594 245.296C198.594 245.296 201.031 247.978 201.539 248.698C202.048 249.418 203.039 251.407 203.959 251.838C203.959 251.838 206.388 253.181 205.727 253.932C205.727 253.932 205.06 255.786 201.646 255.132C201.646 255.132 198.681 254.153 197.346 252.092C197.346 252.092 196.695 250.657 196.203 250.164C196.203 250.164 194.44 248.014 193.791 247.772C193.791 247.772 193.225 251.416 193.27 252.451L194.003 257.326L195.492 262.649L197.185 267.038L198.512 271.267L199.568 275.317C199.568 275.317 200.402 277.18 199.273 278.988C199.273 278.988 197.098 280.493 196.434 278.142L194.373 272.748C194.373 272.748 192.907 268.977 192.311 268.457C192.311 268.457 191.395 264.479 190.432 263.792C190.432 263.792 188.752 263.007 189.242 264.977C189.242 264.977 190.786 268.461 191.33 269.577C191.33 269.577 192.232 271.606 192.406 273.548C192.406 273.548 193.564 276.725 193.589 279.106C193.589 279.106 194.317 281.463 193.555 282.985C193.555 282.985 192.148 284.852 190.55 283.644L188.713 275.984C188.713 275.984 188.098 273.862 187.404 272.778L185.373 265.826C185.373 265.826 184.652 266.686 185.552 269.362L186.232 275.621L186.936 278.797C186.936 278.797 187.632 280.66 187.409 281.893C187.409 281.893 186.869 283.859 184.634 282.976C184.634 282.976 183.045 280.926 182.009 274.67C182.009 274.67 180.844 270.528 180.801 268.673C180.801 268.673 180.672 265.999 179.983 265.006C179.983 265.006 179.717 267.29 179.29 268.542C178.861 269.795 179.162 268.782 179.162 268.782C179.162 268.782 178.99 273.29 179.205 274.929C179.205 274.929 179.494 277.763 177.667 277.77C177.667 277.77 175.97 277.215 175.236 272.297L175.497 265.317L174.842 261.916L173.337 258.121L170.898 252.918C170.898 252.918 169.197 250.208 168.852 244.944L168.953 240.256L166.534 235.283L163.564 227.627L161.498 221.534L158.498 214.4L155.671 207.96L152.198 200.766C152.198 200.766 151.673 196.365 151.073 195.266C151.073 195.266 150.664 193.291 150.698 191.246C150.698 191.246 149.929 189.343 150.633 184.441C150.633 184.441 150.776 182.601 149.998 179.667L146.806 162.971L146.127 167.807L145.594 176.649L144.941 182.609C144.941 182.609 144.901 186.509 145.594 189.279L146.914 197.509C146.914 197.509 147.918 202.908 147.836 204.855C147.836 204.855 148.21 209.601 148.047 212.194L149.668 220.048C149.668 220.048 150.979 227.27 151.504 228.664C151.504 228.664 153.01 234.494 153.014 236.742C153.014 236.742 153.63 243.306 153.561 245.249C153.561 245.249 153.203 249.72 153.801 252.875C153.801 252.875 155.409 261.419 155.207 263.708C155.207 263.708 155.632 271.514 155.65 273.505L155.493 283.513L155.265 291.54L155.081 297.97L154.571 303.706L153.793 309.658L153.035 316.311L152.371 321.048L151.351 325.844L151.62 334.119L152.018 341.554L152.025 346.158V352.241L153.641 358.43L155.391 365.83L156.834 371.896L157.809 378.636C157.809 378.636 158.018 382.52 157.977 383.904C157.977 383.904 157.983 390.444 157.591 391.814C157.591 391.814 156.726 396 156.618 397.718C156.618 397.718 156.083 404.016 155.669 406.615C155.669 406.615 155.044 411.26 154.613 412.295C154.613 412.295 154.341 415.29 153.742 417.687C153.742 417.687 152.672 422.305 152.153 423.773C152.153 423.773 151.239 428.863 151.247 430.546C151.247 430.546 150.842 435.712 151.481 438.127C151.481 438.127 151.872 440.266 152.723 441.596C152.723 441.596 153.518 443.336 153.051 445.98C153.051 445.98 151.944 448.687 152.069 449.841C152.069 449.841 153.684 451.87 153.836 452.938C153.836 452.938 153.779 455.279 155.147 457.301C155.147 457.301 156.594 460.401 157.502 461.393C157.502 461.393 159.661 463.123 160.38 463.843L161.91 465.81C161.91 465.81 162.733 467.658 162.604 468.303L162.147 471.107C162.147 471.107 161.627 472.571 160.838 472.612L156.209 473.948L152.658 474.695C152.658 474.695 149.746 475.11 148.274 474.53C146.802 473.948 148.077 474.445 148.077 474.445L145.163 475.165L140.149 474.05L138.981 472.024L136.672 469.675C136.672 469.675 136.128 467.332 136.696 464.774L138.065 461.908L137.492 457.034L137.044 454.147L136.626 451.385L136.495 448.467L135.79 445.407L135.186 443.101L135.832 439.718L137.384 435.913L138.066 431.667L138.618 427.741L138.413 423.083L138.017 420.878L137.412 417.648L136.627 415.056L135.725 411.636L135.196 409.01L134.592 405.415L132.959 400.067L131.384 395.861L130.084 392.043L129.103 387.548L129.057 384.826L129.535 381.066L129.835 376.274L129.914 371.871L129.841 368.975L129.259 367.227L126.227 361.623L122.96 354.435L120.728 347.279L120.686 344.824L121.108 335.891L120.997 325.404L120.562 317.641L119.123 307.447L117.887 300.213L116.087 293.048L115.25 286.86L114.708 281.087L114.626 276.418V271.823C114.626 271.823 110.866 273.602 110.553 272.889L105.25 271.498L105.238 276.868L105.09 282.466L104.625 287.267L103.723 293.33L102.164 300.2L101.078 306.702L100.127 312.795L99.3058 317.515L98.8918 322.365V327.51V334.273L98.9998 339.584L99.1988 342.685L99.2838 345.468L98.8908 349.189L96.6618 355.56L93.3698 362.552L90.4308 367.329L89.9728 373.356L90.1878 378.775L90.6688 383.208L90.9038 387.058C90.9038 387.058 90.8418 389.064 90.2038 391.171C89.5658 393.276 90.1018 391.54 90.1018 391.54L87.1698 399.566L85.4238 405.353L84.1288 412.212L82.4198 418.289L81.2838 425.624L81.7928 431.927L82.5008 435.249L83.2418 438.44L84.0238 439.639L84.6718 441.989L84.1278 445.075L83.4278 448.662L83.2408 452.203L82.6998 455.76L82.2548 458.759C82.2548 458.759 81.3338 461.982 82.3808 464.025C83.4268 466.069 83.5908 467.068 83.5908 467.068L83.5038 469.252L82.9918 470.886L80.6788 472.732C80.6788 472.732 80.0638 474.397 78.1218 474.705L73.8298 474.964L72.4628 474.188C72.4628 474.188 70.4688 475.369 68.9968 475.03C68.9968 475.03 66.8928 475.256 66.6098 474.365C66.6098 474.365 63.9028 474.594 63.2628 473.735C63.2628 473.735 61.3618 473.913 61.1018 472.83L58.0488 471.787L57.4128 467.992L58.0758 464.837L61.8938 461.261L63.8998 458.77C63.8998 458.77 65.0478 456.65 65.6148 455.792L66.1048 452.167L67.7398 449.585L66.8048 446.095L66.6908 442.964L68.3678 438.218L68.4088 432.284L68.1718 426.104L66.7748 420.734L65.2268 414.65L63.7578 404.793L62.9598 397.274L61.9858 389.796L61.9948 379.416L62.5678 373.774L64.3848 365.836L66.2668 358.477L67.8608 351.16L67.5848 344.689L67.9748 336.902L68.3278 329.711L67.9838 323.227L66.8448 317.706L65.7718 309.805L64.9728 302.224L64.6008 295.479L64.2478 288.292L64.1878 280.761L64.2208 268.882L65.0938 258.485L66.3688 247.553L66.8038 237.704L69.0108 225.357L70.9908 215.836L71.8688 212.026L71.8038 207.108L73.2418 196.068L74.9098 186.167C74.9098 186.167 75.1168 180.538 74.3278 177.869L73.9288 170.543L73.6738 162.978L71.9238 167.231L70.6108 175.21L69.3728 181.876L69.4458 186.326L69.4468 189.147L69.1598 193.21L67.9688 197.689L66.4078 202.831L62.6818 211.203L58.5928 220.46L55.7438 228.722L53.2708 235.414C53.2708 235.414 51.1498 239.157 50.8268 240.119C50.5018 241.083 50.8268 244.086 50.8268 244.086L50.2708 249.386L47.1788 256.631C47.1788 256.631 44.8838 261.653 44.6868 263.158L44.2978 268.449L44.2698 271.367L43.9838 275.063C43.9838 275.063 43.4178 277.203 42.4618 277.62L40.4578 276.295L40.4998 269.375C40.4998 269.375 39.5528 267.461 40.3028 264.205L38.9948 268.781L38.1468 272.664L37.1718 277.518L36.1828 281.716L34.2858 282.967C34.2858 282.967 32.6838 283.256 32.4698 281.055L33.4648 276.516L34.4088 271.78L35.4628 265.58L34.4568 265.653L33.3038 270.357L31.5398 274.822L30.7508 277.816L30.0598 280.998C30.0598 280.998 30.2788 283.078 28.5258 283.77C28.5258 283.77 26.0838 284.205 25.9988 280.882L27.6108 272.778L28.6578 269.439L30.7918 264.317L30.2288 263.354L28.7008 265.128L27.4158 268.589L25.6948 272.267L24.1688 276.882L23.1618 278.6C23.1618 278.6 21.8228 280.462 20.6748 278.666L20.4298 274.217L21.9348 269.747L22.9518 266.44L24.6938 261.947L25.6518 259.08L26.5218 254.548L26.8008 251.962L26.1258 248.523L25.3868 248.371L23.0958 250.726L21.4038 253.1L17.4138 255.401C17.4138 255.401 14.8578 255.731 13.9348 254.22C13.9348 254.22 13.5308 253.616 14.9968 252.236L17.2048 250.688L18.5158 248.501L20.0208 246.583L21.6558 244.77L23.0188 242.458L24.4838 240.601L25.6488 239.939L29.8318 238.285L33.1718 236.525L35.8548 235.871C35.8548 235.871 37.3758 235.549 37.4248 233.58L39.0338 228.823L40.3128 224.731L41.7638 218.985L42.8038 213.838L42.9378 208.882L43.4158 202.505L44.5678 196.731L45.8008 191.178L47.8178 186.788L50.3598 181.401L52.2388 174.768L53.1968 167.811L54.1188 161.034L54.7308 155.218L55.8768 149.171L56.2128 143.646L55.0368 137.065L54.0658 128.541L54.4078 123.713L54.6888 117.643L54.9968 113.683L56.0828 110.37L58.6828 107.306L61.5648 105.448L66.4488 103.658L71.0118 102.295L74.9738 100.386L79.8828 98.18L85.0598 95.589L90.4118 92.637L94.8938 88.777L96.7088 85.177L96.9018 79.531L96.7618 76.545L96.1858 73.138L95.1208 67.965L94.6808 66.095L94.1878 65.318L92.3088 63.95L90.6288 62.794L89.2518 59.266L88.3968 55.132L88.0078 51.415L88.3308 48.928L87.4838 46.615V42.385L87.7278 37.954L88.9118 32.846L90.3698 29.035L92.9728 24.019L96.3838 19.352L100.597 15.938L105.579 14.264" fill="#FEF8ED"/>
</g>
<mask id="mask1_845_63091" style="mask-type:luminance" maskUnits="userSpaceOnUse" x="0" y="0" width="221" height="491">
<path d="M220.187 0.700001H0V491H220.187V0.700001Z" fill="white"/>
</mask>
<g mask="url(#mask1_845_63091)">
<path d="M110.584 273.169V14.703" stroke="#C1C1C1" stroke-miterlimit="10"/>
</g>
<mask id="mask2_845_63091" style="mask-type:luminance" maskUnits="userSpaceOnUse" x="0" y="0" width="221" height="491">
<path d="M220.187 0.700001H0V491H220.187V0.700001Z" fill="white"/>
</mask>
<g mask="url(#mask2_845_63091)">
<path d="M93.833 49.58H127.531" stroke="#C1C1C1" stroke-miterlimit="10"/>
</g>
<mask id="mask3_845_63091" style="mask-type:luminance" maskUnits="userSpaceOnUse" x="0" y="0" width="221" height="491">
<path d="M220.187 0.700001H0V491H220.187V0.700001Z" fill="white"/>
</mask>
<g mask="url(#mask3_845_63091)">
<path d="M72.894 115.014L110.519 120.903" stroke="#C1C1C1" stroke-miterlimit="10"/>
</g>
<mask id="mask4_845_63091" style="mask-type:luminance" maskUnits="userSpaceOnUse" x="0" y="0" width="221" height="491">
<path d="M220.187 0.700001H0V491H220.187V0.700001Z" fill="white"/>
</mask>
<g mask="url(#mask4_845_63091)">
<path d="M110.519 140.533H80.746C80.746 140.533 67.005 140.337 71.848 121.034C71.848 121.034 74.989 112.462 72.241 101.927L110.52 107.816" stroke="#C1C1C1" stroke-miterlimit="10"/>
</g>
<mask id="mask5_845_63091" style="mask-type:luminance" maskUnits="userSpaceOnUse" x="0" y="0" width="221" height="491">
<path d="M220.187 0.700001H0V491H220.187V0.700001Z" fill="white"/>
</mask>
<g mask="url(#mask5_845_63091)">
<path d="M97.105 82.297L110.519 107.816" stroke="#C1C1C1" stroke-miterlimit="10"/>
</g>
<mask id="mask6_845_63091" style="mask-type:luminance" maskUnits="userSpaceOnUse" x="0" y="0" width="221" height="491">
<path d="M220.187 0.700001H0V491H220.187V0.700001Z" fill="white"/>
</mask>
<g mask="url(#mask6_845_63091)">
<path d="M74.333 180.71C74.333 180.71 87.355 154.798 110.126 153.751" stroke="#C1C1C1" stroke-miterlimit="10"/>
</g>
<mask id="mask7_845_63091" style="mask-type:luminance" maskUnits="userSpaceOnUse" x="0" y="0" width="221" height="491">
<path d="M220.187 0.700001H0V491H220.187V0.700001Z" fill="white"/>
</mask>
<g mask="url(#mask7_845_63091)">
<path d="M72.894 204.854C72.894 204.854 85.327 225.924 110.519 225.924" stroke="#C1C1C1" stroke-miterlimit="10"/>
</g>
<mask id="mask8_845_63091" style="mask-type:luminance" maskUnits="userSpaceOnUse" x="0" y="0" width="221" height="491">
<path d="M220.187 0.700001H0V491H220.187V0.700001Z" fill="white"/>
</mask>
<g mask="url(#mask8_845_63091)">
<path d="M90.8231 160.687C90.8231 160.687 85.9811 266.624 110.126 273.234" stroke="#C1C1C1" stroke-miterlimit="10"/>
</g>
<mask id="mask9_845_63091" style="mask-type:luminance" maskUnits="userSpaceOnUse" x="0" y="0" width="221" height="491">
<path d="M220.187 0.700001H0V491H220.187V0.700001Z" fill="white"/>
</mask>
<g mask="url(#mask9_845_63091)">
<path d="M66.7429 241.433C66.7429 241.433 71.0619 232.272 89.4489 253.537C108.948 276.048 110.648 273.169 110.648 273.169" stroke="#C1C1C1" stroke-miterlimit="10"/>
</g>
<mask id="mask10_845_63091" style="mask-type:luminance" maskUnits="userSpaceOnUse" x="0" y="0" width="221" height="491">
<path d="M220.187 0.700001H0V491H220.187V0.700001Z" fill="white"/>
</mask>
<g mask="url(#mask10_845_63091)">
<path d="M71.9779 340.239C71.9779 340.239 65.2389 258.183 74.9219 240.844" stroke="#C1C1C1" stroke-miterlimit="10"/>
</g>
<mask id="mask11_845_63091" style="mask-type:luminance" maskUnits="userSpaceOnUse" x="0" y="0" width="221" height="491">
<path d="M220.187 0.700001H0V491H220.187V0.700001Z" fill="white"/>
</mask>
<g mask="url(#mask11_845_63091)">
<path d="M80.288 336.901C80.288 336.901 73.548 295.481 91.15 256.352" stroke="#C1C1C1" stroke-miterlimit="10"/>
</g>
<mask id="mask12_845_63091" style="mask-type:luminance" maskUnits="userSpaceOnUse" x="0" y="0" width="221" height="491">
<path d="M220.187 0.700001H0V491H220.187V0.700001Z" fill="white"/>
</mask>
<g mask="url(#mask12_845_63091)">
<path d="M75.5769 434.596C75.5769 434.596 75.9039 373.153 89.9729 368.442" stroke="#C1C1C1" stroke-miterlimit="10"/>
</g>
<mask id="mask13_845_63091" style="mask-type:luminance" maskUnits="userSpaceOnUse" x="0" y="0" width="221" height="491">
<path d="M220.187 0.700001H0V491H220.187V0.700001Z" fill="white"/>
</mask>
<g mask="url(#mask13_845_63091)">
<path d="M75.7081 435.25C75.7081 435.25 73.0911 389.839 64.2571 368.769" stroke="#C1C1C1" stroke-miterlimit="10"/>
</g>
<mask id="mask14_845_63091" style="mask-type:luminance" maskUnits="userSpaceOnUse" x="0" y="0" width="221" height="491">
<path d="M220.187 0.700001H0V491H220.187V0.700001Z" fill="white"/>
</mask>
<g mask="url(#mask14_845_63091)">
<path d="M68.1169 343.772C68.1169 343.772 79.5029 331.864 86.2419 340.172C93.3079 348.811 99.1979 345.081 99.1979 345.081" stroke="#C1C1C1" stroke-miterlimit="10"/>
</g>
<mask id="mask15_845_63091" style="mask-type:luminance" maskUnits="userSpaceOnUse" x="0" y="0" width="221" height="491">
<path d="M220.187 0.700001H0V491H220.187V0.700001Z" fill="white"/>
</mask>
<g mask="url(#mask15_845_63091)">
<path d="M65.303 362.553C65.303 362.553 78.782 377.798 88.86 368.245" stroke="#C1C1C1" stroke-miterlimit="10"/>
</g>
<mask id="mask16_845_63091" style="mask-type:luminance" maskUnits="userSpaceOnUse" x="0" y="0" width="221" height="491">
<path d="M220.187 0.700001H0V491H220.187V0.700001Z" fill="white"/>
</mask>
<g mask="url(#mask16_845_63091)">
<path d="M91.1501 255.371C91.1501 255.371 89.0551 275.59 92.7201 299.146C95.6641 318.383 88.0741 331.536 80.2871 336.966" stroke="#C1C1C1" stroke-miterlimit="10"/>
</g>
<mask id="mask17_845_63091" style="mask-type:luminance" maskUnits="userSpaceOnUse" x="0" y="0" width="221" height="491">
<path d="M220.187 0.700001H0V491H220.187V0.700001Z" fill="white"/>
</mask>
<g mask="url(#mask17_845_63091)">
<path d="M90.627 269.309C90.627 269.309 99.46 279.91 104.891 282.264" stroke="#C1C1C1" stroke-miterlimit="10"/>
</g>
<mask id="mask18_845_63091" style="mask-type:luminance" maskUnits="userSpaceOnUse" x="0" y="0" width="221" height="491">
<path d="M220.187 0.700001H0V491H220.187V0.700001Z" fill="white"/>
</mask>
<g mask="url(#mask18_845_63091)">
<path d="M66.8091 443.298C66.8091 443.298 74.3991 424.911 84.3461 442.514" stroke="#C1C1C1" stroke-miterlimit="10"/>
</g>
<mask id="mask19_845_63091" style="mask-type:luminance" maskUnits="userSpaceOnUse" x="0" y="0" width="221" height="491">
<path d="M220.187 0.700001H0V491H220.187V0.700001Z" fill="white"/>
</mask>
<g mask="url(#mask19_845_63091)">
<path d="M67.4629 449.842C67.4629 449.842 73.7449 431.455 83.6909 449.057" stroke="#C1C1C1" stroke-miterlimit="10"/>
</g>
<mask id="mask20_845_63091" style="mask-type:luminance" maskUnits="userSpaceOnUse" x="0" y="0" width="221" height="491">
<path d="M220.187 0.700001H0V491H220.187V0.700001Z" fill="white"/>
</mask>
<g mask="url(#mask20_845_63091)">
<path d="M60.9189 462.928C60.9189 462.928 72.4359 445.196 82.3809 462.798" stroke="#C1C1C1" stroke-miterlimit="10"/>
</g>
<mask id="mask21_845_63091" style="mask-type:luminance" maskUnits="userSpaceOnUse" x="0" y="0" width="221" height="491">
<path d="M220.187 0.700001H0V491H220.187V0.700001Z" fill="white"/>
</mask>
<g mask="url(#mask21_845_63091)">
<path d="M71.52 134.186L56.731 141.188" stroke="#C1C1C1" stroke-miterlimit="10"/>
</g>
<mask id="mask22_845_63091" style="mask-type:luminance" maskUnits="userSpaceOnUse" x="0" y="0" width="221" height="491">
<path d="M220.187 0.700001H0V491H220.187V0.700001Z" fill="white"/>
</mask>
<g mask="url(#mask22_845_63091)">
<path d="M65.042 137.523C65.042 137.523 62.163 166.968 60.134 173.708" stroke="#C1C1C1" stroke-miterlimit="10"/>
</g>
<mask id="mask23_845_63091" style="mask-type:luminance" maskUnits="userSpaceOnUse" x="0" y="0" width="221" height="491">
<path d="M220.187 0.700001H0V491H220.187V0.700001Z" fill="white"/>
</mask>
<g mask="url(#mask23_845_63091)">
<path d="M70.081 178.289C70.081 178.289 50.254 166.511 51.759 179.074C52.675 187.123 70.081 178.289 70.081 178.289Z" stroke="#C1C1C1" stroke-miterlimit="10"/>
</g>
<mask id="mask24_845_63091" style="mask-type:luminance" maskUnits="userSpaceOnUse" x="0" y="0" width="221" height="491">
<path d="M220.187 0.700001H0V491H220.187V0.700001Z" fill="white"/>
</mask>
<g mask="url(#mask24_845_63091)">
<path d="M52.216 237.573C52.216 237.573 41.616 221.279 38.082 231.291C35.727 237.769 52.216 237.573 52.216 237.573Z" stroke="#C1C1C1" stroke-miterlimit="10"/>
</g>
<mask id="mask25_845_63091" style="mask-type:luminance" maskUnits="userSpaceOnUse" x="0" y="0" width="221" height="491">
<path d="M220.187 0.700001H0V491H220.187V0.700001Z" fill="white"/>
</mask>
<g mask="url(#mask25_845_63091)">
<path d="M54.638 182.346C54.638 182.346 50.515 210.549 39.915 227.626" stroke="#C1C1C1" stroke-miterlimit="10"/>
</g>
<mask id="mask26_845_63091" style="mask-type:luminance" maskUnits="userSpaceOnUse" x="0" y="0" width="221" height="491">
<path d="M220.187 0.700001H0V491H220.187V0.700001Z" fill="white"/>
</mask>
<g mask="url(#mask26_845_63091)">
<path d="M64.257 180.776C64.257 180.776 52.347 210.811 52.61 235.414" stroke="#C1C1C1" stroke-miterlimit="10"/>
</g>
<mask id="mask27_845_63091" style="mask-type:luminance" maskUnits="userSpaceOnUse" x="0" y="0" width="221" height="491">
<path d="M220.187 0.700001H0V491H220.187V0.700001Z" fill="white"/>
</mask>
<g mask="url(#mask27_845_63091)">
<path d="M37.298 235.543C37.298 235.543 39.261 244.507 26.959 249.939" stroke="#C1C1C1" stroke-miterlimit="10"/>
</g>
<mask id="mask28_845_63091" style="mask-type:luminance" maskUnits="userSpaceOnUse" x="0" y="0" width="221" height="491">
<path d="M220.187 0.700001H0V491H220.187V0.700001Z" fill="white"/>
</mask>
<g mask="url(#mask28_845_63091)">
<path d="M27.0901 253.931C27.0901 253.931 38.9331 260.802 46.6541 257.66" stroke="#C1C1C1" stroke-miterlimit="10"/>
</g>
<mask id="mask29_845_63091" style="mask-type:luminance" maskUnits="userSpaceOnUse" x="0" y="0" width="221" height="491">
<path d="M220.187 0.700001H0V491H220.187V0.700001Z" fill="white"/>
</mask>
<g mask="url(#mask29_845_63091)">
<path d="M147.031 115.014L109.406 120.903" stroke="#C1C1C1" stroke-miterlimit="10"/>
</g>
<mask id="mask30_845_63091" style="mask-type:luminance" maskUnits="userSpaceOnUse" x="0" y="0" width="221" height="491">
<path d="M220.187 0.700001H0V491H220.187V0.700001Z" fill="white"/>
</mask>
<g mask="url(#mask30_845_63091)">
<path d="M109.406 140.533H139.178C139.178 140.533 152.919 140.337 148.076 121.034C148.076 121.034 144.936 112.462 147.685 101.927L109.405 107.816" stroke="#C1C1C1" stroke-miterlimit="10"/>
</g>
<mask id="mask31_845_63091" style="mask-type:luminance" maskUnits="userSpaceOnUse" x="0" y="0" width="221" height="491">
<path d="M220.187 0.700001H0V491H220.187V0.700001Z" fill="white"/>
</mask>
<g mask="url(#mask31_845_63091)">
<path d="M122.821 82.297L109.406 107.816" stroke="#C1C1C1" stroke-miterlimit="10"/>
</g>
<mask id="mask32_845_63091" style="mask-type:luminance" maskUnits="userSpaceOnUse" x="0" y="0" width="221" height="491">
<path d="M220.187 0.700001H0V491H220.187V0.700001Z" fill="white"/>
</mask>
<g mask="url(#mask32_845_63091)">
<path d="M145.591 180.71C145.591 180.71 132.57 154.798 109.799 153.751" stroke="#C1C1C1" stroke-miterlimit="10"/>
</g>
<mask id="mask33_845_63091" style="mask-type:luminance" maskUnits="userSpaceOnUse" x="0" y="0" width="221" height="491">
<path d="M220.187 0.700001H0V491H220.187V0.700001Z" fill="white"/>
</mask>
<g mask="url(#mask33_845_63091)">
<path d="M147.031 204.854C147.031 204.854 134.598 225.924 109.406 225.924" stroke="#C1C1C1" stroke-miterlimit="10"/>
</g>
<mask id="mask34_845_63091" style="mask-type:luminance" maskUnits="userSpaceOnUse" x="0" y="0" width="221" height="491">
<path d="M220.187 0.700001H0V491H220.187V0.700001Z" fill="white"/>
</mask>
<g mask="url(#mask34_845_63091)">
<path d="M129.103 160.687C129.103 160.687 133.945 266.624 109.799 273.234" stroke="#C1C1C1" stroke-miterlimit="10"/>
</g>
<mask id="mask35_845_63091" style="mask-type:luminance" maskUnits="userSpaceOnUse" x="0" y="0" width="221" height="491">
<path d="M220.187 0.700001H0V491H220.187V0.700001Z" fill="white"/>
</mask>
<g mask="url(#mask35_845_63091)">
<path d="M153.182 241.433C153.182 241.433 148.864 232.272 130.477 253.537C110.977 276.048 109.276 273.169 109.276 273.169" stroke="#C1C1C1" stroke-miterlimit="10"/>
</g>
<mask id="mask36_845_63091" style="mask-type:luminance" maskUnits="userSpaceOnUse" x="0" y="0" width="221" height="491">
<path d="M220.187 0.700001H0V491H220.187V0.700001Z" fill="white"/>
</mask>
<g mask="url(#mask36_845_63091)">
<path d="M147.882 340.239C147.882 340.239 154.622 258.183 144.938 240.844" stroke="#C1C1C1" stroke-miterlimit="10"/>
</g>
<mask id="mask37_845_63091" style="mask-type:luminance" maskUnits="userSpaceOnUse" x="0" y="0" width="221" height="491">
<path d="M220.187 0.700001H0V491H220.187V0.700001Z" fill="white"/>
</mask>
<g mask="url(#mask37_845_63091)">
<path d="M139.637 336.901C139.637 336.901 146.377 295.481 128.776 256.352" stroke="#C1C1C1" stroke-miterlimit="10"/>
</g>
<mask id="mask38_845_63091" style="mask-type:luminance" maskUnits="userSpaceOnUse" x="0" y="0" width="221" height="491">
<path d="M220.187 0.700001H0V491H220.187V0.700001Z" fill="white"/>
</mask>
<g mask="url(#mask38_845_63091)">
<path d="M144.348 434.596C144.348 434.596 144.021 373.153 129.952 368.442" stroke="#C1C1C1" stroke-miterlimit="10"/>
</g>
<mask id="mask39_845_63091" style="mask-type:luminance" maskUnits="userSpaceOnUse" x="0" y="0" width="221" height="491">
<path d="M220.187 0.700001H0V491H220.187V0.700001Z" fill="white"/>
</mask>
<g mask="url(#mask39_845_63091)">
<path d="M144.218 435.25C144.218 435.25 146.835 389.839 155.669 368.769" stroke="#C1C1C1" stroke-miterlimit="10"/>
</g>
<mask id="mask40_845_63091" style="mask-type:luminance" maskUnits="userSpaceOnUse" x="0" y="0" width="221" height="491">
<path d="M220.187 0.700001H0V491H220.187V0.700001Z" fill="white"/>
</mask>
<g mask="url(#mask40_845_63091)">
<path d="M151.808 343.772C151.808 343.772 140.422 331.864 133.683 340.172C126.617 348.811 120.727 345.081 120.727 345.081" stroke="#C1C1C1" stroke-miterlimit="10"/>
</g>
<mask id="mask41_845_63091" style="mask-type:luminance" maskUnits="userSpaceOnUse" x="0" y="0" width="221" height="491">
<path d="M220.187 0.700001H0V491H220.187V0.700001Z" fill="white"/>
</mask>
<g mask="url(#mask41_845_63091)">
<path d="M154.622 362.553C154.622 362.553 141.142 377.798 131.064 368.245" stroke="#C1C1C1" stroke-miterlimit="10"/>
</g>
<mask id="mask42_845_63091" style="mask-type:luminance" maskUnits="userSpaceOnUse" x="0" y="0" width="221" height="491">
<path d="M220.187 0.700001H0V491H220.187V0.700001Z" fill="white"/>
</mask>
<g mask="url(#mask42_845_63091)">
<path d="M128.775 255.371C128.775 255.371 130.869 275.59 127.204 299.146C124.261 318.383 131.85 331.536 139.637 336.966" stroke="#C1C1C1" stroke-miterlimit="10"/>
</g>
<mask id="mask43_845_63091" style="mask-type:luminance" maskUnits="userSpaceOnUse" x="0" y="0" width="221" height="491">
<path d="M220.187 0.700001H0V491H220.187V0.700001Z" fill="white"/>
</mask>
<g mask="url(#mask43_845_63091)">
<path d="M129.233 269.309C129.233 269.309 120.398 279.91 114.968 282.264" stroke="#C1C1C1" stroke-miterlimit="10"/>
</g>
<mask id="mask44_845_63091" style="mask-type:luminance" maskUnits="userSpaceOnUse" x="0" y="0" width="221" height="491">
<path d="M220.187 0.700001H0V491H220.187V0.700001Z" fill="white"/>
</mask>
<g mask="url(#mask44_845_63091)">
<path d="M153.116 443.298C153.116 443.298 145.527 424.911 135.579 442.514" stroke="#C1C1C1" stroke-miterlimit="10"/>
</g>
<mask id="mask45_845_63091" style="mask-type:luminance" maskUnits="userSpaceOnUse" x="0" y="0" width="221" height="491">
<path d="M220.187 0.700001H0V491H220.187V0.700001Z" fill="white"/>
</mask>
<g mask="url(#mask45_845_63091)">
<path d="M152.462 449.842C152.462 449.842 146.181 431.455 136.234 449.057" stroke="#C1C1C1" stroke-miterlimit="10"/>
</g>
<mask id="mask46_845_63091" style="mask-type:luminance" maskUnits="userSpaceOnUse" x="0" y="0" width="221" height="491">
<path d="M220.187 0.700001H0V491H220.187V0.700001Z" fill="white"/>
</mask>
<g mask="url(#mask46_845_63091)">
<path d="M159.006 462.928C159.006 462.928 147.489 445.196 137.543 462.798" stroke="#C1C1C1" stroke-miterlimit="10"/>
</g>
<mask id="mask47_845_63091" style="mask-type:luminance" maskUnits="userSpaceOnUse" x="0" y="0" width="221" height="491">
<path d="M220.187 0.700001H0V491H220.187V0.700001Z" fill="white"/>
</mask>
<g mask="url(#mask47_845_63091)">
<path d="M148.405 134.186L163.194 141.188" stroke="#C1C1C1" stroke-miterlimit="10"/>
</g>
<mask id="mask48_845_63091" style="mask-type:luminance" maskUnits="userSpaceOnUse" x="0" y="0" width="221" height="491">
<path d="M220.187 0.700001H0V491H220.187V0.700001Z" fill="white"/>
</mask>
<g mask="url(#mask48_845_63091)">
<path d="M154.883 137.523C154.883 137.523 157.762 166.968 159.791 173.708" stroke="#C1C1C1" stroke-miterlimit="10"/>
</g>
<mask id="mask49_845_63091" style="mask-type:luminance" maskUnits="userSpaceOnUse" x="0" y="0" width="221" height="491">
<path d="M220.187 0.700001H0V491H220.187V0.700001Z" fill="white"/>
</mask>
<g mask="url(#mask49_845_63091)">
<path d="M149.844 178.289C149.844 178.289 169.67 166.511 168.166 179.074C167.185 187.123 149.844 178.289 149.844 178.289Z" stroke="#C1C1C1" stroke-miterlimit="10"/>
</g>
<mask id="mask50_845_63091" style="mask-type:luminance" maskUnits="userSpaceOnUse" x="0" y="0" width="221" height="491">
<path d="M220.187 0.700001H0V491H220.187V0.700001Z" fill="white"/>
</mask>
<g mask="url(#mask50_845_63091)">
<path d="M167.708 237.573C167.708 237.573 178.31 221.279 181.843 231.291C184.133 237.769 167.708 237.573 167.708 237.573Z" stroke="#C1C1C1" stroke-miterlimit="10"/>
</g>
<mask id="mask51_845_63091" style="mask-type:luminance" maskUnits="userSpaceOnUse" x="0" y="0" width="221" height="491">
<path d="M220.187 0.700001H0V491H220.187V0.700001Z" fill="white"/>
</mask>
<g mask="url(#mask51_845_63091)">
<path d="M165.222 182.346C165.222 182.346 169.344 210.549 179.945 227.626" stroke="#C1C1C1" stroke-miterlimit="10"/>
</g>
<mask id="mask52_845_63091" style="mask-type:luminance" maskUnits="userSpaceOnUse" x="0" y="0" width="221" height="491">
<path d="M220.187 0.700001H0V491H220.187V0.700001Z" fill="white"/>
</mask>
<g mask="url(#mask52_845_63091)">
<path d="M155.669 180.776C155.669 180.776 167.578 210.811 167.315 235.414" stroke="#C1C1C1" stroke-miterlimit="10"/>
</g>
<mask id="mask53_845_63091" style="mask-type:luminance" maskUnits="userSpaceOnUse" x="0" y="0" width="221" height="491">
<path d="M220.187 0.700001H0V491H220.187V0.700001Z" fill="white"/>
</mask>
<g mask="url(#mask53_845_63091)">
<path d="M182.562 235.543C182.562 235.543 180.599 244.507 192.901 249.939" stroke="#C1C1C1" stroke-miterlimit="10"/>
</g>
<mask id="mask54_845_63091" style="mask-type:luminance" maskUnits="userSpaceOnUse" x="0" y="0" width="221" height="491">
<path d="M220.187 0.700001H0V491H220.187V0.700001Z" fill="white"/>
</mask>
<g mask="url(#mask54_845_63091)">
<path d="M192.835 253.931C192.835 253.931 180.991 260.802 173.27 257.66" stroke="#C1C1C1" stroke-miterlimit="10"/>
</g>
<mask id="mask55_845_63091" style="mask-type:luminance" maskUnits="userSpaceOnUse" x="0" y="0" width="221" height="491">
<path d="M220.187 0.700001H0V491H220.187V0.700001Z" fill="white"/>
</mask>
<g mask="url(#mask55_845_63091)">
<path d="M96.647 74.968C96.647 74.968 96.778 76.735 96.843 77.585C96.908 78.632 96.908 79.68 96.908 80.726C96.908 81.839 96.908 82.951 96.843 83.998C96.843 84.39 96.843 84.784 96.712 85.175C96.582 85.633 96.385 86.026 96.189 86.419C95.862 87.074 95.601 87.728 95.208 88.316C94.816 88.971 94.291 89.495 93.703 90.018C92.853 90.803 91.936 91.458 91.019 92.112C89.515 93.093 87.944 93.944 86.439 94.795C85.065 95.58 83.756 96.365 82.317 97.085C81.139 97.674 79.962 98.131 78.783 98.656C77.605 99.179 76.428 99.768 75.184 100.291C74.333 100.684 73.482 101.011 72.632 101.403C71.847 101.796 71.192 102.254 70.407 102.581C69.229 103.039 68.052 103.236 66.808 103.563C65.63 103.891 64.452 104.086 63.34 104.544C62.62 104.872 61.9 105.263 61.181 105.656C60.461 106.05 59.742 106.441 59.087 106.965C58.498 107.424 58.04 107.947 57.582 108.47C57.124 108.994 56.601 109.582 56.207 110.171C55.815 110.761 55.553 111.415 55.357 112.069C55.161 112.788 55.029 113.507 54.899 114.228C54.768 115.274 54.703 116.387 54.703 117.434C54.638 118.546 54.638 119.66 54.572 120.772C54.506 121.949 54.441 123.127 54.376 124.371C54.311 125.156 54.179 126.007 54.115 126.792C54.049 127.708 54.049 128.624 54.115 129.54C54.179 130.392 54.311 131.176 54.376 132.027C54.572 133.532 54.769 135.037 54.965 136.542C55.096 137.459 55.227 138.309 55.358 139.226C55.554 140.338 55.816 141.385 56.012 142.432C56.143 143.087 56.274 143.807 56.274 144.461C56.34 145.181 56.274 145.9 56.208 146.686C56.143 147.537 56.012 148.322 55.881 149.172C55.685 150.611 55.358 152.116 55.096 153.556C54.965 154.407 54.703 155.191 54.573 156.042C54.442 156.827 54.377 157.613 54.311 158.398C54.18 159.576 54.18 160.688 54.049 161.866C53.918 163.175 53.722 164.418 53.525 165.727C53.264 167.428 53.002 169.063 52.74 170.765C52.543 172.14 52.413 173.579 52.216 174.953C52.086 175.869 51.823 176.72 51.627 177.57C51.431 178.355 51.104 179.207 50.842 179.991C50.515 180.908 50.253 181.824 49.861 182.739C49.403 183.786 48.945 184.833 48.356 185.881C48.095 186.403 47.701 186.927 47.44 187.45C47.047 188.17 46.72 188.956 46.393 189.674C46.197 190.198 45.935 190.656 45.804 191.179C45.608 191.833 45.476 192.488 45.281 193.144C45.085 194.06 44.954 194.911 44.757 195.826C44.561 196.873 44.299 197.856 44.103 198.901C43.907 199.883 43.645 200.799 43.514 201.782C43.448 202.304 43.383 202.763 43.318 203.285C43.187 204.267 43.121 205.184 43.056 206.165C42.991 207.147 42.991 208.194 42.925 209.175V211.4C42.925 212.251 42.86 213.167 42.794 214.018C42.729 214.738 42.664 215.458 42.533 216.177C42.403 216.83 42.206 217.485 42.01 218.074C41.683 219.252 41.421 220.43 41.159 221.674C40.701 223.375 40.242 225.076 39.72 226.711C39.327 227.89 39 229.067 38.542 230.18C38.28 230.833 37.822 231.357 37.625 232.076C37.494 232.534 37.56 233.058 37.429 233.581C37.298 234.106 37.102 234.694 36.775 235.087C36.513 235.414 36.186 235.675 35.858 235.872C35.008 236.265 34.026 236.198 33.175 236.526C32.456 236.788 31.801 237.245 31.082 237.638C30.231 238.096 29.315 238.555 28.464 238.946C27.809 239.275 27.09 239.536 26.37 239.798C25.912 239.929 25.323 239.929 24.865 240.19C24.603 240.322 24.472 240.648 24.342 240.845C24.08 241.172 23.753 241.5 23.491 241.827C23.098 242.349 22.706 242.873 22.379 243.397C22.116 243.855 21.92 244.314 21.659 244.771C21.332 245.229 20.939 245.623 20.547 246.08C20.285 246.408 20.089 246.801 19.762 247.062C19.565 247.257 19.369 247.324 19.173 247.52C19.108 247.586 19.043 247.652 18.976 247.716C18.78 247.976 18.715 248.24 18.518 248.501C18.322 248.763 18.125 249.024 17.994 249.353C17.799 249.679 17.667 250.137 17.405 250.465C17.144 250.791 16.817 251.053 16.489 251.315C16.226 251.577 15.9 251.838 15.638 252.1C15.311 252.362 14.918 252.558 14.591 252.82C14.46 252.952 14.263 253.016 14.133 253.213C14.002 253.41 13.936 253.671 13.936 253.868C13.936 254.064 14.067 254.26 14.198 254.391C14.394 254.587 14.591 254.718 14.853 254.914C15.18 255.11 15.507 255.307 15.899 255.372C16.161 255.436 16.488 255.372 16.75 255.372C17.208 255.307 17.666 255.241 18.059 255.11C18.582 254.978 19.171 254.782 19.629 254.521C20.087 254.324 20.48 253.997 20.873 253.669C21.2 253.408 21.462 253.015 21.725 252.688C21.986 252.361 22.313 252.166 22.575 251.837C22.706 251.641 22.706 251.379 22.836 251.118C22.902 250.987 23.033 250.855 23.098 250.724C23.426 250.266 23.818 249.873 24.211 249.481C24.604 249.088 24.931 248.697 25.389 248.369C25.782 248.042 25.978 247.911 26.305 247.846" stroke="#5B5B5B" stroke-width="1.792"/>
</g>
<mask id="mask56_845_63091" style="mask-type:luminance" maskUnits="userSpaceOnUse" x="0" y="0" width="221" height="491">
<path d="M220.187 0.700001H0V491H220.187V0.700001Z" fill="white"/>
</mask>
<g mask="url(#mask56_845_63091)">
<path d="M26.1079 247.911C26.1079 247.911 26.1079 248.631 26.1729 248.958C26.2389 249.548 26.4999 250.07 26.6309 250.595L26.8269 252.165C26.8269 252.755 26.7619 253.343 26.6309 253.931C26.4999 254.847 26.2389 255.698 26.0419 256.549C25.9769 256.941 25.7809 257.27 25.7149 257.66C25.6499 257.988 25.7149 258.381 25.7149 258.707C25.6499 259.1 25.5839 259.493 25.5189 259.886C25.3879 260.344 25.1919 260.802 24.9959 261.26C24.7999 261.718 24.6029 262.11 24.4719 262.569C24.2109 263.158 24.0139 263.812 23.7529 264.465C23.5569 264.989 23.4259 265.448 23.2299 265.971C23.0989 266.299 22.8369 266.56 22.7069 266.823C22.5759 267.084 22.5759 267.412 22.5099 267.673C22.4449 268.001 22.4449 268.393 22.3139 268.72C22.1819 269.179 21.9869 269.636 21.7899 270.095C21.5939 270.618 21.3969 271.206 21.2009 271.731C21.0049 272.188 20.8739 272.646 20.6779 273.17C20.6129 273.432 20.5469 273.694 20.4819 274.022C20.3519 274.479 20.2859 274.937 20.2199 275.461C20.1549 275.984 20.0249 276.508 20.0249 276.965C20.0249 277.292 20.0249 277.62 20.1549 277.947C20.2859 278.208 20.4829 278.47 20.6789 278.666C20.9399 278.929 21.1369 279.189 21.4639 279.255C21.7909 279.387 22.1179 279.321 22.4449 279.19C22.7069 279.058 22.9689 278.798 23.1649 278.601C23.4919 278.208 23.6889 277.75 23.9509 277.358C24.2779 276.704 24.5399 275.985 24.8019 275.264C25.0629 274.479 25.2599 273.628 25.5219 272.778C25.7839 272.059 25.9799 271.339 26.3069 270.619C26.4379 270.292 26.6999 269.964 26.8299 269.637C27.0259 269.311 27.2879 268.983 27.4189 268.59C27.6149 268.198 27.6799 267.805 27.8109 267.413C28.0079 266.824 28.2699 266.234 28.5309 265.645C28.7269 265.123 28.8589 264.466 29.1849 264.009C29.3159 263.813 29.5779 263.616 29.7739 263.487C29.9049 263.421 30.0359 263.354 30.2319 263.354C30.3619 263.354 30.5589 263.42 30.6899 263.551C30.8209 263.683 30.8209 263.878 30.8209 264.074C30.8209 264.27 30.7549 264.533 30.6899 264.728C30.5599 265.055 30.3629 265.383 30.1669 265.71C30.0359 266.036 29.9059 266.429 29.7739 266.756C29.5779 267.345 29.4469 267.934 29.1849 268.458C29.0539 268.785 28.7929 269.112 28.6619 269.438C28.4659 269.831 28.2699 270.29 28.1389 270.681C27.9429 271.336 27.8109 272.057 27.6159 272.776C27.4199 273.757 27.1579 274.804 26.9609 275.786C26.8299 276.375 26.6989 276.898 26.5679 277.487C26.4369 278.207 26.3059 278.927 26.2409 279.712C26.1749 280.236 26.1749 280.825 26.1749 281.348C26.1749 281.676 26.2409 282.068 26.3709 282.396C26.4359 282.657 26.6329 282.919 26.8289 283.115C27.0249 283.312 27.2869 283.377 27.5489 283.509C27.8759 283.64 28.2029 283.836 28.5299 283.77C28.7919 283.705 29.0529 283.509 29.2499 283.313C29.4469 283.181 29.7079 282.985 29.7729 282.79C29.9699 282.397 29.9039 281.938 29.9699 281.48C30.1009 280.891 30.1659 280.238 30.3619 279.648C30.4269 279.387 30.6239 279.126 30.6889 278.863C30.7539 278.536 30.6889 278.144 30.7539 277.816C30.8199 277.293 30.9499 276.769 31.0819 276.311C31.2779 275.591 31.5399 274.806 31.8019 274.085C31.9979 273.563 32.1949 272.974 32.4559 272.516C32.6519 272.188 32.9139 271.993 33.0449 271.665C33.1099 271.469 33.1099 271.271 33.1749 271.076C33.2409 270.814 33.2409 270.618 33.3059 270.356C33.3709 269.898 33.5679 269.439 33.6329 268.981C33.6979 268.588 33.6979 268.131 33.8289 267.738C33.9599 267.15 34.0909 266.56 34.3519 266.037C34.4169 265.775 34.4839 265.449 34.6799 265.316C34.8109 265.253 35.0079 265.187 35.2029 265.253C35.3339 265.316 35.3989 265.449 35.4649 265.579C35.5289 265.775 35.4649 265.972 35.4649 266.168C35.3989 266.561 35.2679 266.953 35.1369 267.346C35.0069 267.739 34.8749 268.198 34.7449 268.589C34.6789 268.916 34.6139 269.243 34.5479 269.57C34.4829 270.159 34.4829 270.682 34.4169 271.271C34.4169 271.598 34.4169 271.992 34.3519 272.318C34.2869 273.038 34.0909 273.758 33.8939 274.544C33.7629 275.329 33.5669 276.114 33.3709 276.899C33.3059 277.422 33.2399 277.88 33.1739 278.404C33.0439 278.928 32.9119 279.516 32.7819 280.04C32.7159 280.367 32.6509 280.76 32.6509 281.088C32.6509 281.414 32.6509 281.742 32.7819 282.068C32.9119 282.331 33.1089 282.526 33.3049 282.657C33.5009 282.789 33.6969 282.854 33.8939 282.92C34.1559 282.984 34.4829 282.984 34.7449 282.92C34.9399 282.855 35.2029 282.855 35.3989 282.724C35.6609 282.593 35.8569 282.331 35.9879 282.134C36.1179 281.873 36.2489 281.612 36.3149 281.349C36.5769 280.565 36.7079 279.713 36.9029 278.863C37.0999 278.144 37.1659 277.358 37.3619 276.639C37.6229 275.461 37.8199 274.283 38.0809 273.038C38.1469 272.645 38.2119 272.318 38.3429 271.926C38.4739 271.599 38.8009 271.272 38.8659 270.946C38.9969 270.619 38.9309 270.226 38.9969 269.833V268.329C39.0619 267.609 39.1929 266.89 39.2589 266.103C39.3239 265.711 39.3239 265.317 39.4549 264.925C39.5199 264.729 39.5199 264.466 39.6519 264.271C39.7169 264.207 39.7819 264.075 39.8479 264.075C39.9789 264.01 40.1099 263.944 40.2399 264.01C40.3059 264.01 40.3059 264.141 40.3059 264.207C40.3059 264.403 40.2399 264.534 40.1749 264.729C40.1099 265.123 40.1099 265.514 40.1099 265.907C40.1099 266.301 40.0449 266.626 40.0449 267.02C40.0449 267.413 40.1099 267.804 40.2409 268.198C40.3069 268.59 40.4379 268.982 40.5029 269.376C40.5679 270.096 40.5029 270.815 40.5029 271.535V274.414C40.5029 275.068 40.3729 275.788 40.5679 276.442C40.6339 276.704 40.8299 277.032 41.0269 277.228C41.2229 277.423 41.4839 277.621 41.7459 277.685C42.0079 277.75 42.2039 277.685 42.4659 277.621C42.7279 277.555 42.9239 277.358 43.0549 277.162C43.2509 276.9 43.4469 276.573 43.5779 276.311C43.7739 275.788 43.9699 275.198 44.1009 274.61C44.2319 274.152 44.2979 273.759 44.2979 273.301V272.255C44.2979 271.206 44.1669 270.159 44.2329 269.113C44.2329 268.655 44.3639 268.197 44.4289 267.738C44.4939 267.345 44.4939 266.953 44.4939 266.56C44.4939 265.906 44.4289 265.252 44.4939 264.663C44.4939 264.14 44.5599 263.616 44.6899 263.158L44.8869 262.373C45.1479 261.653 45.4749 260.934 45.7369 260.213C46.0649 259.362 46.3919 258.447 46.7839 257.596C47.1109 256.812 47.4379 255.961 47.8309 255.175C48.2239 254.324 48.7479 253.538 49.1389 252.689C49.5329 251.838 49.8589 250.989 50.1209 250.072C50.2509 249.483 50.3819 248.96 50.4479 248.371C50.5779 247.324 50.7099 246.343 50.7749 245.297C50.8399 244.25 50.8399 243.137 50.9059 242.089C50.9059 241.501 51.0359 240.977 50.9059 240.388C50.8399 240.06 50.5779 239.536 50.5779 239.536" stroke="#5B5B5B" stroke-width="1.792"/>
</g>
<mask id="mask57_845_63091" style="mask-type:luminance" maskUnits="userSpaceOnUse" x="0" y="0" width="221" height="491">
<path d="M220.187 0.700001H0V491H220.187V0.700001Z" fill="white"/>
</mask>
<g mask="url(#mask57_845_63091)">
<path d="M50.7771 240.387C50.7771 240.387 50.9081 239.667 51.0381 239.34C51.3651 238.554 52.0201 237.965 52.4131 237.18C52.8711 236.395 53.2641 235.478 53.5911 234.629C54.1791 233.254 54.7691 231.88 55.2271 230.441C55.6851 229.131 55.9471 227.823 56.4051 226.514C56.9281 224.879 57.6481 223.243 58.2371 221.542C58.5651 220.625 58.8261 219.644 59.2181 218.729C59.7421 217.485 60.3311 216.373 60.8541 215.129C61.4431 213.821 62.0971 212.577 62.6861 211.203C63.2751 209.764 63.7331 208.324 64.3881 206.95C64.9111 205.838 65.5001 204.725 66.0231 203.612C66.4161 202.762 66.9391 201.911 67.2661 200.995C67.5281 200.34 67.6591 199.621 67.7891 198.968C67.9201 198.247 67.9861 197.593 68.0511 196.873C68.1161 196.088 68.2471 194.453 68.2471 194.453" stroke="#5B5B5B" stroke-width="1.792"/>
</g>
<mask id="mask58_845_63091" style="mask-type:luminance" maskUnits="userSpaceOnUse" x="0" y="0" width="221" height="491">
<path d="M220.187 0.700001H0V491H220.187V0.700001Z" fill="white"/>
</mask>
<g mask="url(#mask58_845_63091)">
<path d="M68.052 196.479C68.052 196.479 68.641 195.498 68.838 194.974C69.034 194.386 69.165 193.797 69.165 193.208C69.165 192.619 68.968 192.03 68.968 191.374C69.034 190.852 69.23 190.328 69.362 189.87C69.427 189.348 69.492 188.823 69.558 188.301C69.558 187.711 69.558 187.189 69.493 186.599C69.428 186.076 69.297 185.552 69.231 185.094C69.166 184.504 69.101 183.916 69.101 183.261C69.166 182.607 69.363 182.018 69.493 181.364C69.689 180.383 69.82 179.401 70.016 178.419C70.278 177.045 70.54 175.605 70.802 174.231C71.129 172.464 71.521 170.697 71.849 168.931C72.176 167.36 72.503 165.725 72.766 164.154C72.961 162.977 73.027 161.799 73.224 160.62C73.29 159.901 73.485 158.461 73.485 158.461" stroke="#5B5B5B" stroke-width="1.792"/>
</g>
<mask id="mask59_845_63091" style="mask-type:luminance" maskUnits="userSpaceOnUse" x="0" y="0" width="221" height="491">
<path d="M220.187 0.700001H0V491H220.187V0.700001Z" fill="white"/>
</mask>
<g mask="url(#mask59_845_63091)">
<path d="M72.828 137.065C72.828 137.065 73.614 138.505 73.875 139.29C74.137 140.01 74.268 140.795 74.333 141.515C74.399 142.431 74.203 143.412 74.137 144.329C74.072 145.441 74.006 146.554 73.941 147.6C73.876 149.04 73.81 150.545 73.745 151.984C73.679 152.966 73.614 153.881 73.549 154.863V157.612V159.771C73.549 160.819 73.679 161.865 73.679 162.978C73.679 164.155 73.549 165.398 73.614 166.576C73.614 167.361 73.745 168.147 73.81 168.932C73.941 169.912 74.072 170.895 74.137 171.876C74.202 172.597 74.268 173.381 74.333 174.102C74.399 175.279 74.333 176.391 74.465 177.569C74.53 178.42 74.66 179.27 74.727 180.121C74.792 180.906 74.922 181.626 74.989 182.411C75.054 183.261 75.054 184.047 75.054 184.897C74.989 185.748 74.857 186.599 74.727 187.449C74.53 188.758 74.269 190.066 74.072 191.374C73.81 192.75 73.549 194.059 73.352 195.432C73.09 197.002 72.828 198.573 72.632 200.078C72.501 201.059 72.37 202.041 72.239 203.023C72.043 204.528 71.846 206.032 71.781 207.604V209.566C71.781 210.089 71.846 210.613 71.846 211.071C71.846 211.594 71.911 212.118 71.846 212.575C71.781 212.968 71.715 213.361 71.649 213.753C71.453 214.604 71.061 215.456 70.864 216.305C70.668 217.156 70.668 218.006 70.537 218.856C70.34 220.1 70.013 221.343 69.751 222.586C69.489 223.895 69.162 225.203 68.9 226.512C68.573 228.017 68.377 229.523 68.049 231.027C67.853 232.074 67.526 233.056 67.33 234.104C67.133 235.281 66.936 236.458 66.806 237.701C66.609 239.402 66.544 241.103 66.479 242.805C66.414 243.917 66.414 245.03 66.348 246.142C66.348 247.122 66.413 248.171 66.348 249.152C66.282 250.395 66.086 251.573 65.955 252.753C65.759 254.453 65.432 256.22 65.17 257.921C64.908 259.884 64.646 261.847 64.45 263.875C64.254 265.969 64.254 268.063 64.189 270.156C64.123 271.923 64.123 273.691 64.123 275.458C64.123 277.225 64.189 278.99 64.189 280.757C64.189 283.31 64.189 285.926 64.254 288.479C64.319 290.639 64.45 292.796 64.581 294.957C64.646 296.594 64.712 298.229 64.778 299.931C64.843 300.715 64.909 301.436 64.974 302.221C65.171 303.921 65.301 305.689 65.498 307.39C65.759 309.55 65.956 311.71 66.283 313.803C66.545 315.766 66.873 317.729 67.2 319.693C67.397 320.87 67.788 322.048 67.985 323.225C68.116 323.878 68.116 324.534 68.182 325.188C68.247 325.646 68.312 326.169 68.378 326.627C68.378 327.217 68.313 327.805 68.313 328.46C68.313 329.638 68.378 330.749 68.313 331.928C68.248 333.303 68.117 334.741 68.051 336.116C67.92 337.491 67.789 338.8 67.724 340.173C67.659 341.156 67.593 342.136 67.528 343.118C67.528 343.969 67.593 344.819 67.659 345.671C67.724 346.782 67.724 347.961 67.789 349.072C67.789 349.792 67.92 350.578 67.855 351.298C67.855 351.821 67.724 352.344 67.659 352.802C67.463 353.981 67.201 355.092 66.874 356.27C66.481 357.776 66.022 359.281 65.63 360.851C65.237 362.421 64.779 363.993 64.452 365.563C64.059 367.199 63.667 368.834 63.274 370.536C62.947 372.042 62.555 373.546 62.358 375.117C62.293 375.706 62.228 376.359 62.161 377.014C62.031 378.518 61.966 379.957 61.899 381.463C61.834 382.968 61.769 384.473 61.769 385.978C61.769 386.764 61.834 387.615 61.899 388.399C61.965 389.512 62.03 390.624 62.161 391.736C62.293 392.849 62.555 393.896 62.685 395.008C62.882 396.578 63.078 398.149 63.209 399.719C63.339 401.224 63.47 402.663 63.667 404.168C63.929 406.066 64.387 407.964 64.713 409.796C65.04 411.629 65.237 413.525 65.564 415.423C65.695 416.143 65.825 416.862 66.022 417.649C66.219 418.564 66.48 419.416 66.677 420.331C67.07 421.968 67.593 423.538 67.855 425.175C68.051 426.286 68.248 427.464 68.378 428.577C68.509 429.624 68.574 430.604 68.574 431.651C68.639 432.503 68.639 433.418 68.639 434.268C68.639 435.185 68.443 437.017 68.443 437.017" stroke="#5B5B5B" stroke-width="1.792"/>
</g>
<mask id="mask60_845_63091" style="mask-type:luminance" maskUnits="userSpaceOnUse" x="0" y="0" width="221" height="491">
<path d="M220.187 0.700001H0V491H220.187V0.700001Z" fill="white"/>
</mask>
<g mask="url(#mask60_845_63091)">
<path d="M69.0991 435.577C69.0991 435.577 68.6411 436.82 68.5101 437.474C68.3791 438.064 68.3141 438.717 68.1171 439.37C67.9861 439.829 67.7241 440.287 67.5941 440.81C67.3981 441.268 67.2011 441.791 67.0711 442.315C66.9401 442.903 66.8091 443.493 66.7441 444.082C66.6791 444.605 66.6791 445.13 66.7441 445.652C66.8091 446.11 66.8751 446.569 67.0051 446.961C67.0711 447.289 67.2671 447.616 67.3331 448.008C67.3981 448.271 67.3981 448.466 67.3981 448.729V450.039" stroke="#5B5B5B" stroke-width="1.792"/>
</g>
<mask id="mask61_845_63091" style="mask-type:luminance" maskUnits="userSpaceOnUse" x="0" y="0" width="221" height="491">
<path d="M220.187 0.700001H0V491H220.187V0.700001Z" fill="white"/>
</mask>
<g mask="url(#mask61_845_63091)">
<path d="M69.557 446.373C69.557 446.373 68.903 447.879 68.445 448.599C68.118 449.187 67.594 449.71 67.267 450.235C66.875 450.757 66.482 451.283 66.221 451.871C66.024 452.264 66.024 452.722 65.958 453.18C65.893 453.769 65.827 454.358 65.762 454.947C65.697 455.274 65.762 455.602 65.632 455.929C65.501 456.321 65.174 456.582 64.912 456.91C64.715 457.106 64.519 457.303 64.389 457.564C64.193 457.957 64.193 458.415 63.996 458.806C63.8 459.2 63.473 459.527 63.211 459.918C62.884 460.377 62.557 460.77 62.163 461.162C61.706 461.684 61.117 462.078 60.659 462.6C60.201 463.06 59.743 463.517 59.285 463.91C58.957 464.172 58.631 464.368 58.369 464.695C58.107 465.022 57.846 465.415 57.714 465.874C57.583 466.199 57.583 466.593 57.518 466.986C57.453 467.378 57.322 467.705 57.322 468.097C57.322 468.423 57.452 468.687 57.518 468.948C57.583 469.275 57.714 469.668 57.78 469.996C57.845 470.453 57.649 470.976 57.845 471.435C57.976 471.827 58.368 472.089 58.696 472.285C58.957 472.481 59.285 472.679 59.546 472.809C59.873 472.94 60.266 473.005 60.659 473.005H61.248" stroke="#5B5B5B" stroke-width="1.792"/>
</g>
<mask id="mask62_845_63091" style="mask-type:luminance" maskUnits="userSpaceOnUse" x="0" y="0" width="221" height="491">
<path d="M220.187 0.700001H0V491H220.187V0.700001Z" fill="white"/>
</mask>
<g mask="url(#mask62_845_63091)">
<path d="M61.9671 466.986C61.9671 466.986 61.6391 467.312 61.5091 467.508C61.3781 467.835 61.3131 468.162 61.2471 468.489C61.1821 468.815 61.1821 469.21 61.1161 469.536C61.0511 469.995 60.9861 470.388 60.9861 470.846C60.9861 471.368 61.0511 471.958 61.1821 472.481C61.2471 472.743 61.3131 473.07 61.5091 473.332C61.6401 473.528 61.8361 473.659 62.0321 473.726C62.2941 473.857 62.5561 473.857 62.8171 473.857C63.1441 473.857 63.7341 473.792 63.7341 473.792" stroke="#5B5B5B" stroke-width="1.792"/>
</g>
<mask id="mask63_845_63091" style="mask-type:luminance" maskUnits="userSpaceOnUse" x="0" y="0" width="221" height="491">
<path d="M220.187 0.700001H0V491H220.187V0.700001Z" fill="white"/>
</mask>
<g mask="url(#mask63_845_63091)">
<path d="M65.631 467.313C65.631 467.313 65.435 467.902 65.303 468.164C65.173 468.425 64.976 468.557 64.845 468.817C64.78 469.014 64.714 469.276 64.648 469.538C64.583 469.801 64.518 470.061 64.452 470.324C64.387 470.52 64.125 470.651 64.059 470.847C63.994 470.977 64.059 471.173 63.994 471.304C63.929 471.566 63.798 471.827 63.667 472.09C63.601 472.22 63.405 472.285 63.339 472.482C63.209 472.744 63.274 473.136 63.339 473.399C63.405 473.66 63.536 473.922 63.732 474.052C63.993 474.249 64.32 474.315 64.582 474.379C64.91 474.446 65.171 474.446 65.499 474.51H66.35C66.546 474.51 67.004 474.447 67.004 474.447" stroke="#5B5B5B" stroke-width="1.792"/>
</g>
<mask id="mask64_845_63091" style="mask-type:luminance" maskUnits="userSpaceOnUse" x="0" y="0" width="221" height="491">
<path d="M220.187 0.700001H0V491H220.187V0.700001Z" fill="white"/>
</mask>
<g mask="url(#mask64_845_63091)">
<path d="M68.9021 467.771C68.9021 467.771 68.5751 468.294 68.3791 468.556C68.2481 468.817 68.1831 469.079 68.1171 469.342C67.9861 469.603 67.9211 469.864 67.7891 470.125C67.6591 470.323 67.5281 470.52 67.3971 470.78C67.3321 470.976 67.2651 471.239 67.2001 471.435C67.1351 471.696 67.0691 471.958 67.0031 472.285C66.9381 472.547 66.7421 472.809 66.6761 473.136C66.6101 473.332 66.6101 473.595 66.6101 473.791C66.6761 474.118 66.8071 474.379 67.0031 474.642C67.2651 474.904 67.6581 475.1 67.9851 475.165C68.2471 475.229 68.5081 475.165 68.7701 475.165C69.2941 475.1 69.8831 475.033 70.4061 474.969C70.7341 474.904 71.1261 474.838 71.4531 474.772C71.6491 474.707 71.9111 474.642 72.1071 474.51C72.2381 474.379 72.3681 474.249 72.4341 474.052C72.4991 473.922 72.4341 473.726 72.4341 473.726" stroke="#5B5B5B" stroke-width="1.792"/>
</g>
<mask id="mask65_845_63091" style="mask-type:luminance" maskUnits="userSpaceOnUse" x="0" y="0" width="221" height="491">
<path d="M220.187 0.700001H0V491H220.187V0.700001Z" fill="white"/>
</mask>
<g mask="url(#mask65_845_63091)">
<path d="M74.9219 466.921C74.9219 466.921 74.5299 467.574 74.2679 467.901C73.8749 468.359 73.4169 468.687 73.0899 469.079C72.8279 469.342 72.5669 469.602 72.4359 469.931C72.3049 470.257 72.3049 470.584 72.2399 470.912C72.1739 471.304 71.9779 471.696 72.0439 472.09C72.0439 472.482 72.2399 472.81 72.3709 473.202C72.4369 473.463 72.5019 473.725 72.6329 473.922C72.8289 474.249 73.1559 474.51 73.4829 474.772C73.9409 475.034 74.4649 475.296 74.9889 475.361C75.6429 475.427 76.2969 475.297 76.8849 475.166C77.3429 475.101 77.8019 474.97 78.1939 474.839C78.6519 474.707 79.0449 474.577 79.4369 474.316C79.6989 474.184 79.8949 473.988 80.0919 473.793C80.3539 473.465 80.6149 473.204 80.7459 472.812C80.8109 472.549 80.7459 472.288 80.7459 471.961C80.7459 471.634 80.8109 471.306 80.8769 471.045C80.9429 470.782 81.0739 470.259 81.0739 470.259" stroke="#5B5B5B" stroke-width="1.792"/>
</g>
<mask id="mask66_845_63091" style="mask-type:luminance" maskUnits="userSpaceOnUse" x="0" y="0" width="221" height="491">
<path d="M220.187 0.700001H0V491H220.187V0.700001Z" fill="white"/>
</mask>
<g mask="url(#mask66_845_63091)">
<path d="M80.9429 472.285C80.9429 472.285 81.5309 472.09 81.7929 471.892C82.1199 471.631 82.5129 471.369 82.7089 471.042C82.9709 470.649 83.1019 470.124 83.2319 469.602C83.3629 469.079 83.4279 468.49 83.4279 467.965C83.4939 467.377 83.5599 466.723 83.4279 466.069C83.2979 465.479 83.0359 464.956 82.8399 464.367C82.6429 463.843 82.5119 463.32 82.1859 462.862C81.9889 462.534 81.6619 462.272 81.3349 462.011C81.1389 461.815 80.6809 461.552 80.6809 461.552" stroke="#5B5B5B" stroke-width="1.792"/>
</g>
<mask id="mask67_845_63091" style="mask-type:luminance" maskUnits="userSpaceOnUse" x="0" y="0" width="221" height="491">
<path d="M220.187 0.700001H0V491H220.187V0.700001Z" fill="white"/>
</mask>
<g mask="url(#mask67_845_63091)">
<path d="M81.793 462.34C81.793 462.34 81.924 461.228 81.989 460.638C81.989 460.312 81.924 459.918 81.989 459.592C82.055 459.199 82.251 458.871 82.317 458.545C82.448 457.891 82.513 457.235 82.579 456.647C82.645 456.059 82.775 455.469 82.775 454.879C82.775 454.553 82.775 454.226 82.841 453.9C82.906 453.506 83.233 453.179 83.299 452.721C83.364 452.459 83.234 452.198 83.234 451.87V450.953C83.299 450.431 83.43 449.907 83.43 449.449V448.663C83.496 447.944 83.627 447.225 83.758 446.504C83.954 445.588 84.281 444.673 84.478 443.691C84.609 443.101 84.74 442.578 84.674 441.99C84.609 441.532 84.412 441.137 84.281 440.746C84.151 440.223 84.085 439.699 83.888 439.241C83.626 438.456 83.234 437.802 82.907 437.016C82.776 436.623 82.449 435.904 82.449 435.904" stroke="#5B5B5B" stroke-width="1.792"/>
</g>
<mask id="mask68_845_63091" style="mask-type:luminance" maskUnits="userSpaceOnUse" x="0" y="0" width="221" height="491">
<path d="M220.187 0.700001H0V491H220.187V0.700001Z" fill="white"/>
</mask>
<g mask="url(#mask68_845_63091)">
<path d="M83.232 442.251C83.232 442.251 82.905 440.746 82.84 439.961C82.774 439.371 82.774 438.783 82.774 438.194C82.774 437.605 82.84 437.081 82.774 436.493C82.709 436.034 82.578 435.512 82.447 435.053C82.316 434.4 82.186 433.745 82.054 433.156C81.923 432.503 81.792 431.847 81.726 431.193C81.661 430.67 81.792 430.147 81.726 429.624C81.661 428.707 81.334 427.791 81.268 426.875C81.203 426.024 81.333 425.175 81.398 424.323C81.463 423.144 81.529 422.032 81.725 420.855C81.987 419.545 82.445 418.303 82.772 417.06C83.099 415.882 83.492 414.638 83.819 413.459C84.08 412.412 84.342 411.366 84.539 410.32C84.735 409.402 84.801 408.486 84.997 407.571C85.258 406.262 85.455 405.018 85.782 403.71C86.109 402.468 86.502 401.29 86.96 400.111C87.353 399 87.941 397.886 88.334 396.774C88.988 395.072 89.578 393.306 90.101 391.54C90.362 390.559 90.69 389.576 90.821 388.529C90.952 387.614 90.887 386.763 90.887 385.846C90.821 384.734 90.69 383.687 90.625 382.64C90.494 381.265 90.297 379.956 90.167 378.583C90.102 377.144 90.102 375.704 90.036 374.33C90.036 373.675 89.906 373.021 89.906 372.432C89.906 371.712 89.971 371.057 89.971 370.337C89.971 369.748 89.906 369.095 90.036 368.505C90.101 368.114 90.233 367.721 90.429 367.328C90.821 366.477 91.344 365.691 91.803 364.842C92.392 363.795 93.112 362.813 93.701 361.766C94.159 360.916 94.617 360.066 95.075 359.214C95.598 358.103 96.122 356.924 96.58 355.746C97.038 354.634 97.627 353.521 98.019 352.343C98.412 351.165 98.804 350.053 99 348.811C99.196 347.829 99.196 346.848 99.262 345.931C99.327 344.557 99.327 343.248 99.262 341.874C99.197 340.696 98.935 339.519 98.87 338.275C98.804 337.163 98.87 335.985 98.87 334.873V331.339C98.87 329.377 98.804 327.413 98.804 325.45C98.804 323.878 98.87 322.308 99 320.739C99 320.085 99.066 319.429 99.131 318.842C99.261 317.793 99.393 316.747 99.589 315.7C99.785 314.391 100.111 313.017 100.308 311.71C100.505 310.334 100.635 308.895 100.897 307.521C101.094 306.474 101.421 305.428 101.616 304.38C101.944 302.612 102.009 300.847 102.337 299.08C102.598 297.64 103.056 296.332 103.383 294.892C103.711 293.387 104.037 291.883 104.234 290.377C104.496 288.807 104.626 287.236 104.757 285.666C104.953 283.899 105.149 282.132 105.214 280.365C105.28 278.533 105.214 276.701 105.214 274.803C105.214 273.625 105.149 271.269 105.149 271.269" stroke="#5B5B5B" stroke-width="1.792"/>
</g>
<mask id="mask69_845_63091" style="mask-type:luminance" maskUnits="userSpaceOnUse" x="0" y="0" width="221" height="491">
<path d="M220.187 0.700001H0V491H220.187V0.700001Z" fill="white"/>
</mask>
<g mask="url(#mask69_845_63091)">
<path d="M114.706 271.205C114.706 271.205 114.642 273.627 114.642 274.805C114.642 276.899 114.575 278.993 114.706 281.087C114.771 282.723 114.969 284.358 115.164 285.994C115.295 287.237 115.361 288.48 115.558 289.658C115.884 291.621 116.278 293.584 116.736 295.547C117.194 297.577 117.782 299.539 118.175 301.567C118.502 303.073 118.632 304.643 118.895 306.149C119.156 307.719 119.484 309.355 119.745 310.924C120.009 312.692 120.138 314.458 120.335 316.226C120.466 317.01 120.596 317.73 120.663 318.515C120.792 319.758 120.988 320.937 121.056 322.179C121.056 322.833 120.989 323.554 120.989 324.207C120.989 326.235 121.056 328.265 121.056 330.228C121.056 331.996 121.12 333.696 121.12 335.462C121.056 337.818 120.858 340.173 120.792 342.528C120.728 344.034 120.596 345.539 120.728 347.044C120.859 348.157 121.121 349.27 121.447 350.381C121.775 351.494 122.233 352.541 122.626 353.588C123.149 354.897 123.607 356.141 124.132 357.448C124.72 358.758 125.44 360.066 126.094 361.374C126.749 362.617 127.533 363.861 128.189 365.103C128.45 365.627 128.778 366.151 129.04 366.739C129.301 367.329 129.563 367.852 129.759 368.441C129.89 369.029 129.89 369.684 129.89 370.273C129.955 371.385 129.89 372.563 129.89 373.675C129.89 375.377 129.826 377.013 129.695 378.714C129.63 379.825 129.564 381.004 129.432 382.116C129.301 383.359 129.04 384.536 128.974 385.78C128.974 386.369 128.974 386.958 129.106 387.548C129.237 388.726 129.498 389.902 129.826 391.081C130.087 392.129 130.414 393.108 130.742 394.091C131.004 394.876 131.331 395.661 131.593 396.446C132.246 398.213 132.967 399.979 133.556 401.747C134.013 403.12 134.407 404.56 134.734 405.999C134.996 407.374 135.126 408.748 135.387 410.122C135.65 411.3 135.912 412.477 136.239 413.655C136.566 415.03 137.09 416.338 137.417 417.647C137.613 418.562 137.81 419.479 137.939 420.395C138.136 421.638 138.463 422.882 138.529 424.19C138.595 425.236 138.661 426.284 138.595 427.332C138.529 428.443 138.267 429.622 138.136 430.735C138.006 431.781 138.006 432.893 137.874 433.94C137.742 434.791 137.416 435.576 137.285 436.426C137.22 437.079 137.35 437.734 137.285 438.389C137.22 438.977 137.089 439.502 137.023 440.089C136.959 440.744 137.023 442.119 137.023 442.119" stroke="#5B5B5B" stroke-width="1.792"/>
</g>
<mask id="mask70_845_63091" style="mask-type:luminance" maskUnits="userSpaceOnUse" x="0" y="0" width="221" height="491">
<path d="M220.187 0.700001H0V491H220.187V0.700001Z" fill="white"/>
</mask>
<g mask="url(#mask70_845_63091)">
<path d="M89.841 367.853C89.841 367.853 86.8319 370.338 85.5239 371.713C84.1489 373.152 81.7939 376.359 81.7939 376.359" stroke="#5B5B5B" stroke-width="1.792"/>
</g>
<mask id="mask71_845_63091" style="mask-type:luminance" maskUnits="userSpaceOnUse" x="0" y="0" width="221" height="491">
<path d="M220.187 0.700001H0V491H220.187V0.700001Z" fill="white"/>
</mask>
<g mask="url(#mask71_845_63091)">
<path d="M129.626 368.179C129.626 368.179 132.177 372.105 133.355 374.069C134.402 375.771 136.298 379.173 136.298 379.173" stroke="#5B5B5B" stroke-width="1.792"/>
</g>
<mask id="mask72_845_63091" style="mask-type:luminance" maskUnits="userSpaceOnUse" x="0" y="0" width="221" height="491">
<path d="M220.187 0.700001H0V491H220.187V0.700001Z" fill="white"/>
</mask>
<g mask="url(#mask72_845_63091)">
<path d="M137.15 436.23C137.15 436.23 136.627 437.148 136.43 437.605C136.298 438.064 136.234 438.521 136.103 438.915C135.972 439.371 135.776 439.83 135.645 440.288C135.514 440.746 135.382 441.204 135.318 441.662C135.253 441.99 135.187 442.382 135.187 442.71C135.187 442.971 135.187 443.233 135.252 443.43C135.317 443.692 135.382 444.019 135.448 444.281C135.578 444.87 135.841 445.459 135.971 446.048C136.102 446.571 136.102 447.16 136.233 447.749C136.297 448.01 136.429 448.207 136.495 448.468C136.56 448.731 136.495 449.058 136.495 449.32C136.495 449.582 136.43 449.843 136.43 450.105C136.495 450.367 136.626 450.564 136.692 450.824C136.757 451.088 136.757 451.348 136.757 451.61C136.757 451.872 136.626 452.067 136.626 452.33C136.626 452.854 136.954 453.246 137.019 453.769C137.084 454.096 137.019 454.358 137.019 454.685C137.019 455.013 137.15 455.339 137.215 455.667C137.28 456.059 137.411 456.386 137.477 456.779C137.542 457.171 137.412 457.564 137.477 457.891C137.542 458.218 137.738 458.479 137.804 458.806C137.869 459.265 137.869 459.658 137.869 460.116C137.869 460.573 137.933 460.966 137.933 461.425C137.933 461.686 138.065 462.275 138.065 462.275" stroke="#5B5B5B" stroke-width="1.792"/>
</g>
<mask id="mask73_845_63091" style="mask-type:luminance" maskUnits="userSpaceOnUse" x="0" y="0" width="221" height="491">
<path d="M220.187 0.700001H0V491H220.187V0.700001Z" fill="white"/>
</mask>
<g mask="url(#mask73_845_63091)">
<path d="M139.506 460.9C139.506 460.9 138.917 461.488 138.591 461.751C138.328 462.013 138.002 462.273 137.805 462.535C137.609 462.863 137.478 463.19 137.282 463.517C137.02 464.107 136.693 464.629 136.562 465.218C136.431 465.676 136.367 466.134 136.367 466.592C136.367 467.05 136.431 467.443 136.431 467.901C136.431 468.359 136.431 468.816 136.562 469.211C136.693 469.8 136.823 470.323 137.151 470.847C137.347 471.173 137.675 471.501 138.003 471.762C138.264 471.893 138.786 472.09 138.786 472.09" stroke="#5B5B5B" stroke-width="1.792"/>
</g>
<mask id="mask74_845_63091" style="mask-type:luminance" maskUnits="userSpaceOnUse" x="0" y="0" width="221" height="491">
<path d="M220.187 0.700001H0V491H220.187V0.700001Z" fill="white"/>
</mask>
<g mask="url(#mask74_845_63091)">
<path d="M138.656 470.453C138.656 470.453 138.852 470.912 138.917 471.173C138.982 471.436 138.917 471.762 138.982 472.024C139.047 472.352 139.178 472.614 139.31 472.941C139.505 473.268 139.702 473.66 139.964 473.922C140.29 474.183 140.747 474.379 141.141 474.51C141.73 474.772 142.384 474.904 143.038 475.033C143.496 475.099 144.019 475.165 144.544 475.165C144.937 475.165 145.394 475.165 145.786 475.1C146.245 474.969 146.703 474.838 147.03 474.51C147.292 474.249 147.423 473.857 147.552 473.463C147.749 473.006 147.88 472.482 147.88 471.959C147.88 471.632 147.815 471.239 147.749 470.912C147.685 470.584 147.618 470.323 147.422 469.996C147.226 469.668 146.963 469.406 146.768 469.079C146.505 468.753 146.309 468.49 146.048 468.163C145.722 467.836 145.262 467.64 144.936 467.247C144.739 466.986 144.414 466.331 144.414 466.331" stroke="#5B5B5B" stroke-width="1.792"/>
</g>
<mask id="mask75_845_63091" style="mask-type:luminance" maskUnits="userSpaceOnUse" x="0" y="0" width="221" height="491">
<path d="M220.187 0.700001H0V491H220.187V0.700001Z" fill="white"/>
</mask>
<g mask="url(#mask75_845_63091)">
<path d="M158.743 472.81C158.743 472.81 159.397 472.941 159.725 472.874C160.118 472.874 160.51 472.81 160.837 472.613C161.164 472.481 161.49 472.285 161.687 472.023C161.885 471.761 162.081 471.435 162.146 471.107C162.211 470.846 162.146 470.584 162.211 470.388V469.8C162.276 469.537 162.407 469.211 162.474 468.948C162.538 468.621 162.669 468.229 162.604 467.901C162.604 467.574 162.474 467.312 162.341 467.05C162.277 466.723 162.146 466.397 162.015 466.07C161.885 465.742 161.752 465.415 161.557 465.152C161.427 464.957 161.295 464.76 161.098 464.563C160.903 464.302 160.64 464.04 160.378 463.843C160.117 463.648 159.79 463.45 159.527 463.254C159.267 462.993 159.005 462.731 158.742 462.471C158.547 462.208 158.35 461.947 158.154 461.684C157.891 461.423 157.564 461.291 157.369 461.031C157.172 460.835 157.041 460.704 156.846 460.508C156.583 460.245 156.323 459.918 156.125 459.592C155.929 459.329 155.798 459.003 155.668 458.675C155.471 458.218 155.341 457.694 155.145 457.302C154.948 456.975 154.622 456.712 154.424 456.385C154.228 456.058 154.098 455.601 153.902 455.273C153.706 454.946 153.508 454.62 153.312 454.293C153.116 453.966 152.919 453.572 152.722 453.245C152.461 452.853 152.002 452.066 152.002 452.066" stroke="#5B5B5B" stroke-width="1.792"/>
</g>
<mask id="mask76_845_63091" style="mask-type:luminance" maskUnits="userSpaceOnUse" x="0" y="0" width="221" height="491">
<path d="M220.187 0.700001H0V491H220.187V0.700001Z" fill="white"/>
</mask>
<g mask="url(#mask76_845_63091)">
<path d="M147.357 473.856C147.357 473.856 147.751 474.314 148.077 474.446C148.471 474.641 148.93 474.706 149.387 474.771C149.844 474.837 150.303 474.837 150.761 474.837C151.284 474.837 151.808 475.032 152.332 474.902C152.593 474.77 152.855 474.575 152.986 474.313C153.05 474.181 153.05 473.92 153.05 473.79C153.05 473.462 153.115 473.135 153.05 472.873C152.986 472.612 152.789 472.415 152.722 472.154C152.658 472.022 152.658 471.826 152.658 471.631C152.658 471.435 152.593 471.303 152.593 471.107C152.527 470.912 152.462 470.714 152.332 470.519C152.267 470.388 152.136 470.192 152.069 470.06C152.003 469.864 151.939 469.602 151.807 469.406C151.743 469.211 151.676 468.948 151.545 468.753C151.414 468.556 151.218 468.49 151.087 468.294C151.022 468.098 151.022 467.705 151.022 467.705" stroke="#5B5B5B" stroke-width="1.792"/>
</g>
<mask id="mask77_845_63091" style="mask-type:luminance" maskUnits="userSpaceOnUse" x="0" y="0" width="221" height="491">
<path d="M220.187 0.700001H0V491H220.187V0.700001Z" fill="white"/>
</mask>
<g mask="url(#mask77_845_63091)">
<path d="M152.986 474.51C152.986 474.51 153.706 474.51 154.032 474.447C154.49 474.38 154.948 474.447 155.406 474.315C155.669 474.25 155.865 474.052 156.061 473.857C156.192 473.726 156.387 473.529 156.453 473.333C156.519 473.137 156.518 472.875 156.453 472.614C156.388 472.352 156.323 472.091 156.192 471.893C156.126 471.762 155.996 471.697 155.929 471.632C155.798 471.501 155.733 471.304 155.668 471.108C155.668 470.977 155.668 470.847 155.602 470.715C155.537 470.584 155.471 470.389 155.406 470.257C155.342 470.125 155.275 470.061 155.21 469.931C155.146 469.8 155.21 469.603 155.21 469.472C155.21 469.342 155.146 469.145 155.079 469.014C155.014 468.884 154.948 468.753 154.817 468.621C154.753 468.49 154.622 468.294 154.556 468.163C154.49 468.033 154.49 467.836 154.49 467.836" stroke="#5B5B5B" stroke-width="1.792"/>
</g>
<mask id="mask78_845_63091" style="mask-type:luminance" maskUnits="userSpaceOnUse" x="0" y="0" width="221" height="491">
<path d="M220.187 0.700001H0V491H220.187V0.700001Z" fill="white"/>
</mask>
<g mask="url(#mask78_845_63091)">
<path d="M156.126 473.726C156.126 473.726 156.649 473.857 156.847 473.857C156.978 473.857 157.37 473.792 157.566 473.726C157.829 473.66 158.089 473.595 158.286 473.399C158.483 473.268 158.614 473.071 158.68 472.875C158.744 472.614 158.68 472.353 158.68 472.091C158.68 471.437 158.875 470.848 158.875 470.258C158.875 469.801 158.744 469.407 158.744 468.949C158.744 468.622 158.81 468.295 158.68 467.967C158.615 467.837 158.484 467.706 158.353 467.575C158.287 467.51 158.09 467.313 158.09 467.313" stroke="#5B5B5B" stroke-width="1.792"/>
</g>
<mask id="mask79_845_63091" style="mask-type:luminance" maskUnits="userSpaceOnUse" x="0" y="0" width="221" height="491">
<path d="M220.187 0.700001H0V491H220.187V0.700001Z" fill="white"/>
</mask>
<g mask="url(#mask79_845_63091)">
<path d="M157.37 461.031C156.172 459.827 155.669 458.675 155.669 458.675C155.732 458.029 154.608 456.64 154.608 456.64L154.163 455.273C154.163 455.273 154.032 454.684 154.032 454.422C153.967 453.965 153.967 453.506 153.902 453.112C153.836 452.72 153.769 452.262 153.575 451.935C153.444 451.608 153.116 451.346 152.92 451.019C152.723 450.693 152.462 450.365 152.267 450.103C152.003 449.709 151.612 449.383 151.415 448.926C151.284 448.662 151.088 448.075 151.088 448.075" stroke="#5B5B5B" stroke-width="1.792"/>
</g>
<mask id="mask80_845_63091" style="mask-type:luminance" maskUnits="userSpaceOnUse" x="0" y="0" width="221" height="491">
<path d="M220.187 0.700001H0V491H220.187V0.700001Z" fill="white"/>
</mask>
<g mask="url(#mask80_845_63091)">
<path d="M152.332 450.104C152.332 450.104 152.267 449.646 152.267 449.384C152.267 448.927 152.267 448.533 152.332 448.076C152.397 447.682 152.462 447.29 152.593 446.962C152.723 446.637 152.92 446.308 153.051 445.982C153.182 445.459 153.182 444.934 153.182 444.412C153.182 443.888 153.117 443.365 153.051 442.842C152.987 442.447 152.92 441.991 152.723 441.598C152.593 441.335 152.398 441.139 152.267 440.879C152.003 440.356 151.872 439.767 151.744 439.242C151.678 438.916 151.547 438.522 151.481 438.13C151.35 437.279 151.219 436.429 151.154 435.578C151.089 434.989 151.089 433.942 151.089 433.81C151.089 433.68 151.154 432.24 151.22 431.456C151.285 430.737 151.351 429.95 151.416 429.23C151.481 428.38 151.612 427.53 151.744 426.678C151.873 425.957 151.94 425.238 152.07 424.519C152.267 423.472 152.791 421.64 152.791 421.508C152.856 421.377 153.248 419.741 153.51 418.892C153.771 417.779 154.033 416.666 154.23 415.555C154.426 414.638 154.492 413.657 154.624 412.741C154.755 412.022 154.95 411.236 155.081 410.516C155.408 408.62 155.671 406.721 155.932 404.824C156.064 403.777 156.195 402.794 156.26 401.749C156.39 400.57 156.521 399.393 156.586 398.149C156.717 397.102 156.717 395.989 156.914 394.943C157.044 393.962 157.436 392.98 157.567 391.999C157.698 391.083 157.698 390.166 157.83 389.185C157.894 388.205 158.091 387.157 158.091 386.175C158.091 385.193 157.962 384.212 157.962 383.295C157.962 382.642 157.895 381.922 157.895 381.267C157.895 380.353 157.895 379.37 157.831 378.454C157.765 377.275 157.568 376.099 157.373 374.919C157.241 374.069 157.045 373.219 156.915 372.369C156.784 371.517 156.587 370.667 156.391 369.816C156.261 369.096 156.129 368.442 155.933 367.722C155.606 366.347 155.149 364.974 154.821 363.664C154.56 362.813 154.299 361.963 154.102 361.048C153.906 360.196 153.839 359.28 153.643 358.43C153.448 357.645 153.054 356.925 152.859 356.204C152.662 355.616 152.662 354.961 152.465 354.373C152.401 354.045 152.203 353.784 152.139 353.456C152.006 352.868 152.073 352.278 152.006 351.689C152.006 351.035 151.943 350.38 151.943 349.727C151.943 349.072 151.943 348.352 152.006 347.698C152.006 346.782 152.072 345.082 152.139 344.95C152.203 344.819 152.139 343.772 152.073 343.182C152.073 342.399 152.007 341.678 152.007 340.893C151.944 339.519 151.812 338.144 151.747 336.836C151.681 335.724 151.747 334.546 151.681 333.434C151.616 332.255 151.485 331.078 151.419 329.834C151.419 329.181 151.419 328.46 151.354 327.805C151.354 327.152 151.289 326.497 151.354 325.843C151.419 325.188 151.681 324.533 151.812 323.878C152.007 323.096 152.14 322.243 152.271 321.459C152.466 320.15 152.727 318.905 152.86 317.598C153.055 316.225 153.252 314.785 153.449 313.41C153.644 311.84 153.711 310.334 153.907 308.764C154.103 306.931 154.429 305.1 154.627 303.267C154.822 301.501 155.084 298.163 155.084 297.967C155.084 297.835 155.15 295.415 155.215 294.172C155.215 292.993 155.28 291.817 155.28 290.572C155.346 288.805 155.411 286.973 155.411 285.207C155.476 282.654 155.607 280.037 155.674 277.485C155.674 275.326 155.674 273.167 155.608 271.073C155.543 269.895 155.543 268.717 155.477 267.605C155.347 265.052 155.215 262.501 154.954 260.014C154.759 258.509 154.496 256.938 154.234 255.433C154.038 254.19 153.908 252.948 153.712 251.638C153.646 251.049 153.45 250.526 153.45 249.937C153.385 248.956 153.45 247.972 153.514 246.993C153.514 246.142 153.58 245.293 153.58 244.376C153.514 241.956 153.384 239.599 153.121 237.178C152.991 236.196 152.86 235.215 152.663 234.233C152.531 233.514 152.402 232.728 152.271 232.009C151.748 229.523 151.092 227.035 150.503 224.549C150.241 223.175 149.981 221.8 149.717 220.492C149.391 218.791 149.129 217.09 148.737 215.388C148.541 214.472 148.279 213.621 148.148 212.771C148.082 212.444 148.017 212.052 148.017 211.856C148.017 211.659 148.017 210.677 148.081 210.088C148.081 209.303 148.147 208.452 148.147 207.667C148.147 206.883 148.016 206.096 147.885 205.312C147.754 204.07 147.623 202.761 147.492 201.517C147.296 200.079 147.165 198.638 146.902 197.265C146.707 196.153 146.313 194.123 146.249 193.927C146.184 193.732 145.856 191.114 145.659 189.674C145.53 188.823 145.332 187.973 145.202 187.123C145.137 186.468 145.071 185.748 145.006 185.095C144.941 184.244 144.875 183.458 144.941 182.608C145.006 181.627 145.137 180.646 145.267 179.664C145.398 178.747 145.531 177.831 145.594 176.851C145.659 175.804 145.659 174.757 145.727 173.709C145.79 172.925 145.79 172.074 145.857 171.289C145.988 170.045 146.184 168.867 146.25 167.624C146.314 166.707 146.25 165.791 146.25 164.875C146.25 163.829 146.314 162.782 146.314 161.8C146.314 161.21 146.25 160.557 146.25 159.967C146.25 159.64 146.25 159.247 146.381 158.985C146.446 158.92 146.511 158.855 146.511 158.724C146.642 158.266 146.511 157.807 146.511 157.35C146.447 155.517 146.25 153.75 146.185 151.919C146.119 149.956 146.054 147.993 145.989 146.03C145.923 144.329 145.792 142.627 145.858 140.926C145.858 140.468 145.922 140.009 145.989 139.551C146.119 138.963 146.185 138.373 146.447 137.849C146.709 137.325 147.101 136.868 147.428 136.345C147.886 135.69 148.409 135.036 148.802 134.316C149.129 133.596 149.522 132.026 149.522 132.026" stroke="#5B5B5B" stroke-width="1.792"/>
</g>
<mask id="mask81_845_63091" style="mask-type:luminance" maskUnits="userSpaceOnUse" x="0" y="0" width="221" height="491">
<path d="M220.187 0.700001H0V491H220.187V0.700001Z" fill="white"/>
</mask>
<g mask="url(#mask81_845_63091)">
<path d="M146.507 158.593C146.507 158.593 146.574 160.032 146.638 160.752C146.77 161.929 146.9 163.108 147.097 164.221C147.293 165.595 147.62 167.034 147.882 168.409C148.077 169.521 148.341 170.634 148.601 171.811C148.864 173.251 149.125 174.756 149.387 176.261C149.583 177.308 149.844 178.42 150.041 179.468C150.237 180.448 150.563 181.365 150.631 182.346C150.695 183.067 150.631 183.721 150.631 184.44C150.631 185.159 150.564 185.944 150.499 186.664C150.434 187.319 150.303 187.907 150.237 188.497C150.237 189.085 150.302 189.674 150.368 190.198C150.433 190.591 150.631 190.852 150.695 191.246C150.76 191.507 150.695 191.768 150.695 192.031C150.695 192.62 150.695 193.144 150.76 193.733C150.825 194.125 150.825 194.518 150.956 194.911C151.087 195.369 151.283 195.826 151.479 196.283C151.544 196.546 151.675 196.873 151.742 197.135C151.871 197.723 151.938 198.378 152.002 198.968C152.068 199.426 152.002 199.949 152.135 200.473C152.331 201.258 152.789 201.977 153.115 202.697C153.508 203.548 153.966 204.333 154.424 205.118C155.013 206.231 155.536 207.409 155.995 208.52C156.583 209.829 157.041 211.204 157.631 212.513C158.088 213.624 158.678 214.737 159.135 215.784C159.725 217.158 160.444 218.467 160.968 219.841C161.621 221.477 162.08 223.243 162.669 224.945C163.193 226.449 163.717 227.89 164.175 229.394C164.371 229.983 164.436 230.572 164.632 231.095C164.829 231.618 165.09 232.142 165.286 232.666C165.548 233.255 165.809 233.843 166.072 234.433C166.202 234.695 166.399 235.021 166.53 235.285C166.725 235.743 166.923 236.267 167.119 236.724C167.314 237.246 167.577 237.705 167.839 238.228C168.101 238.686 168.361 239.013 168.623 239.471C168.755 239.734 168.886 239.995 168.95 240.256C169.015 240.518 168.95 240.845 168.95 241.173C168.95 241.828 168.886 242.416 168.886 243.07C168.886 244.05 169.016 244.968 169.147 245.95C169.28 246.997 169.343 248.044 169.54 249.025C169.67 249.81 169.934 250.596 170.194 251.38C170.457 252.1 170.914 252.819 171.242 253.538C171.7 254.521 172.094 255.436 172.55 256.418C172.813 257.007 173.073 257.531 173.336 258.12C173.597 258.708 173.729 259.298 173.99 259.887C174.185 260.281 174.513 260.607 174.645 261.064C174.774 261.328 174.709 261.654 174.839 261.916C174.972 262.243 175.232 262.505 175.298 262.831C175.362 263.159 175.298 263.487 175.362 263.813C175.428 264.336 175.495 264.794 175.495 265.317C175.559 266.038 175.495 266.693 175.495 267.413C175.495 267.739 175.559 268.002 175.559 268.329C175.559 269.18 175.559 269.964 175.495 270.815V272.778C175.495 273.236 175.495 273.629 175.559 274.086C175.624 274.48 175.886 274.873 176.017 275.265C176.149 275.592 176.213 275.986 176.344 276.377C176.409 276.573 176.54 276.835 176.671 277.032C176.867 277.293 177.063 277.489 177.325 277.621C177.52 277.685 177.652 277.751 177.849 277.751C178.11 277.751 178.371 277.751 178.569 277.621C178.764 277.489 178.83 277.293 178.896 277.097C179.026 276.901 179.157 276.77 179.223 276.574C179.287 276.312 179.223 276.051 179.223 275.789C179.223 274.808 179.157 273.892 179.157 272.91C179.157 272.32 179.157 271.797 179.223 271.208C179.223 270.75 179.223 270.358 179.287 269.9C179.287 269.507 179.223 269.115 179.352 268.721C179.418 268.525 179.548 268.329 179.615 268.133C179.745 267.739 179.745 267.28 179.745 266.89C179.745 266.367 179.745 265.908 179.679 265.385C179.679 265.189 179.549 264.991 179.549 264.795C179.549 264.664 179.484 264.534 179.549 264.403C179.615 264.271 179.615 264.14 179.745 264.075H179.941C180.073 264.14 180.137 264.207 180.203 264.337C180.269 264.467 180.268 264.599 180.334 264.73C180.398 264.992 180.465 265.189 180.531 265.451C180.595 265.845 180.726 266.17 180.792 266.562C180.858 266.955 180.792 267.414 180.858 267.871C180.858 268.461 180.858 269.115 180.922 269.704C180.922 270.097 180.987 270.488 181.053 270.881C181.118 271.143 181.25 271.471 181.315 271.733C181.445 272.126 181.642 272.453 181.774 272.844C181.969 273.498 182.1 274.154 182.231 274.874C182.363 275.463 182.363 276.116 182.494 276.705C182.624 277.359 182.755 278.013 182.951 278.668C183.082 279.323 183.344 279.912 183.475 280.5C183.605 280.958 183.671 281.481 183.801 281.875C183.932 282.202 184.064 282.463 184.325 282.726C184.521 282.922 184.718 283.053 184.913 283.118C185.11 283.183 185.307 283.183 185.502 283.183C185.765 283.183 185.96 283.118 186.223 283.053C186.419 282.987 186.68 282.987 186.877 282.791C187.139 282.595 187.335 282.333 187.466 282.07C187.531 281.744 187.466 281.481 187.401 281.155C187.401 280.828 187.401 280.5 187.336 280.173C187.27 279.78 187.074 279.453 187.008 279.127C186.812 278.406 186.812 277.687 186.681 276.967C186.55 276.313 186.355 275.658 186.224 275.004C186.092 274.415 186.028 273.761 185.961 273.172C185.896 272.715 185.831 272.32 185.766 271.863C185.701 271.405 185.766 270.881 185.701 270.358C185.636 269.9 185.636 269.377 185.504 268.918C185.373 268.525 185.178 268.199 185.046 267.806C184.915 267.479 184.915 267.086 184.785 266.695C184.72 266.499 184.589 266.236 184.523 266.04C184.523 265.846 184.458 265.647 184.588 265.517C184.719 265.387 184.914 265.453 185.111 265.453C185.241 265.453 185.307 265.453 185.438 265.517C185.634 265.648 185.7 265.975 185.765 266.171C185.895 266.564 185.895 266.956 186.027 267.349C186.157 268.004 186.223 268.659 186.354 269.246C186.419 269.573 186.615 269.835 186.68 270.162C186.811 270.489 186.877 270.751 186.944 271.079C186.944 271.274 186.878 271.472 186.944 271.668C187.007 272.062 187.204 272.388 187.401 272.78C187.597 273.238 187.924 273.631 188.12 274.088C188.384 274.678 188.514 275.332 188.71 275.987C188.841 276.51 189.037 277.034 189.167 277.556C189.298 278.013 189.298 278.473 189.364 278.931C189.494 279.519 189.692 280.042 189.821 280.632C189.953 281.155 189.953 281.744 190.084 282.333C190.149 282.595 190.215 282.856 190.347 283.053C190.476 283.315 190.673 283.575 190.935 283.772C191.197 283.904 191.458 284.035 191.785 284.035C192.113 284.035 192.506 283.969 192.833 283.772C193.161 283.576 193.357 283.249 193.553 282.987C193.749 282.66 193.88 282.334 193.88 282.006C193.945 281.549 193.88 281.091 193.815 280.633C193.75 280.043 193.684 279.39 193.62 278.801C193.488 277.95 193.358 277.099 193.162 276.247C192.899 275.2 192.572 274.154 192.375 273.041C192.18 272.19 192.114 271.274 191.786 270.489C191.592 270.031 191.329 269.573 191.067 269.116C190.805 268.592 190.608 268.069 190.348 267.546C190.019 266.826 189.758 266.106 189.495 265.387C189.365 265.059 189.235 264.732 189.168 264.406C189.168 264.274 189.168 264.078 189.235 263.947C189.298 263.751 189.43 263.62 189.627 263.554C189.758 263.49 189.889 263.49 190.085 263.554C190.281 263.619 190.477 263.816 190.607 264.012C190.935 264.339 191.066 264.797 191.261 265.256C191.524 265.909 191.72 266.628 191.982 267.282C192.113 267.676 192.178 268.069 192.31 268.462C192.505 268.855 192.832 269.182 193.094 269.573C193.29 269.966 193.487 270.359 193.683 270.751C193.879 271.274 194.076 271.733 194.273 272.258C194.468 272.845 194.6 273.499 194.797 274.088C195.057 274.809 195.319 275.594 195.58 276.314C195.842 276.903 196.169 277.557 196.431 278.147C196.563 278.474 196.627 278.801 196.889 279.061C197.086 279.193 197.283 279.325 197.478 279.39C197.74 279.454 198.002 279.52 198.264 279.454C198.526 279.39 198.786 279.324 198.983 279.192C199.246 278.996 199.442 278.8 199.573 278.538C199.703 278.277 199.835 277.95 199.9 277.623C199.965 277.099 199.9 276.511 199.835 275.987C199.77 275.463 199.637 274.875 199.508 274.35C199.377 273.827 199.18 273.303 198.984 272.78C198.788 272.126 198.591 271.471 198.395 270.817C198.2 270.228 197.937 269.638 197.741 268.984C197.611 268.462 197.479 267.937 197.348 267.415C197.153 266.892 196.956 266.368 196.76 265.846C196.498 265.125 196.106 264.406 195.843 263.619C195.648 263.097 195.451 262.507 195.254 261.918C194.992 261.264 194.665 260.675 194.469 260.021C194.404 259.694 194.338 259.366 194.274 259.04C194.209 258.582 194.077 258.188 194.011 257.731C193.945 257.274 193.946 256.749 193.88 256.226C193.815 255.964 193.684 255.637 193.619 255.375C193.487 254.851 193.421 254.327 193.357 253.805C193.291 253.215 193.161 252.561 193.224 251.972C193.224 251.383 193.42 250.729 193.487 250.14C193.552 249.747 193.619 249.421 193.619 249.028C193.683 248.702 193.749 248.047 193.749 248.047" stroke="#5B5B5B" stroke-width="1.792"/>
</g>
<mask id="mask82_845_63091" style="mask-type:luminance" maskUnits="userSpaceOnUse" x="0" y="0" width="221" height="491">
<path d="M220.187 0.700001H0V491H220.187V0.700001Z" fill="white"/>
</mask>
<g mask="url(#mask82_845_63091)">
<path d="M191.919 246.995C191.919 246.995 192.313 246.93 192.508 246.995C192.835 247.06 193.097 247.192 193.36 247.388C193.686 247.585 193.882 247.911 194.144 248.174C194.603 248.631 195.125 249.024 195.519 249.482C195.912 249.875 196.369 250.267 196.63 250.725C196.826 250.988 196.892 251.314 197.023 251.576C197.286 251.969 197.547 252.361 197.874 252.756C198.137 253.016 198.397 253.212 198.66 253.409C199.182 253.802 199.639 254.259 200.229 254.587C200.752 254.848 201.342 254.914 201.931 255.045C202.389 255.11 202.911 255.241 203.436 255.241C203.894 255.241 204.352 255.175 204.745 254.978C205.007 254.847 205.268 254.586 205.465 254.324C205.597 254.128 205.661 253.867 205.727 253.67C205.727 253.475 205.662 253.212 205.597 253.016C205.465 252.82 205.269 252.756 205.073 252.558C204.746 252.296 204.353 252.1 203.961 251.838C203.699 251.642 203.373 251.445 203.11 251.249C202.848 250.922 202.652 250.529 202.39 250.202C202.063 249.744 201.867 249.221 201.539 248.698C201.276 248.304 201.017 247.975 200.753 247.651C200.493 247.323 200.166 247.061 199.903 246.799C199.445 246.341 198.986 245.817 198.593 245.295C198.267 244.901 197.873 244.508 197.613 244.049C197.35 243.658 197.286 243.2 197.09 242.807C196.827 242.349 196.435 241.957 196.109 241.499C195.846 241.171 195.585 240.844 195.324 240.582C195.127 240.387 194.996 240.189 194.802 240.059C194.407 239.798 193.884 239.733 193.425 239.536C192.837 239.341 191.725 238.946 191.595 238.946C191.399 238.882 190.285 238.358 189.631 238.032C188.65 237.574 187.668 237.18 186.62 236.788C186.032 236.526 185.377 236.33 184.789 236.068C184.395 235.937 184.004 235.807 183.677 235.61C183.481 235.479 183.349 235.217 183.154 235.02C182.891 234.694 182.695 234.432 182.5 234.106C182.435 233.975 182.369 233.777 182.304 233.647C182.238 233.319 182.304 232.992 182.238 232.665C182.107 232.207 181.846 231.75 181.716 231.291C181.452 230.571 181.258 229.786 180.93 229.066C180.669 228.477 180.341 227.889 180.145 227.299C180.014 226.841 179.949 226.317 179.819 225.795C179.623 224.944 179.426 224.158 179.164 223.374C178.903 222.588 178.576 221.869 178.379 221.084C178.117 220.233 177.921 219.383 177.725 218.531C177.528 217.616 177.397 216.634 177.268 215.718C177.137 214.737 177.07 213.69 177.005 212.709C176.94 211.334 176.94 209.959 176.874 208.587C176.809 207.015 176.809 205.444 176.613 203.874C176.48 202.762 176.219 201.716 176.023 200.668C175.76 199.228 175.368 197.79 175.041 196.349C174.845 195.236 174.715 194.124 174.453 193.077C174.257 192.293 174.06 191.574 173.864 190.853C173.668 190.199 173.406 189.479 173.078 188.824C172.817 188.237 172.49 187.648 172.162 187.058C171.64 186.076 171.052 185.225 170.593 184.244C170.069 183.196 169.808 182.019 169.415 180.907C169.088 179.99 168.629 179.074 168.303 178.159C167.908 176.784 167.386 174.102 167.386 173.839C167.386 173.577 166.994 170.763 166.798 169.258C166.536 167.164 166.143 165.071 165.946 162.977C165.815 161.929 165.815 160.882 165.685 159.901C165.553 158.789 165.422 157.742 165.226 156.63C165.095 155.845 165.03 154.994 164.899 154.209C164.637 152.704 164.245 151.264 164.048 149.76C163.917 148.843 163.852 147.927 163.786 146.946C163.722 146.03 163.722 145.114 163.722 144.198C163.722 143.281 163.852 142.366 163.982 141.45C164.18 140.01 164.572 138.636 164.835 137.197C165.03 135.954 165.227 134.645 165.358 133.402C165.489 132.028 165.685 130.72 165.685 129.345C165.748 127.971 165.685 126.596 165.618 125.223C165.554 123.849 165.489 122.475 165.358 121.101C165.226 119.072 164.964 117.109 164.768 115.081C164.703 114.23 164.768 113.38 164.572 112.595C164.441 111.874 164.114 111.22 163.787 110.632C163.525 110.109 163.133 109.65 162.805 109.258C162.48 108.865 162.152 108.538 161.824 108.211C160.909 107.426 159.928 106.641 158.946 105.986C158.291 105.528 157.571 105.07 156.852 104.743C156.198 104.481 155.477 104.35 154.823 104.22C153.514 103.893 152.075 103.631 150.766 103.238C149.655 102.911 148.541 102.453 147.429 101.929C146.382 101.471 145.334 100.948 144.353 100.424C142.848 99.704 141.278 99.115 139.774 98.396C137.09 97.087 134.408 95.647 131.791 94.143C130.548 93.423 129.435 92.638 128.192 91.853C127.537 91.46 126.359 90.609 126.359 90.609" stroke="#5B5B5B" stroke-width="1.792"/>
</g>
<mask id="mask83_845_63091" style="mask-type:luminance" maskUnits="userSpaceOnUse" x="0" y="0" width="221" height="491">
<path d="M220.187 0.700001H0V491H220.187V0.700001Z" fill="white"/>
</mask>
<g mask="url(#mask83_845_63091)">
<path d="M129.103 92.636C129.103 92.636 128.187 92.178 127.793 91.916C127.271 91.523 126.813 91.065 126.42 90.541C126.157 90.214 125.961 89.822 125.766 89.429C125.372 88.578 125.045 87.728 124.849 86.877C124.653 86.223 124.457 84.914 124.457 84.914" stroke="#5B5B5B" stroke-width="1.792"/>
</g>
<mask id="mask84_845_63091" style="mask-type:luminance" maskUnits="userSpaceOnUse" x="0" y="0" width="221" height="491">
<path d="M220.187 0.700001H0V491H220.187V0.700001Z" fill="white"/>
</mask>
<g mask="url(#mask84_845_63091)">
<path d="M124.13 90.214C124.13 90.214 123.934 88.381 123.998 87.401C123.998 86.615 124.193 85.83 124.261 85.045C124.324 84.39 124.391 83.671 124.457 83.017C124.652 81.185 124.914 79.418 125.111 77.585C125.241 76.277 125.306 74.968 125.437 73.593C125.633 72.285 125.83 70.976 126.157 69.733C126.353 68.816 126.68 67.966 126.878 67.05C127.074 66.331 127.271 65.611 127.4 64.891C127.4 64.825 127.466 64.629 127.466 64.629" stroke="#5B5B5B" stroke-width="1.792"/>
</g>
<mask id="mask85_845_63091" style="mask-type:luminance" maskUnits="userSpaceOnUse" x="0" y="0" width="221" height="491">
<path d="M220.187 0.700001H0V491H220.187V0.700001Z" fill="white"/>
</mask>
<g mask="url(#mask85_845_63091)">
<path d="M126.354 65.48C126.354 65.48 126.681 64.891 126.943 64.694C127.075 64.563 127.271 64.563 127.467 64.563C127.793 64.498 128.187 64.629 128.579 64.563C129.037 64.498 129.56 64.368 129.952 64.171C130.346 63.975 130.804 63.778 131.131 63.451C131.523 63.123 131.719 62.666 131.983 62.208C132.374 61.554 132.702 60.833 132.963 60.049C133.094 59.656 133.29 59.198 133.356 58.805C133.487 58.282 133.42 57.758 133.552 57.301C133.683 56.843 133.878 56.45 134.009 55.992C134.206 55.403 134.468 54.815 134.599 54.225C134.796 53.375 134.926 52.458 134.926 51.608C134.926 51.15 134.665 49.775 134.665 49.775" stroke="#5B5B5B" stroke-width="1.792"/>
</g>
<mask id="mask86_845_63091" style="mask-type:luminance" maskUnits="userSpaceOnUse" x="0" y="0" width="221" height="491">
<path d="M220.187 0.700001H0V491H220.187V0.700001Z" fill="white"/>
</mask>
<g mask="url(#mask86_845_63091)">
<path d="M127.139 63.518C127.139 63.518 126.747 64.107 126.617 64.369C126.485 64.761 126.485 65.154 126.421 65.546C126.355 66.07 126.289 66.658 126.225 67.182C126.093 68.033 125.898 68.884 125.701 69.734C125.57 70.453 125.439 71.108 125.179 71.828C124.982 72.548 124.72 73.333 124.393 74.053C124 74.839 123.477 75.557 122.954 76.278C122.431 77.063 121.907 77.848 121.254 78.503C120.468 79.354 119.682 80.139 118.767 80.859C117.915 81.578 117.066 82.299 116.15 82.822C115.429 83.214 114.578 83.476 113.795 83.738C113.074 84 112.289 84.327 111.569 84.458C110.915 84.589 110.261 84.589 109.672 84.523C108.887 84.458 108.102 84.262 107.382 84.065C106.4 83.869 105.419 83.672 104.503 83.28C103.783 82.953 103.063 82.626 102.409 82.102C101.689 81.513 101.1 80.793 100.511 80.139C99.66 79.223 98.745 78.373 97.959 77.391C97.501 76.736 97.043 76.082 96.782 75.362C96.455 74.643 96.389 73.923 96.192 73.138C95.931 72.026 95.538 70.913 95.342 69.801C95.146 68.623 95.08 67.38 95.014 66.202C95.014 65.941 94.949 65.417 94.949 65.417" stroke="#5B5B5B" stroke-width="1.792"/>
</g>
<mask id="mask87_845_63091" style="mask-type:luminance" maskUnits="userSpaceOnUse" x="0" y="0" width="221" height="491">
<path d="M220.187 0.700001H0V491H220.187V0.700001Z" fill="white"/>
</mask>
<g mask="url(#mask87_845_63091)">
<path d="M94.684 65.087C94.684 65.087 94.03 64.498 93.703 64.236C93.637 64.171 93.572 64.171 93.507 64.106C93.245 64.04 92.983 64.106 92.722 64.04C92.395 63.975 92.068 63.909 91.805 63.713C91.413 63.451 91.085 62.994 90.759 62.6C90.301 62.012 89.973 61.291 89.646 60.637C89.45 60.179 89.384 59.721 89.254 59.263C89.123 58.608 88.927 57.954 88.796 57.365C88.665 56.711 88.6 56.056 88.469 55.468C88.403 55.075 88.273 54.683 88.207 54.29C88.076 53.374 88.011 52.393 88.011 51.412C88.011 50.954 88.207 50.43 88.273 49.973C88.338 49.646 88.469 48.926 88.469 48.926" stroke="#5B5B5B" stroke-width="1.792"/>
</g>
<mask id="mask88_845_63091" style="mask-type:luminance" maskUnits="userSpaceOnUse" x="0" y="0" width="221" height="491">
<path d="M220.187 0.700001H0V491H220.187V0.700001Z" fill="white"/>
</mask>
<g mask="url(#mask88_845_63091)">
<path d="M128.12 59.853C128.514 60.05 128.84 59.395 129.037 59.003C129.298 58.61 129.429 58.086 129.56 57.628C129.755 56.974 129.886 56.319 129.952 55.665C130.017 55.272 129.887 54.879 129.952 54.487C130.083 53.833 130.346 53.178 130.606 52.59C130.933 51.87 131.261 51.215 131.718 50.561C132.045 50.038 132.44 49.45 132.896 49.057C133.028 48.926 133.223 48.664 133.419 48.664C133.682 48.664 133.812 48.991 133.943 49.187C134.139 49.318 134.27 49.514 134.466 49.646C134.597 49.711 134.728 50.038 134.858 49.907C135.186 49.711 134.664 49.187 134.597 48.86C134.531 48.337 134.401 47.813 134.401 47.355C134.466 46.439 134.858 45.523 134.924 44.607C135.055 43.429 134.989 42.317 135.119 41.139C135.251 39.634 135.643 38.194 135.774 36.69C135.839 35.773 135.906 34.857 135.774 33.941C135.643 32.763 135.316 31.585 134.923 30.407C134.529 29.164 134.006 27.92 133.417 26.742C132.763 25.368 132.043 23.993 131.128 22.816C130.343 21.9 129.36 21.181 128.444 20.396C127.201 19.414 125.958 18.367 124.585 17.517C123.407 16.797 122.098 16.339 120.788 15.882C119.152 15.293 117.582 14.573 115.815 14.377C114.246 14.115 112.609 14.377 111.04 14.377C109.403 14.377 107.768 14.181 106.066 14.377C104.823 14.508 103.514 14.704 102.337 15.162C100.897 15.685 99.5229 16.471 98.3449 17.387C97.6249 17.975 96.9699 18.695 96.3819 19.35C95.5969 20.201 94.8119 21.116 94.1569 22.098C93.5679 22.949 93.0439 23.865 92.5869 24.715C92.0639 25.632 91.6699 26.678 91.1479 27.594C90.5589 28.772 89.7729 29.949 89.3149 31.193C88.9879 32.044 88.9229 32.96 88.7259 33.811C88.5289 34.662 88.1369 35.512 87.9409 36.363C87.7449 37.41 87.6789 38.457 87.6129 39.504C87.5479 40.485 87.4829 41.467 87.4829 42.383C87.4829 43.234 87.6129 44.084 87.6779 44.935C87.6779 45.721 87.4829 46.506 87.6129 47.29C87.7439 47.879 88.1369 48.402 88.4639 48.926C88.6599 49.253 88.9869 49.58 89.2499 49.907C89.7079 50.43 90.2959 50.823 90.6239 51.412C90.8859 51.87 90.8859 52.458 91.0159 52.916C91.1479 53.309 91.3429 53.767 91.4099 54.16C91.4749 54.814 91.3439 55.468 91.3439 56.123C91.3439 56.711 91.3439 57.301 91.5409 57.889C91.6059 58.085 91.7369 58.282 91.9339 58.478C92.1299 58.674 92.3259 59.197 92.5879 59.001C93.0459 58.673 92.1299 57.954 92.0649 57.365C91.9989 56.777 92.0649 56.187 92.1959 55.664C92.3259 55.01 92.7189 54.486 92.9159 53.832C93.1779 53.046 93.6349 52.327 93.7009 51.476C93.7659 50.495 93.2429 49.513 93.2429 48.531C93.2429 47.877 93.3739 47.222 93.5049 46.634C93.6349 45.98 93.9629 45.391 94.0939 44.737C94.2249 43.821 94.2899 42.316 94.2899 42.054C94.2899 41.792 94.8789 38.717 94.8789 38.455C94.8789 38.193 95.2059 37.016 95.4679 36.296C95.9909 34.987 96.5799 33.678 97.4959 32.632C98.2809 31.781 99.3279 31.061 100.441 30.669C101.291 30.342 102.208 30.276 103.123 30.276C103.843 30.276 104.563 30.537 105.217 30.8C105.938 31.061 106.592 31.52 107.377 31.716C108.097 31.912 108.882 31.978 109.602 31.912C110.387 31.847 111.106 31.585 111.827 31.454C112.743 31.324 113.659 31.324 114.574 31.258C115.295 31.192 116.472 31.127 116.801 31.127C117.128 31.127 119.026 31.192 119.287 31.192C119.548 31.192 120.465 31.715 121.055 32.043C121.774 32.435 122.559 32.828 123.148 33.352C123.671 33.81 124.13 34.398 124.458 35.053C124.784 35.642 124.915 36.297 125.046 36.951C125.242 37.737 125.242 38.587 125.308 39.437C125.373 40.092 125.504 40.812 125.57 41.465C125.635 42.382 125.439 43.297 125.701 44.214C125.832 44.803 126.552 45.653 126.552 45.85C126.552 46.047 126.945 46.767 127.076 47.224C127.206 47.748 127.338 48.271 127.338 48.729C127.338 49.514 127.076 50.234 127.009 50.954C126.945 51.871 127.009 52.852 127.141 53.767C127.273 54.748 127.469 55.665 127.664 56.646C127.795 57.366 127.927 58.02 127.991 58.74C128.12 59.198 127.859 59.722 128.12 59.853Z" stroke="#5B5B5B" stroke-width="1.792"/>
</g>
<mask id="mask89_845_63091" style="mask-type:luminance" maskUnits="userSpaceOnUse" x="0" y="0" width="221" height="491">
<path d="M220.187 0.700001H0V491H220.187V0.700001Z" fill="white"/>
</mask>
<g mask="url(#mask89_845_63091)">
<path d="M100.507 264.662C100.507 264.662 108.751 283.508 120.594 264.858" stroke="#5B5B5B" stroke-width="1.792"/>
</g>
</svg>
