<svg width="24" height="24" viewBox="0 0 24 24" fill="none" xmlns="http://www.w3.org/2000/svg">
<path d="M1.91699 5.50327C1.91699 5.80164 2.03552 6.08779 2.2465 6.29877C2.45748 6.50975 2.74362 6.62827 3.04199 6.62827H3.64199V19.922C3.64298 20.9036 4.03331 21.8447 4.72733 22.5389C5.42136 23.2331 6.3624 23.6236 7.34399 23.6248H16.656C17.6376 23.6236 18.5786 23.2331 19.2727 22.5389C19.9667 21.8447 20.357 20.9036 20.358 19.922V6.62827H20.958C21.2564 6.62827 21.5425 6.50975 21.7535 6.29877C21.9645 6.08779 22.083 5.80164 22.083 5.50327C22.083 5.2049 21.9645 4.91876 21.7535 4.70778C21.5425 4.4968 21.2564 4.37827 20.958 4.37827H17.0205V3.21727C17.0205 1.64977 15.7455 0.374023 14.178 0.374023H9.82199C8.25449 0.374023 6.97949 1.64902 6.97949 3.21727V4.37752H3.04199C2.74362 4.37752 2.45748 4.49605 2.2465 4.70703C2.03552 4.91801 1.91699 5.2049 1.91699 5.50327ZM9.22949 3.21802C9.22949 2.89027 9.49499 2.62477 9.82199 2.62477H14.178C14.505 2.62477 14.7705 2.89027 14.7705 3.21802V4.37827H9.22874V3.21727L9.22949 3.21802ZM5.89199 6.62827H18.108V19.922C18.1076 20.3071 17.9545 20.6762 17.6823 20.9486C17.4101 21.2209 17.041 21.3742 16.656 21.3748H7.34399C6.95895 21.3742 6.58986 21.2209 6.31767 20.9486C6.04547 20.6762 5.89239 20.3071 5.89199 19.922V6.62827Z" fill="#B8BBC5"/>
<path d="M9.20398 19.3027C9.50235 19.3027 9.7885 19.1842 9.99947 18.9732C10.2105 18.7622 10.329 18.4761 10.329 18.1777V9.82568C10.329 9.52731 10.2105 9.24117 9.99947 9.03019C9.7885 8.81921 9.50235 8.70068 9.20398 8.70068C8.90561 8.70068 8.61946 8.81921 8.40848 9.03019C8.19751 9.24117 8.07898 9.52731 8.07898 9.82568V18.1777C8.07898 18.4761 8.19751 18.7622 8.40848 18.9732C8.61946 19.1842 8.90561 19.3027 9.20398 19.3027ZM14.796 19.3027C15.0943 19.3027 15.3805 19.1842 15.5915 18.9732C15.8025 18.7622 15.921 18.4761 15.921 18.1777V9.82568C15.921 9.52731 15.8025 9.24117 15.5915 9.03019C15.3805 8.81921 15.0943 8.70068 14.796 8.70068C14.4976 8.70068 14.2115 8.81921 14.0005 9.03019C13.7895 9.24117 13.671 9.52731 13.671 9.82568V18.1777C13.671 18.4761 13.7895 18.7622 14.0005 18.9732C14.2115 19.1842 14.4976 19.3027 14.796 19.3027Z" fill="#B8BBC5"/>
</svg>
