<svg width="24" height="24" viewBox="0 0 24 24" fill="none" xmlns="http://www.w3.org/2000/svg">
<path d="M14.2084 14.9202H9.79164C9.59813 14.9202 9.41254 14.8433 9.27571 14.7065C9.13888 14.5697 9.062 14.3841 9.062 14.1906V9.7933C9.062 9.59979 9.13888 9.4142 9.27571 9.27737C9.41254 9.14054 9.59813 9.06367 9.79164 9.06367H14.2084C14.4019 9.06367 14.5875 9.14054 14.7243 9.27737C14.8611 9.4142 14.938 9.59979 14.938 9.7933V14.21C14.9329 14.4001 14.8538 14.5808 14.7175 14.7134C14.5812 14.8461 14.3985 14.9203 14.2084 14.9202ZM10.5407 13.4609H13.4593V10.5424H10.5407V13.4609ZM21.8306 14.9202H17.4139C17.2204 14.9202 17.0348 14.8433 16.898 14.7065C16.7611 14.5697 16.6842 14.3841 16.6842 14.1906V9.7933C16.6842 9.59979 16.7611 9.4142 16.898 9.27737C17.0348 9.14054 17.2204 9.06367 17.4139 9.06367H21.8306C22.0241 9.06367 22.2097 9.14054 22.3465 9.27737C22.4834 9.4142 22.5602 9.59979 22.5602 9.7933V14.21C22.5552 14.4001 22.4761 14.5808 22.3398 14.7134C22.2035 14.8461 22.0208 14.9203 21.8306 14.9202ZM18.1435 13.4609H21.101V10.5424H18.1435V13.4609ZM6.58611 14.9202H2.16939C1.97588 14.9202 1.7903 14.8433 1.65346 14.7065C1.51663 14.5697 1.43976 14.3841 1.43976 14.1906V9.7933C1.43976 9.59979 1.51663 9.4142 1.65346 9.27737C1.7903 9.14054 1.97588 9.06367 2.16939 9.06367H6.58611C6.77962 9.06367 6.96521 9.14054 7.10204 9.27737C7.23887 9.4142 7.31575 9.59979 7.31575 9.7933V14.21C7.31067 14.4001 7.23157 14.5808 7.09528 14.7134C6.95899 14.8461 6.7763 14.9203 6.58611 14.9202ZM2.89903 13.4609H5.85648V10.5424H2.89903V13.4609ZM14.2084 7.16662H9.79164C9.59813 7.16662 9.41254 7.08975 9.27571 6.95291C9.13888 6.81608 9.062 6.63049 9.062 6.43698V2.0154C9.062 1.82189 9.13888 1.6363 9.27571 1.49947C9.41254 1.36264 9.59813 1.28577 9.79164 1.28577H14.2084C14.4019 1.28577 14.5875 1.36264 14.7243 1.49947C14.8611 1.6363 14.938 1.82189 14.938 2.0154V6.43698C14.938 6.63049 14.8611 6.81608 14.7243 6.95291C14.5875 7.08975 14.4019 7.16662 14.2084 7.16662ZM10.5213 5.70735H13.4593V2.75963H10.5407L10.5213 5.70735ZM21.8306 7.16662H17.4139C17.2204 7.16662 17.0348 7.08975 16.898 6.95291C16.7611 6.81608 16.6842 6.63049 16.6842 6.43698V2.0154C16.6842 1.82189 16.7611 1.6363 16.898 1.49947C17.0348 1.36264 17.2204 1.28577 17.4139 1.28577H21.8306C22.0241 1.28577 22.2097 1.36264 22.3465 1.49947C22.4834 1.6363 22.5602 1.82189 22.5602 2.0154V6.43698C22.5602 6.63049 22.4834 6.81608 22.3465 6.95291C22.2097 7.08975 22.0241 7.16662 21.8306 7.16662ZM18.1435 5.70735H21.101V2.75963H18.1435V5.70735ZM6.58611 7.16662H2.16939C1.97588 7.16662 1.7903 7.08975 1.65346 6.95291C1.51663 6.81608 1.43976 6.63049 1.43976 6.43698V2.0154C1.43976 1.82189 1.51663 1.6363 1.65346 1.49947C1.7903 1.36264 1.97588 1.28577 2.16939 1.28577H6.58611C6.77962 1.28577 6.96521 1.36264 7.10204 1.49947C7.23887 1.6363 7.31575 1.82189 7.31575 2.0154V6.43698C7.31575 6.63049 7.23887 6.81608 7.10204 6.95291C6.96521 7.08975 6.77962 7.16662 6.58611 7.16662ZM2.89903 5.70735H5.85648V2.75963H2.89903V5.70735ZM14.2084 22.703H9.79164C9.59813 22.703 9.41254 22.6261 9.27571 22.4893C9.13888 22.3524 9.062 22.1668 9.062 21.9733V17.5663C9.062 17.3728 9.13888 17.1872 9.27571 17.0504C9.41254 16.9136 9.59813 16.8367 9.79164 16.8367H14.2084C14.4019 16.8367 14.5875 16.9136 14.7243 17.0504C14.8611 17.1872 14.938 17.3728 14.938 17.5663V21.9879C14.9342 22.1789 14.8556 22.3607 14.7192 22.4944C14.5828 22.6281 14.3994 22.703 14.2084 22.703ZM10.5407 21.2437H13.4593V18.296H10.5407V21.2437ZM21.8306 22.703H17.4139C17.2204 22.703 17.0348 22.6261 16.898 22.4893C16.7611 22.3524 16.6842 22.1668 16.6842 21.9733V17.5663C16.6842 17.3728 16.7611 17.1872 16.898 17.0504C17.0348 16.9136 17.2204 16.8367 17.4139 16.8367H21.8306C22.0241 16.8367 22.2097 16.9136 22.3465 17.0504C22.4834 17.1872 22.5602 17.3728 22.5602 17.5663V21.9879C22.5564 22.1789 22.4779 22.3607 22.3414 22.4944C22.205 22.6281 22.0216 22.703 21.8306 22.703ZM18.1435 21.2437H21.101V18.296H18.1435V21.2437ZM6.58611 22.703H2.16939C1.97588 22.703 1.7903 22.6261 1.65346 22.4893C1.51663 22.3524 1.43976 22.1668 1.43976 21.9733V17.5663C1.43976 17.3728 1.51663 17.1872 1.65346 17.0504C1.7903 16.9136 1.97588 16.8367 2.16939 16.8367H6.58611C6.77962 16.8367 6.96521 16.9136 7.10204 17.0504C7.23887 17.1872 7.31575 17.3728 7.31575 17.5663V21.9879C7.31193 22.1789 7.23337 22.3607 7.09695 22.4944C6.96053 22.6281 6.77712 22.703 6.58611 22.703ZM2.89903 21.2437H5.85648V18.296H2.89903V21.2437Z" fill="#5A5A5A"/>
</svg>
