<svg width="76" height="76" viewBox="0 0 76 76" fill="none" xmlns="http://www.w3.org/2000/svg">
<path d="M68.875 61.75H7.125C5.16087 61.75 3.5625 60.1516 3.5625 58.1875V22.5625C3.5625 20.5984 5.16087 19 7.125 19H68.875C70.8391 19 72.4375 20.5984 72.4375 22.5625V58.1875C72.4375 60.1516 70.8391 61.75 68.875 61.75ZM7.125 21.375C6.4695 21.375 5.9375 21.907 5.9375 22.5625V58.1875C5.9375 58.843 6.4695 59.375 7.125 59.375H68.875C69.5305 59.375 70.0625 58.843 70.0625 58.1875V22.5625C70.0625 21.907 69.5305 21.375 68.875 21.375H7.125Z" fill="url(#paint0_linear_637_56109)"/>
<path d="M5.9375 14.25H70.0625V16.625H5.9375V14.25Z" fill="url(#paint1_linear_637_56109)"/>
<path d="M30.0569 48.6875L32.7786 32.0625H37.1332L34.4091 48.6875H30.0569Z" fill="url(#paint2_linear_637_56109)"/>
<path d="M50.2003 32.7334C49.337 32.4093 47.9857 32.0625 46.297 32.0625C41.9947 32.0625 38.9642 34.2285 38.9381 37.3338C38.9143 39.6292 41.1017 40.9094 42.7535 41.6741C44.4481 42.4567 45.0181 42.9566 45.0098 43.6561C44.9991 44.7272 43.656 45.2164 42.4044 45.2164C40.6612 45.2164 39.7361 44.9742 38.3063 44.3781L37.7458 44.1239L37.1343 47.6995C38.1508 48.1448 40.0318 48.5319 41.984 48.5521C46.5607 48.5521 49.5318 46.4111 49.5662 43.0944C49.5828 41.2775 48.4227 39.8941 45.9111 38.7541C44.3887 38.0154 43.4577 37.5226 43.4672 36.7733C43.4672 36.1095 44.2557 35.3994 45.961 35.3994C47.3848 35.3768 48.4155 35.6879 49.2195 36.0109L49.6102 36.195L50.2003 32.7334Z" fill="url(#paint3_linear_637_56109)"/>
<path d="M61.75 32.0625H57.9998C56.9572 32.0625 56.1782 32.6776 55.7198 33.7179L49.2539 48.6875H53.8258C53.8258 48.6875 54.5739 46.5346 54.7425 46.1023C55.2425 46.1023 59.6837 46.2009 60.319 46.2009C60.4485 46.7614 60.8487 48.6875 60.8487 48.6875H64.8885L61.5766 32.0625M55.9953 42.75C56.3552 41.5625 57.7303 38.2351 57.7303 38.2351C57.7042 38.2779 58.0877 37.2851 58.3074 36.6854L58.6019 38.0997C58.6019 38.0997 59.4355 41.5613 59.6101 42.7488L55.9953 42.75Z" fill="url(#paint4_linear_637_56109)"/>
<path d="M27.3124 32.0625H26.6165L22.2477 43.1003L21.7406 40.9593C21.711 40.8631 21.6623 40.7657 21.6278 40.6695L20.1613 33.5172C19.8976 32.5043 19.3455 32.0625 18.4002 32.0625H11.1671L11.1113 32.5339C12.8344 32.9507 14.3508 33.5789 15.6975 34.3401L19.7635 48.6875H24.5135L31.0162 32.0625H27.3124Z" fill="url(#paint5_linear_637_56109)"/>
<defs>
<linearGradient id="paint0_linear_637_56109" x1="38" y1="12.6671" x2="38" y2="63.5348" gradientUnits="userSpaceOnUse">
<stop stop-color="#1A6DFF"/>
<stop offset="1" stop-color="#C822FF"/>
</linearGradient>
<linearGradient id="paint1_linear_637_56109" x1="38" y1="12.6671" x2="38" y2="63.5348" gradientUnits="userSpaceOnUse">
<stop stop-color="#1A6DFF"/>
<stop offset="1" stop-color="#C822FF"/>
</linearGradient>
<linearGradient id="paint2_linear_637_56109" x1="33.5944" y1="31.4687" x2="33.5944" y2="50.2871" gradientUnits="userSpaceOnUse">
<stop stop-color="#6DC7FF"/>
<stop offset="1" stop-color="#E6ABFF"/>
</linearGradient>
<linearGradient id="paint3_linear_637_56109" x1="43.6679" y1="31.4687" x2="43.6679" y2="50.2871" gradientUnits="userSpaceOnUse">
<stop stop-color="#6DC7FF"/>
<stop offset="1" stop-color="#E6ABFF"/>
</linearGradient>
<linearGradient id="paint4_linear_637_56109" x1="57.0712" y1="31.4687" x2="57.0712" y2="50.2871" gradientUnits="userSpaceOnUse">
<stop stop-color="#6DC7FF"/>
<stop offset="1" stop-color="#E6ABFF"/>
</linearGradient>
<linearGradient id="paint5_linear_637_56109" x1="21.0638" y1="31.4687" x2="21.0638" y2="50.2871" gradientUnits="userSpaceOnUse">
<stop stop-color="#6DC7FF"/>
<stop offset="1" stop-color="#E6ABFF"/>
</linearGradient>
</defs>
</svg>
